<svg width="48" height="48" viewBox="0 0 48 48" fill="none" xmlns="http://www.w3.org/2000/svg">
<path d="M15 10.5H10.5C9.67157 10.5 9 11.1716 9 12V36C9 36.8284 9.67157 37.5 10.5 37.5H15C15.8284 37.5 16.5 36.8284 16.5 36V12C16.5 11.1716 15.8284 10.5 15 10.5Z" stroke="url(#paint0_linear)" stroke-width="3" stroke-linecap="round" stroke-linejoin="round"/>
<path d="M37.5 10.5H33C32.1716 10.5 31.5 11.1716 31.5 12V36C31.5 36.8284 32.1716 37.5 33 37.5H37.5C38.3284 37.5 39 36.8284 39 36V12C39 11.1716 38.3284 10.5 37.5 10.5Z" stroke="url(#paint1_linear)" stroke-width="3" stroke-linecap="round" stroke-linejoin="round"/>
<path d="M39 15H43.5C43.8978 15 44.2794 15.158 44.5607 15.4393C44.842 15.7206 45 16.1022 45 16.5V31.5C45 31.8978 44.842 32.2794 44.5607 32.5607C44.2794 32.842 43.8978 33 43.5 33H39" stroke="url(#paint2_linear)" stroke-width="3" stroke-linecap="round" stroke-linejoin="round"/>
<path d="M9 33H4.5C4.10218 33 3.72064 32.842 3.43934 32.5607C3.15804 32.2794 3 31.8978 3 31.5V16.5C3 16.1022 3.15804 15.7206 3.43934 15.4393C3.72064 15.158 4.10218 15 4.5 15H9" stroke="url(#paint3_linear)" stroke-width="3" stroke-linecap="round" stroke-linejoin="round"/>
<path d="M16.5 24H31.5" stroke="url(#paint4_linear)" stroke-width="3" stroke-linecap="round" stroke-linejoin="round"/>
<defs>
<linearGradient id="paint0_linear" x1="12.75" y1="10.5" x2="12.75" y2="37.5" gradientUnits="userSpaceOnUse">
<stop stop-color="#9142C6"/>
<stop offset="1" stop-color="#E1D0F1"/>
</linearGradient>
<linearGradient id="paint1_linear" x1="35.25" y1="10.5" x2="35.25" y2="37.5" gradientUnits="userSpaceOnUse">
<stop stop-color="#9142C6"/>
<stop offset="1" stop-color="#E1D0F1"/>
</linearGradient>
<linearGradient id="paint2_linear" x1="42" y1="15" x2="42" y2="33" gradientUnits="userSpaceOnUse">
<stop stop-color="#9142C6"/>
<stop offset="1" stop-color="#E1D0F1"/>
</linearGradient>
<linearGradient id="paint3_linear" x1="6" y1="15" x2="6" y2="33" gradientUnits="userSpaceOnUse">
<stop stop-color="#9142C6"/>
<stop offset="1" stop-color="#E1D0F1"/>
</linearGradient>
<linearGradient id="paint4_linear" x1="24" y1="24" x2="24" y2="25" gradientUnits="userSpaceOnUse">
<stop stop-color="#9142C6"/>
<stop offset="1" stop-color="#E1D0F1"/>
</linearGradient>
</defs>
</svg>
