<svg width="139" height="178" viewBox="0 0 139 178" fill="none" xmlns="http://www.w3.org/2000/svg">
<g id="Group 179" filter="url(#filter0_d)">
<path id="Vector" d="M30.3984 165.722L37.7731 156.264L46.2699 159.149L50.1175 168.288L38.4143 168.929L30.3984 165.722Z" fill="url(#paint0_linear)"/>
<path id="Vector_2" d="M81.9325 34.5824C81.9325 34.5824 74.4393 56.4899 70.9957 60.6469C67.552 64.804 55.4737 70.9473 55.3679 71.4956C55.1178 72.8006 56.1165 74.8383 57.2468 74.8431C61.2547 74.8655 69.4021 71.8131 73.1728 68.2011C77.1631 64.3775 83.4764 42.531 83.4764 42.531L81.9325 34.5824Z" fill="#D68D5D"/>
<path id="Vector_3" d="M62.2312 31.5829L53.1219 146.767L53.061 147.526C52.8319 150.321 51.5062 152.912 49.3736 154.732C47.2409 156.553 44.4745 157.456 41.6784 157.243L20.6768 155.582C17.882 155.353 15.2913 154.028 13.4705 151.895C11.6496 149.762 10.7465 146.996 10.9583 144.2L20.1285 28.2563C20.3581 25.4616 21.6838 22.8712 23.8163 21.0505C25.9488 19.2297 28.715 18.3264 31.5111 18.5378L41.1542 19.2993L52.5143 20.1987C55.3092 20.4282 57.8997 21.7542 59.7202 23.8872C61.5408 26.0201 62.4435 28.7867 62.2312 31.5829Z" fill="#FFAE00"/>
<path id="Vector_4" d="M59.8836 146.919V164.005C59.8807 165.365 59.3392 166.668 58.3778 167.63C57.4163 168.591 56.1132 169.133 54.7535 169.136H9.13017C7.77048 169.133 6.46732 168.591 5.50587 167.63C4.54441 166.668 4.00296 165.365 4 164.005V146.919C4.00339 145.559 4.54497 144.256 5.50633 143.295C6.46769 142.334 7.77061 141.792 9.13017 141.789H54.7566C56.1157 141.793 57.4178 142.335 58.3784 143.296C59.3391 144.257 59.8802 145.56 59.8836 146.919Z" fill="#019D78"/>
<path id="Vector_5" d="M62.2306 31.5829L53.1214 146.766C46.8449 145.954 41.0623 141.797 41.0623 141.797C41.0623 141.797 47.8213 57.5993 49.7355 38.7363C51.2585 23.7305 44.1243 20.1394 41.152 19.3025L52.5121 20.2019C55.3067 20.4311 57.8971 21.7564 59.7179 23.8887C61.5387 26.021 62.442 28.787 62.2306 31.5829Z" fill="#E69B01"/>
<path id="Vector_6" d="M59.8839 146.919V164.005C59.8809 165.365 59.3394 166.668 58.378 167.63C57.4165 168.591 56.1134 169.133 54.7537 169.136H49.343L41.0593 141.798H54.7537C56.1116 141.802 57.4131 142.342 58.3742 143.301C59.3352 144.26 59.8779 145.561 59.8839 146.919Z" fill="#006C5C"/>
<path id="Vector_7" d="M92.2803 161.719C92.2803 161.719 93.1604 168.887 91.756 169.216C91.211 169.342 75.0125 169.181 75.0125 169.181C75.0125 169.181 75.0124 167.244 77.6657 166.814C80.319 166.385 84.981 164.805 85.7698 161.291C86.5585 157.777 92.2803 161.719 92.2803 161.719Z" fill="#200E32"/>
<path id="Vector_8" d="M76.249 124.378C76.249 130.491 83.303 162.761 83.303 162.761C83.303 162.761 90.4259 164.044 93.504 160.982C93.504 160.982 92.8355 131.047 91.7646 124.681C91.5482 123.399 91.8912 121.489 92.5662 119.177C95.2034 110.067 102.881 94.6119 101.119 85.4497C98.9116 73.9645 83.3078 86.3363 83.3078 86.3363C83.3078 86.3363 82.6265 89.4192 81.687 93.8536C79.6045 103.687 76.249 120.167 76.249 124.378Z" fill="#6622D6"/>
<path id="Vector_9" d="M81.6902 93.8536L92.5694 119.184C95.2066 110.073 102.884 94.6183 101.122 85.4561C98.9148 73.9709 83.311 86.3427 83.311 86.3427C83.311 86.3427 82.6296 89.4192 81.6902 93.8536Z" fill="#591EB4"/>
<path id="Vector_10" d="M47.1397 60.6004C47.1397 60.6004 42.8544 60.5347 40.5202 59.071C38.186 57.6073 33.4662 57.6698 32.5043 58.4057C31.5424 59.1415 31.7027 59.5792 32.8747 60.2445C34.0466 60.9099 37.984 64.0296 41.2112 63.7314C44.4384 63.4333 48.2764 64.4368 48.2764 64.4368L47.1397 60.6004Z" fill="#E49963"/>
<path id="Vector_11" d="M131.879 155.302C131.879 155.302 134.819 158.027 134.247 159.964C133.675 161.9 131.018 163.191 130.661 165.557C130.303 167.924 128.867 169.216 127.576 169.216H121.421C121.421 169.216 120.471 167.55 122.766 167.048C125.062 166.547 125.926 163.765 125.784 161.182C125.641 158.6 125.998 155.158 125.998 155.158L130.875 154.011L131.879 155.302Z" fill="#200E32"/>
<path id="Vector_12" d="M83.03 79.4634C83.03 79.4634 101.537 115.152 111.865 133.651C122.192 152.15 125.42 157.319 125.42 157.319C125.42 157.319 131.337 154.952 131.874 153.338C131.874 153.338 126.564 122.717 117.983 111.913C114.076 106.992 114.254 93.1081 113.094 85.3455C112.33 80.2346 108.852 71.2071 108.852 71.2071L83.03 79.4634Z" fill="#6622D6"/>
<path id="Vector_13" d="M75.7135 26.7253C74.5615 28.1058 73.6725 29.686 73.0907 31.3873C79.513 30.9432 87.4856 22.1963 87.4856 22.1963C87.4856 22.1963 82.8268 20.9137 79.5435 15.7611C79.3768 15.5014 79.2165 15.2342 79.0626 14.9595C78.5281 14.0103 78.0775 13.0163 77.7159 11.9888L75.8113 15.3283L72.645 20.8801C72.645 20.8801 73.3087 22.5249 74.8366 25.2231C75.1005 25.6912 75.3929 26.1919 75.7135 26.7253Z" fill="#E49963"/>
<path id="Vector_14" d="M71.1333 40.6392C71.3305 43.7606 72.2716 48.4948 73.5493 53.7324C74.0463 55.7636 74.593 57.8718 75.1653 59.996C76.0952 63.4413 77.0635 66.9073 78.0639 70.1698L78.1008 70.2868C78.1729 70.6187 78.2851 70.9698 78.3877 71.2936C79.255 74.1794 80.0855 76.8406 80.8101 79.1043C82.1953 83.4329 82.2049 85.8473 83.3111 86.3363C85.5347 87.319 94.2897 86.2641 99.5353 83.9908C103.966 82.1039 110.721 76.4126 110.685 73.5493C110.645 70.2291 106.196 60.2333 103.237 48.5622C99.593 34.3051 91.5114 22.9113 84.77 20.5723C84.2666 20.4119 83.7295 21.4668 81.7752 23.3425C79.9701 25.074 77.6968 26.1561 75.5453 26.3886L74.2627 28.5304C72.5233 31.5909 70.8111 35.5508 71.1333 40.6392Z" fill="#060606"/>
<path id="Vector_15" d="M73.5491 53.7324C74.0461 55.7636 74.5927 57.8718 75.1651 59.996C76.0949 63.4413 77.0632 66.9073 78.0636 70.1698L78.1005 70.2868C78.1726 70.6187 78.2849 70.9698 78.3875 71.2936C79.2548 74.1794 80.0852 76.8406 80.8099 79.1043C94.8281 61.2978 86.8779 39.9739 86.8779 39.9739L73.5491 53.7324Z" fill="#161616"/>
<path id="Vector_16" d="M91.248 35.283C91.248 35.283 78.0122 66.0144 69.7799 66.8416C65.719 67.2488 48.7237 64.7046 43.8324 63.7122C43.8324 63.7122 42.6813 64.0745 44.0312 60.267C44.0312 60.267 62.8686 58.3431 66.2144 55.6049C71.1939 51.5328 69.6308 34.3419 75.4423 30.8278C81.2538 27.3136 89.4156 27.3537 91.248 35.283Z" fill="#E49963"/>
<path id="Vector_17" d="M72.6421 20.8753C72.6421 20.8753 73.3058 22.5201 74.8336 25.2183C78.7678 22.3229 79.4396 17.6737 79.5438 15.7595C79.5742 15.2192 79.5582 14.897 79.5582 14.897L79.0596 14.9531L75.8084 15.3218L72.6421 20.8753Z" fill="#D68D5D"/>
<path id="Vector_18" d="M70.8428 21.4267C70.8428 21.4267 80.8947 19.2881 79.4663 13.0485C78.0378 6.80895 78.3729 2.32967 71.8945 3.42945C65.416 4.52923 64.7186 7.19692 64.6882 9.39488C64.6577 11.5928 68.1911 21.8227 70.8428 21.4267Z" fill="#E49963"/>
<path id="Vector_19" d="M79.5644 13.4798C79.5644 13.4798 76.2731 5.66268 67.1782 7.77246C60.9483 9.21533 62.5819 2.8972 62.9474 1.85192C62.9474 1.85192 67.7874 0.942921 72.7925 0.144537C83.303 -1.53239 80.1255 11.9039 79.5644 13.4798Z" fill="#393B3A"/>
<path id="Vector_20" d="M69.4021 44.6456C69.4021 44.6456 81.5093 48.5557 83.4764 52.7336L92.8229 34.5824L85.9774 26.6884L75.5775 29.534C75.5775 29.534 71.0951 32.3332 69.4021 44.6456Z" fill="#171717"/>
</g>
<defs>
<filter id="filter0_d" x="0" y="0" width="138.321" height="177.264" filterUnits="userSpaceOnUse" color-interpolation-filters="sRGB">
<feFlood flood-opacity="0" result="BackgroundImageFix"/>
<feColorMatrix in="SourceAlpha" type="matrix" values="0 0 0 0 0 0 0 0 0 0 0 0 0 0 0 0 0 0 127 0"/>
<feOffset dy="4"/>
<feGaussianBlur stdDeviation="2"/>
<feColorMatrix type="matrix" values="0 0 0 0 0 0 0 0 0 0 0 0 0 0 0 0 0 0 0.25 0"/>
<feBlend mode="normal" in2="BackgroundImageFix" result="effect1_dropShadow"/>
<feBlend mode="normal" in="SourceGraphic" in2="effect1_dropShadow" result="shape"/>
</filter>
<linearGradient id="paint0_linear" x1="20035.4" y1="13501.6" x2="20035.4" y2="12501.1" gradientUnits="userSpaceOnUse">
<stop stop-color="#E5B900"/>
<stop offset="1" stop-color="#FFE94D"/>
</linearGradient>
</defs>
</svg>
