<svg width="69" height="62" viewBox="0 0 69 62" fill="none" xmlns="http://www.w3.org/2000/svg">
<g clip-path="url(#clip0)">
<g opacity="0.3">
<path opacity="0.3" d="M30.9417 1.05615C25.3783 1.05615 19.94 2.70742 15.3142 5.80114C10.6885 8.89485 7.08316 13.2921 4.95417 18.4367C2.82518 23.5814 2.26813 29.2424 3.35349 34.704C4.43884 40.1655 7.11783 45.1823 11.0517 49.1198C14.9856 53.0574 19.9976 55.7389 25.454 56.8253C30.9105 57.9117 36.5662 57.3541 41.706 55.2231C46.8459 53.0921 51.239 49.4834 54.3298 44.8533C57.4206 40.2232 59.0703 34.7798 59.0703 29.2112C59.0703 21.744 56.1068 14.5827 50.8316 9.30258C45.5565 4.02248 38.4019 1.05615 30.9417 1.05615Z" fill="#34414F"/>
</g>
<path d="M28.1253 5.77987C32.5497 5.77397 36.8762 7.08277 40.5568 9.54043C44.2374 11.9981 47.1063 15.494 48.8 19.5852C50.4937 23.6764 50.936 28.1788 50.0709 32.5219C49.2058 36.8649 47.0721 40.8532 43.9403 43.9814C41.8641 46.0595 39.3993 47.708 36.6867 48.8327C33.974 49.9573 31.0666 50.5362 28.1305 50.5362C25.1943 50.5362 22.2869 49.9573 19.5742 48.8327C16.8616 47.708 14.3968 46.0595 12.3206 43.9814C10.2444 41.9033 8.59753 39.4362 7.47391 36.721C6.35029 34.0058 5.77197 31.0956 5.77197 28.1567C5.77197 25.2178 6.35029 22.3077 7.47391 19.5925C8.59753 16.8773 10.2444 14.4102 12.3206 12.3321C14.3912 10.2481 16.8543 8.59588 19.5672 7.47119C22.2801 6.34649 25.1889 5.77163 28.1253 5.77987Z" fill="white"/>
<path d="M28.125 5.31594C31.1449 5.27872 34.1421 5.84193 36.9429 6.97292C39.7437 8.10391 42.2923 9.78018 44.4409 11.9045C46.5896 14.0289 48.2955 16.559 49.4599 19.3483C50.6242 22.1376 51.2237 25.1304 51.2237 28.1534C51.2237 31.1763 50.6242 34.1692 49.4599 36.9585C48.2955 39.7478 46.5896 42.2779 44.4409 44.4023C42.2923 46.5266 39.7437 48.2029 36.9429 49.3339C34.1421 50.4649 31.1449 51.0281 28.125 50.9909" fill="#F4F6F6"/>
<path d="M28.1252 5.77993C32.5496 5.77403 36.8762 7.08282 40.5568 9.54049C44.2373 11.9981 47.1062 15.4941 48.8 19.5853C50.4937 23.6765 50.936 28.1789 50.0708 32.5219C49.2057 36.865 47.0721 40.8533 43.9402 43.9815C41.8641 46.0596 39.3993 47.708 36.6866 48.8327C33.974 49.9574 31.0666 50.5363 28.1304 50.5363C25.1943 50.5363 22.2868 49.9574 19.5742 48.8327C16.8615 47.708 14.3968 46.0596 12.3206 43.9815C10.2444 41.9033 8.59749 39.4362 7.47387 36.721C6.35025 34.0058 5.77193 31.0957 5.77193 28.1568C5.77193 25.2179 6.35025 22.3077 7.47387 19.5925C8.59749 16.8773 10.2444 14.4102 12.3206 12.3321C14.3912 10.2481 16.8542 8.59594 19.5671 7.47124C22.28 6.34655 25.1888 5.77168 28.1252 5.77993ZM28.1252 0C22.5626 0 17.1249 1.65106 12.4997 4.7444C7.87453 7.83774 4.26965 12.2344 2.14092 17.3784C0.0121863 22.5225 -0.544787 28.1828 0.540431 33.6437C1.62565 39.1046 4.30431 44.1207 8.23769 48.0578C12.1711 51.9949 17.1825 54.676 22.6383 55.7623C28.094 56.8485 33.7491 56.291 38.8883 54.1603C44.0275 52.0296 48.42 48.4213 51.5105 43.7918C54.6009 39.1623 56.2504 33.7195 56.2504 28.1516C56.2504 20.6853 53.2872 13.5249 48.0127 8.24541C42.7382 2.96596 35.5845 0 28.1252 0Z" fill="#4C5E67"/>
<path d="M23.733 8.748L22.5308 9.06055L27.5259 28.3105L28.7281 27.9979L23.733 8.748Z" fill="#34414F"/>
<path d="M46.8745 23.5306L22.6587 29.0464L22.7278 29.3503L46.9436 23.8345L46.8745 23.5306Z" fill="#34414F"/>
<path d="M14.6733 20.1796L15.3515 19.1545L28.9072 27.6357L28.5162 28.6435L14.6733 20.1796Z" fill="#34414F"/>
<path d="M46.2167 28.1516C46.2167 28.3626 46.1542 28.5688 46.0371 28.7442C45.92 28.9196 45.7536 29.0563 45.5589 29.137C45.3642 29.2178 45.1499 29.2389 44.9432 29.1977C44.7365 29.1566 44.5466 29.055 44.3976 28.9058C44.2485 28.7567 44.147 28.5666 44.1059 28.3597C44.0648 28.1528 44.0859 27.9383 44.1666 27.7434C44.2472 27.5485 44.3838 27.3819 44.5591 27.2647C44.7343 27.1475 44.9403 27.085 45.1511 27.085C45.2912 27.0845 45.4299 27.1118 45.5594 27.1652C45.6889 27.2187 45.8066 27.2972 45.9056 27.3964C46.0047 27.4955 46.0832 27.6133 46.1365 27.7429C46.1899 27.8725 46.2172 28.0114 46.2167 28.1516Z" fill="#F05B56"/>
<path d="M12.186 28.1516C12.186 28.3626 12.1235 28.5688 12.0064 28.7442C11.8893 28.9196 11.7228 29.0563 11.5281 29.137C11.3334 29.2178 11.1191 29.2389 10.9124 29.1977C10.7057 29.1566 10.5158 29.055 10.3668 28.9058C10.2178 28.7567 10.1163 28.5666 10.0752 28.3597C10.034 28.1528 10.0551 27.9383 10.1358 27.7434C10.2165 27.5485 10.353 27.3819 10.5283 27.2647C10.7035 27.1475 10.9096 27.085 11.1203 27.085C11.4029 27.085 11.674 27.1973 11.8738 27.3974C12.0737 27.5974 12.186 27.8687 12.186 28.1516Z" fill="#F05B56"/>
<path d="M29.2286 11.0819C29.2341 11.294 29.1763 11.5028 29.0626 11.6818C28.9489 11.8609 28.7844 12.0019 28.5903 12.0869C28.3961 12.1719 28.181 12.197 27.9725 12.159C27.764 12.121 27.5716 12.0217 27.4198 11.8737C27.2679 11.7257 27.1637 11.5357 27.1203 11.3281C27.0768 11.1205 27.0963 10.9046 27.176 10.7081C27.2558 10.5116 27.3923 10.3433 27.5681 10.2248C27.7439 10.1064 27.951 10.043 28.1629 10.043C28.4408 10.0429 28.7078 10.1514 28.9068 10.3455C29.1059 10.5396 29.2214 10.8038 29.2286 11.0819Z" fill="#F05B56"/>
<path d="M29.2284 45.2143C29.2284 45.4253 29.1659 45.6315 29.0489 45.8069C28.9318 45.9823 28.7653 46.1191 28.5706 46.1998C28.3759 46.2805 28.1616 46.3016 27.9549 46.2605C27.7482 46.2193 27.5583 46.1177 27.4093 45.9686C27.2603 45.8194 27.1588 45.6293 27.1176 45.4224C27.0765 45.2155 27.0976 45.0011 27.1783 44.8062C27.2589 44.6113 27.3955 44.4447 27.5708 44.3275C27.746 44.2103 27.952 44.1477 28.1628 44.1477C28.4454 44.1477 28.7165 44.2601 28.9163 44.4601C29.1162 44.6601 29.2284 44.9315 29.2284 45.2143Z" fill="#F05B56"/>
<path d="M43.3343 36.9341C43.2817 37.0256 43.2031 37.0993 43.1085 37.1461C43.0139 37.1928 42.9076 37.2104 42.803 37.1966C42.6985 37.1828 42.6003 37.1382 42.5211 37.0686C42.4418 36.9989 42.385 36.9073 42.3578 36.8053C42.3307 36.7032 42.3343 36.5955 42.3684 36.4955C42.4025 36.3956 42.4654 36.3081 42.5492 36.244C42.6331 36.1799 42.734 36.1422 42.8393 36.1356C42.9445 36.129 43.0494 36.1538 43.1406 36.2068C43.2617 36.2784 43.3499 36.3947 43.3861 36.5308C43.4224 36.6668 43.4038 36.8117 43.3343 36.9341Z" fill="#34414F"/>
<path d="M13.8602 19.9024C13.8075 19.9938 13.729 20.0676 13.6344 20.1143C13.5398 20.1611 13.4335 20.1786 13.3289 20.1648C13.2243 20.151 13.1262 20.1065 13.047 20.0368C12.9677 19.9672 12.9109 19.8755 12.8837 19.7735C12.8565 19.6715 12.8602 19.5637 12.8943 19.4638C12.9284 19.3639 12.9913 19.2764 13.0751 19.2123C13.1589 19.1482 13.2599 19.1104 13.3652 19.1038C13.4704 19.0972 13.5753 19.122 13.6665 19.1751C13.7271 19.2099 13.7803 19.2564 13.8229 19.3118C13.8655 19.3673 13.8967 19.4307 13.9148 19.4983C13.9328 19.5659 13.9372 19.6365 13.9279 19.7058C13.9185 19.7751 13.8955 19.842 13.8602 19.9024Z" fill="#34414F"/>
<path d="M37.1414 13.6586C37.0883 13.7496 37.0095 13.8228 36.9149 13.8691C36.8203 13.9153 36.7141 13.9324 36.6098 13.9183C36.5055 13.9041 36.4077 13.8594 36.3288 13.7897C36.2498 13.72 36.1933 13.6284 36.1663 13.5266C36.1393 13.4247 36.143 13.3172 36.177 13.2174C36.211 13.1177 36.2738 13.0303 36.3574 12.9663C36.441 12.9022 36.5417 12.8644 36.6467 12.8576C36.7518 12.8507 36.8565 12.8752 36.9477 12.9279C37.0088 12.9627 37.0624 13.0093 37.1053 13.0651C37.1482 13.1208 37.1796 13.1846 37.1976 13.2526C37.2157 13.3206 37.22 13.3915 37.2103 13.4613C37.2007 13.531 37.1773 13.5981 37.1414 13.6586Z" fill="#34414F"/>
<path d="M20.0986 43.2058C20.0458 43.2961 19.9676 43.3687 19.8736 43.4146C19.7797 43.4604 19.6743 43.4774 19.5708 43.4634C19.4672 43.4494 19.3701 43.405 19.2917 43.3358C19.2133 43.2667 19.1571 43.1759 19.1302 43.0748C19.1033 42.9738 19.1068 42.867 19.1404 42.7679C19.174 42.6689 19.2361 42.582 19.319 42.5183C19.4018 42.4545 19.5016 42.4167 19.6059 42.4097C19.7102 42.4026 19.8142 42.4266 19.9048 42.4786C20.0267 42.5495 20.1154 42.6658 20.1518 42.8021C20.1881 42.9384 20.169 43.0836 20.0986 43.2058Z" fill="#34414F"/>
<path d="M36.9171 43.3651C36.7958 43.4253 36.6561 43.4371 36.5265 43.3979C36.3969 43.3588 36.287 43.2718 36.2192 43.1545C36.1513 43.0373 36.1306 42.8985 36.1613 42.7665C36.192 42.6346 36.2717 42.5192 36.3842 42.4439C36.4448 42.4034 36.513 42.3757 36.5847 42.3627C36.6564 42.3496 36.73 42.3513 36.8009 42.3679C36.8719 42.3844 36.9387 42.4153 36.9973 42.4587C37.0559 42.5021 37.1049 42.557 37.1414 42.6201C37.1779 42.6832 37.2011 42.7532 37.2095 42.8256C37.218 42.898 37.2115 42.9714 37.1904 43.0412C37.1694 43.1111 37.1343 43.1758 37.0873 43.2315C37.0403 43.2872 36.9823 43.3327 36.9171 43.3651Z" fill="#34414F"/>
<path d="M19.9013 13.8524C19.8101 13.9051 19.7054 13.9295 19.6003 13.9227C19.4953 13.9159 19.3946 13.878 19.311 13.814C19.2274 13.7499 19.1647 13.6625 19.1306 13.5628C19.0966 13.4631 19.0929 13.3555 19.1199 13.2537C19.1469 13.1518 19.2034 13.0603 19.2824 12.9906C19.3613 12.9209 19.4591 12.8761 19.5634 12.862C19.6678 12.8479 19.7739 12.865 19.8685 12.9112C19.9632 12.9574 20.042 13.0306 20.095 13.1216C20.1304 13.1823 20.1535 13.2494 20.1629 13.319C20.1723 13.3886 20.1679 13.4594 20.1499 13.5273C20.1319 13.5952 20.1006 13.6589 20.058 13.7147C20.0153 13.7704 19.9621 13.8172 19.9013 13.8524Z" fill="#34414F"/>
<path d="M43.186 20.1103C43.0948 20.1634 42.99 20.1882 42.8847 20.1816C42.7794 20.1749 42.6785 20.1372 42.5947 20.0731C42.5108 20.009 42.4479 19.9215 42.4138 19.8216C42.3797 19.7217 42.3761 19.6139 42.4032 19.5119C42.4304 19.4099 42.4872 19.3182 42.5665 19.2486C42.6457 19.1789 42.7439 19.1343 42.8484 19.1205C42.953 19.1067 43.0593 19.1243 43.1539 19.171C43.2485 19.2178 43.3271 19.2916 43.3797 19.383C43.4492 19.5055 43.4678 19.6503 43.4316 19.7863C43.3953 19.9224 43.3071 20.0387 43.186 20.1103Z" fill="#34414F"/>
<path d="M13.663 37.1696C13.5719 37.2227 13.467 37.2475 13.3617 37.2409C13.2565 37.2343 13.1555 37.1965 13.0717 37.1324C12.9879 37.0684 12.925 36.9808 12.8909 36.8809C12.8568 36.781 12.8531 36.6732 12.8803 36.5712C12.9075 36.4692 12.9643 36.3775 13.0435 36.3079C13.1228 36.2382 13.2209 36.1937 13.3255 36.1799C13.4301 36.1661 13.5364 36.1836 13.631 36.2304C13.7255 36.2771 13.8041 36.3509 13.8568 36.4424C13.9271 36.5646 13.9463 36.7097 13.91 36.846C13.8736 36.9823 13.7849 37.0987 13.663 37.1696Z" fill="#34414F"/>
<path d="M29.367 28.1515C29.367 28.3974 29.2942 28.6377 29.1577 28.8422C29.0212 29.0466 28.8272 29.206 28.6002 29.3001C28.3733 29.3942 28.1235 29.4188 27.8826 29.3708C27.6416 29.3229 27.4203 29.2045 27.2466 29.0306C27.0729 28.8567 26.9546 28.6352 26.9067 28.394C26.8588 28.1528 26.8834 27.9029 26.9774 27.6757C27.0714 27.4485 27.2306 27.2543 27.4348 27.1177C27.6391 26.9811 27.8792 26.9082 28.1249 26.9082C28.4543 26.9082 28.7703 27.0392 29.0032 27.2723C29.2361 27.5055 29.367 27.8217 29.367 28.1515Z" fill="#34414F"/>
<path opacity="0.3" d="M69.0005 60.5108C69.0009 60.7064 68.9628 60.9003 68.8882 61.0812C68.8136 61.262 68.704 61.4264 68.5658 61.5648C68.4275 61.7031 68.2633 61.8128 68.0826 61.8875C67.9019 61.9621 67.7083 62.0004 67.5128 61.9999H34.0317C33.8362 62.0004 33.6425 61.9621 33.4618 61.8875C33.2811 61.8128 33.1169 61.7031 32.9787 61.5648C32.8404 61.4264 32.7309 61.262 32.6563 61.0812C32.5817 60.9003 32.5435 60.7064 32.5439 60.5108V33.8829C32.5435 33.6872 32.5817 33.4934 32.6563 33.3125C32.7309 33.1316 32.8404 32.9673 32.9787 32.8289C33.1169 32.6906 33.2811 32.5809 33.4618 32.5062C33.6425 32.4315 33.8362 32.3933 34.0317 32.3938L67.0561 31.0085C67.8795 31.0085 69.0005 33.8829 69.0005 38.6724V60.5108Z" fill="#34414F"/>
<path d="M32.1762 31.0745H65.6573C66.0519 31.0745 66.4303 31.2314 66.7093 31.5106C66.9883 31.7899 67.145 32.1687 67.145 32.5636V59.1914C67.145 59.3874 67.1065 59.5815 67.0315 59.7626C66.9566 59.9437 66.8467 60.1082 66.7083 60.2468C66.5698 60.3854 66.4054 60.4954 66.2245 60.5704C66.0436 60.6454 65.8497 60.684 65.6538 60.684H32.1762C31.7816 60.684 31.4032 60.5271 31.1242 60.2479C30.8452 59.9686 30.6885 59.5898 30.6885 59.1949V32.5532C30.6912 32.1601 30.8492 31.784 31.1279 31.5069C31.4066 31.2299 31.7834 31.0745 32.1762 31.0745Z" fill="#DBE3E7"/>
<path d="M32.1762 34.3782H63.8339C64.2285 34.3782 64.6069 34.5351 64.8859 34.8143C65.1649 35.0936 65.3217 35.4724 65.3217 35.8673V57.9204C65.3217 58.3153 65.1649 58.6941 64.8859 58.9733C64.6069 59.2526 64.2285 59.4095 63.8339 59.4095H32.1762C31.7816 59.4095 31.4032 59.2526 31.1242 58.9733C30.8452 58.6941 30.6885 58.3153 30.6885 57.9204V35.8673C30.6894 35.4726 30.8464 35.0944 31.1252 34.8153C31.404 34.5363 31.7819 34.3791 32.1762 34.3782Z" fill="#F4F6F6"/>
<path d="M67.1524 31.0745H30.6924V38.5271H67.1524V31.0745Z" fill="#D84848"/>
<g style="mix-blend-mode:multiply" opacity="0.5">
<path d="M67.1525 31.0745H65.208V38.5271H67.1525V31.0745Z" fill="#90BA1C"/>
</g>
<path d="M67.1524 38.5305H30.6924V39.334H67.1524V38.5305Z" fill="#D4E7E2"/>
<path d="M38.7295 34.7939C38.7295 35.0891 38.642 35.3777 38.4782 35.6231C38.3143 35.8686 38.0814 36.0599 37.8089 36.1729C37.5364 36.2858 37.2366 36.3154 36.9474 36.2578C36.6581 36.2002 36.3924 36.058 36.1838 35.8493C35.9753 35.6406 35.8333 35.3746 35.7757 35.0851C35.7182 34.7955 35.7477 34.4954 35.8606 34.2227C35.9734 33.9499 36.1646 33.7168 36.4098 33.5528C36.655 33.3888 36.9433 33.3013 37.2383 33.3013C37.4341 33.3013 37.628 33.3399 37.8089 33.4149C37.9898 33.4899 38.1542 33.5998 38.2927 33.7384C38.4312 33.877 38.541 34.0416 38.616 34.2227C38.6909 34.4038 38.7295 34.5979 38.7295 34.7939Z" fill="#34414F"/>
<path d="M59.7929 34.7939C59.7929 35.0891 59.7055 35.3777 59.5416 35.6231C59.3778 35.8686 59.1449 36.0599 58.8724 36.1729C58.5999 36.2858 58.3001 36.3154 58.0108 36.2578C57.7216 36.2002 57.4559 36.058 57.2473 35.8493C57.0388 35.6406 56.8967 35.3746 56.8392 35.0851C56.7817 34.7955 56.8112 34.4954 56.9241 34.2227C57.0369 33.9499 57.2281 33.7168 57.4733 33.5528C57.7185 33.3888 58.0068 33.3013 58.3017 33.3013C58.6972 33.3013 59.0765 33.4585 59.3562 33.7384C59.6358 34.0184 59.7929 34.398 59.7929 34.7939Z" fill="#34414F"/>
<path d="M39.1485 47.7563C39.0689 45.2906 40.4702 43.3928 43.0616 43.3928C45.0338 43.3928 46.7568 44.6569 46.7568 46.7693C46.7568 50.0385 43.2969 50.3017 41.7192 52.5216H46.819V54.402H38.8994C38.8994 51.8878 40.4391 50.8558 42.3039 49.5745C43.245 48.913 44.5701 48.2654 44.5701 46.939C44.5866 46.7199 44.5563 46.4998 44.4813 46.2933C44.4064 46.0868 44.2885 45.8986 44.1354 45.7411C43.9823 45.5836 43.7976 45.4605 43.5934 45.3798C43.3892 45.2992 43.1702 45.2629 42.9509 45.2733C41.6569 45.2733 41.2417 46.6135 41.2417 47.7563H39.1485Z" fill="#34414F"/>
<path d="M55.4615 45.4116H51.0086L50.5796 47.8635L50.6073 47.8947C50.8794 47.6134 51.2086 47.3936 51.5726 47.2503C51.9367 47.1069 52.3271 47.0432 52.7178 47.0635C54.8456 47.0635 56.0462 48.712 56.0462 50.7309C56.0441 51.251 55.9382 51.7655 55.7348 52.2441C55.5314 52.7227 55.2346 53.1558 54.8617 53.518C54.4888 53.8803 54.0475 54.1643 53.5635 54.3536C53.0795 54.5428 52.5626 54.6334 52.0431 54.62C49.9465 54.62 48.0816 53.4633 48.0366 51.195H50.2233C50.2517 51.642 50.4522 52.0606 50.7825 52.3629C51.1129 52.6651 51.5473 52.8274 51.9947 52.8157C53.1365 52.8157 53.8596 51.8114 53.8596 50.7379C53.8596 49.6643 53.1676 48.7189 51.9947 48.7189C51.6676 48.6974 51.3408 48.7665 51.0503 48.9186C50.7598 49.0707 50.5168 49.3 50.3478 49.5812H48.3757L49.4379 43.6143H55.4615V45.4116Z" fill="#34414F"/>
<g style="mix-blend-mode:screen" opacity="0.7">
<path d="M67.1524 31.0745H30.6924V31.8848H67.1524V31.0745Z" fill="#D84848"/>
</g>
</g>
<defs>
<clipPath id="clip0">
<rect width="69" height="62" fill="white"/>
</clipPath>
</defs>
</svg>
