<svg width="34" height="27" viewBox="0 0 34 27" fill="none" xmlns="http://www.w3.org/2000/svg">
<path d="M32.792 23.6929L33.0361 23.6387L33.0351 23.6348L32.792 23.6929ZM32.8528 23.9668L33.0977 23.9163L33.0969 23.9126L32.8528 23.9668ZM31.4866 26.0437L31.436 25.7988L31.4866 26.0437ZM14.8471 26.08L14.8471 26.33H14.8471V26.08ZM13.0864 24.0041L12.8414 23.9532L12.8398 23.9633L13.0864 24.0041ZM13.1162 23.8609L12.8735 23.8L12.8714 23.81L13.1162 23.8609ZM28.7409 3.98627L28.957 3.86065L28.9531 3.85385L28.9487 3.84731L28.7409 3.98627ZM29.4432 11.9385L29.2009 11.8771L29.1986 11.8859L29.1971 11.8949L29.4432 11.9385ZM30.0664 12.7216L29.9703 12.9525L29.9775 12.9552L30.0664 12.7216ZM30.1283 12.7451L30.0393 12.979L30.0496 12.9824L30.1283 12.7451ZM30.206 12.7709L30.1273 13.0082L30.1313 13.0095L30.206 12.7709ZM30.424 13.1876L30.6626 13.2623L30.424 13.1876ZM30.3457 13.3194L30.504 13.513L30.5153 13.5037L30.5255 13.4932L30.3457 13.3194ZM30.2858 13.3685L30.4205 13.5791L30.4328 13.5712L30.4441 13.562L30.2858 13.3685ZM25.9447 13.646L25.9933 13.4008L25.8572 13.3739L25.7623 13.4751L25.9447 13.646ZM20.2475 13.646L20.4278 13.473L20.3621 13.4044L20.2673 13.3968L20.2475 13.646ZM20.4089 1.74295L20.5 1.97575L20.5 1.97575L20.4089 1.74295ZM21.8061 1.65913L21.7434 1.90115L21.8061 1.65913ZM22.1488 1.74783L22.0862 1.98985L22.19 2.01674L22.2811 1.95997L22.1488 1.74783ZM23.0661 17.243C28.1012 17.243 31.6268 19.8974 32.5488 23.7511L33.0351 23.6348C32.0489 19.5125 28.2846 16.743 23.0661 16.743V17.243ZM32.5479 23.7472L32.6088 24.021L33.0969 23.9126L33.036 23.6387L32.5479 23.7472ZM32.608 24.0173C32.7763 24.8329 32.2516 25.6305 31.436 25.7988L31.5371 26.2885C32.6231 26.0644 33.3218 25.0023 33.0977 23.9163L32.608 24.0173ZM31.436 25.7988C31.3358 25.8195 31.2336 25.83 31.1313 25.83V26.33C31.2676 26.33 31.4036 26.3161 31.5371 26.2885L31.436 25.7988ZM31.1313 25.83H14.8471V26.33H31.1313V25.83ZM14.8471 25.83C13.9996 25.8299 13.3125 25.1428 13.3125 24.2953H12.8125C12.8125 25.419 13.7234 26.3299 14.8471 26.33L14.8471 25.83ZM13.3125 24.2953C13.3125 24.2113 13.3194 24.1276 13.3331 24.0449L12.8398 23.9633C12.8216 24.0729 12.8125 24.184 12.8125 24.2953H13.3125ZM13.3312 24.0549L13.361 23.9117L12.8714 23.81L12.8416 23.9532L13.3312 24.0549ZM13.3587 23.9217C14.317 20.1033 17.9197 17.243 23.0661 17.243V16.743C17.7259 16.743 13.896 19.7266 12.8737 23.8L13.3587 23.9217ZM28.5247 4.1119C29.7445 6.21058 29.9827 8.79014 29.2009 11.8771L29.6856 11.9998C30.4899 8.82407 30.2598 6.10217 28.957 3.86065L28.5247 4.1119ZM29.1971 11.8949C29.1557 12.1289 29.2123 12.3478 29.3602 12.5338C29.5008 12.7104 29.7139 12.8456 29.9703 12.9524L30.1625 12.4908C29.9459 12.4006 29.8186 12.3068 29.7515 12.2225C29.6917 12.1474 29.6733 12.0732 29.6894 11.982L29.1971 11.8949ZM29.9775 12.9552L30.0394 12.9788L30.2172 12.5115L30.1553 12.4879L29.9775 12.9552ZM30.0496 12.9824L30.1273 13.0082L30.2846 12.5336L30.2069 12.5078L30.0496 12.9824ZM30.1313 13.0095C30.1748 13.0231 30.1991 13.0694 30.1854 13.113L30.6626 13.2623C30.7587 12.9552 30.5877 12.6284 30.2807 12.5323L30.1313 13.0095ZM30.1854 13.113C30.1816 13.1253 30.1749 13.1365 30.166 13.1457L30.5255 13.4932C30.5881 13.4284 30.6353 13.3495 30.6626 13.2623L30.1854 13.113ZM30.1875 13.1259L30.1275 13.175L30.4441 13.562L30.504 13.513L30.1875 13.1259ZM30.1511 13.1579C29.9943 13.2582 29.7423 13.3466 29.412 13.4139C29.0864 13.4803 28.704 13.5226 28.3008 13.5418C27.4924 13.5804 26.6231 13.5255 25.9933 13.4008L25.8962 13.8913C26.5735 14.0254 27.4844 14.0813 28.3246 14.0413C28.7456 14.0212 29.1546 13.9767 29.5119 13.9039C29.8644 13.8319 30.187 13.7284 30.4205 13.5791L30.1511 13.1579ZM25.7623 13.4751C24.9338 14.3594 24.0518 14.7793 23.1118 14.7793V15.2793C24.2211 15.2793 25.2278 14.7769 26.1272 13.817L25.7623 13.4751ZM23.1118 14.7793C22.1712 14.7793 21.2779 14.3589 20.4278 13.473L20.0671 13.8191C20.9867 14.7775 22.0029 15.2793 23.1118 15.2793V14.7793ZM20.2673 13.3968C19.0961 13.3034 18.2418 12.824 17.6706 11.9681C17.0908 11.0992 16.7844 9.81466 16.7844 8.08202H16.2844C16.2844 9.86118 16.5969 11.2598 17.2547 12.2456C17.9213 13.2445 18.9235 13.7912 20.2276 13.8953L20.2673 13.3968ZM16.7844 8.08202C16.7844 6.50704 17.1008 5.22351 17.7164 4.21634C18.3303 3.21194 19.2529 2.46387 20.5 1.97575L20.3178 1.51015C18.9819 2.03302 17.9673 2.84695 17.2897 3.95558C16.6138 5.06143 16.2844 6.44194 16.2844 8.08202H16.7844ZM20.5 1.97575C20.8963 1.82063 21.3314 1.79453 21.7434 1.90115L21.8687 1.4171C21.3548 1.28411 20.8121 1.31666 20.3178 1.51015L20.5 1.97575ZM21.7434 1.90115L22.0862 1.98985L22.2115 1.5058L21.8687 1.4171L21.7434 1.90115ZM22.2811 1.95997C23.4314 1.24272 24.5022 1.07932 25.5145 1.42305C26.5394 1.77109 27.5492 2.6538 28.533 4.12523L28.9487 3.84731C27.9352 2.33163 26.8476 1.34772 25.6752 0.949603C24.4901 0.54719 23.2636 0.758116 22.0165 1.53569L22.2811 1.95997Z" fill="#3E0080"/>
<path fill-rule="evenodd" clip-rule="evenodd" d="M10.0036 16.9917C11.1656 16.9917 12.1049 17.1192 13.068 17.3784L13.4308 17.4819C13.9377 17.6342 14.2252 18.1686 14.0729 18.6755C14.0481 18.758 14.0123 18.8367 13.9666 18.9094L13.8667 19.043C12.9495 20.1658 12.3595 21.3997 11.9393 22.8418L11.8283 23.2513L11.7756 23.4944C11.7187 23.8261 11.6995 24.0598 11.6995 24.294C11.6995 24.4254 11.7054 24.5555 11.717 24.6839L11.7386 24.8752C11.8174 25.4564 11.4101 25.9915 10.829 26.0703C10.7816 26.0767 10.7339 26.0799 10.6861 26.0799L1.78463 26.0787C0.799007 26.0787 0 25.2797 0 24.294C0 24.1964 0.00801294 24.099 0.0239183 24.0028L0.0536806 23.8596C1.044 19.9137 4.7603 16.9917 10.0036 16.9917ZM11.4726 1.19347C13.3526 1.6439 15.1382 3.1575 15.0335 6.71235L15.0187 7.04117C14.9675 7.11982 15.6691 7.44106 15.6691 8.47516C15.6691 9.16456 15.4523 9.63378 15.0187 9.88284C14.2241 13.3469 12.5688 15.0789 10.0529 15.0789C7.53686 15.0789 5.73635 13.3469 4.65133 9.88284C4.2437 9.70416 4.03988 9.23493 4.03988 8.47516C4.03988 7.71538 4.2437 7.23739 4.65133 7.04117C4.69471 4.16848 5.3492 2.52863 6.61482 2.12162C7.11721 1.96106 7.59253 1.96106 8.04077 2.12162C8.49411 1.06332 9.63806 0.753934 11.4726 1.19347Z" fill="url(#paint0_radial)"/>
<path fill-rule="evenodd" clip-rule="evenodd" d="M23.6104 18C27.5107 18 30.2836 20.0631 31.0095 23.0971L31.0558 23.3054C31.2051 24.0288 30.7397 24.7362 30.0164 24.8854C29.9275 24.9038 29.8369 24.913 29.7461 24.913H17.3577C16.6079 24.913 16 24.3052 16 23.5553C16 23.4811 16.0061 23.407 16.0182 23.3338L16.0408 23.2248C16.7942 20.2229 19.6215 18 23.6104 18ZM27.2862 5.27185C28.2458 6.92279 28.4239 8.93938 27.8206 11.3216C27.7768 11.569 27.9348 11.7676 28.2946 11.9174L28.3417 11.9353L28.4008 11.9549C28.5342 11.9966 28.6085 12.1386 28.5667 12.2719C28.5549 12.3098 28.5344 12.3441 28.5072 12.3722L28.4616 12.4095C27.8675 12.7894 26.1535 12.8175 25.159 12.6207C24.5018 13.3222 23.7833 13.673 23.0038 13.673C22.2242 13.673 21.4979 13.3222 20.8247 12.6207C18.9416 12.4704 18 11.0594 18 8.38776C18 5.94185 18.9825 4.33434 20.9475 3.56521C21.2863 3.43261 21.6583 3.41029 22.0105 3.50144L22.2712 3.56892C24.095 2.43172 25.7667 2.99936 27.2862 5.27185Z" fill="url(#paint1_radial)"/>
<defs>
<radialGradient id="paint0_radial" cx="0" cy="0" r="1" gradientUnits="userSpaceOnUse" gradientTransform="translate(7.83454 13.54) rotate(90) scale(12.54 7.83454)">
<stop stop-color="#A053F0"/>
<stop offset="1" stop-color="#3E0080"/>
</radialGradient>
<radialGradient id="paint1_radial" cx="0" cy="0" r="1" gradientUnits="userSpaceOnUse" gradientTransform="translate(22.5418 14.54) rotate(90) scale(9.54 7.54184)">
<stop offset="0.480844" stop-color="#F89A59"/>
<stop offset="1" stop-color="#EE6A60"/>
</radialGradient>
</defs>
</svg>
