<svg width="410" height="157" viewBox="0 0 410 157" fill="none" xmlns="http://www.w3.org/2000/svg">
<path d="M30.4854 10H31.5791V2.9541H30.4854L28.6299 4.27246V5.34668L30.4023 4.08203H30.4854V10ZM35.8787 10.1709C37.3582 10.1709 38.4275 9.13574 38.4275 7.71973V7.70996C38.4275 6.3623 37.4656 5.36621 36.1229 5.36621C35.1609 5.36621 34.5262 5.86914 34.2674 6.43555H34.1746C34.1746 6.38184 34.1746 6.32812 34.1795 6.27441C34.2332 4.86816 34.7264 3.71094 35.9129 3.71094C36.577 3.71094 37.0359 4.05273 37.2312 4.58984L37.2508 4.63867H38.3348L38.325 4.58008C38.0906 3.51562 37.1629 2.7832 35.9178 2.7832C34.1746 2.7832 33.1346 4.18945 33.1346 6.57227V6.58203C33.1346 9.1748 34.4627 10.1709 35.8787 10.1709ZM34.3895 7.71973V7.71484C34.3895 6.86523 35.034 6.25 35.8787 6.25C36.7332 6.25 37.3484 6.875 37.3484 7.73926V7.74902C37.3484 8.59375 36.6941 9.25293 35.8689 9.25293C35.0389 9.25293 34.3895 8.5791 34.3895 7.71973ZM39.9732 10.0732C40.3785 10.0732 40.6861 9.76074 40.6861 9.36523C40.6861 8.96484 40.3785 8.65234 39.9732 8.65234C39.568 8.65234 39.2555 8.96484 39.2555 9.36523C39.2555 9.76074 39.568 10.0732 39.9732 10.0732ZM44.1996 10.1318C45.6938 10.1318 46.7533 9.2627 46.7533 8.05176V8.04199C46.7533 7.05566 46.06 6.43066 45.0248 6.33789V6.31348C45.8842 6.13281 46.5092 5.54688 46.5092 4.67285V4.66309C46.5092 3.57422 45.5912 2.82227 44.1898 2.82227C42.8129 2.82227 41.8754 3.6084 41.768 4.79492L41.7631 4.84863H42.7885L42.7934 4.7998C42.8617 4.13574 43.4086 3.7207 44.1898 3.7207C44.9857 3.7207 45.4447 4.12109 45.4447 4.80469V4.81445C45.4447 5.46875 44.8979 5.94238 44.0922 5.94238H43.267V6.79199H44.1264C45.0639 6.79199 45.64 7.23633 45.64 8.03223V8.04199C45.64 8.73535 45.059 9.21875 44.1996 9.21875C43.3256 9.21875 42.7348 8.76953 42.6664 8.12988L42.6615 8.08105H41.6166L41.6215 8.13965C41.7143 9.30664 42.6957 10.1318 44.1996 10.1318ZM50.3107 10.1709C51.9318 10.1709 52.9133 8.75 52.9133 6.47949V6.46973C52.9133 4.19922 51.9318 2.7832 50.3107 2.7832C48.6848 2.7832 47.7082 4.19922 47.7082 6.46973V6.47949C47.7082 8.75 48.6848 10.1709 50.3107 10.1709ZM50.3107 9.2627C49.3635 9.2627 48.8117 8.20312 48.8117 6.47949V6.46973C48.8117 4.74609 49.3635 3.69629 50.3107 3.69629C51.2531 3.69629 51.8098 4.74609 51.8098 6.46973V6.47949C51.8098 8.20312 51.2531 9.2627 50.3107 9.2627ZM58.4559 10.0342C58.6609 10.0342 58.8563 10.0098 59.0271 9.98047V9.13574C58.8807 9.15039 58.7879 9.15527 58.6268 9.15527C58.1043 9.15527 57.8895 8.9209 57.8895 8.34961V5.53223H59.0271V4.69727H57.8895V3.35938H56.8104V4.69727H55.9803V5.53223H56.8104V8.60352C56.8104 9.62402 57.2889 10.0342 58.4559 10.0342ZM62.15 10.1025C63.7027 10.1025 64.6549 9.0625 64.6549 7.35352V7.34375C64.6549 5.63477 63.6979 4.59473 62.15 4.59473C60.5973 4.59473 59.6402 5.63965 59.6402 7.34375V7.35352C59.6402 9.0625 60.5924 10.1025 62.15 10.1025ZM62.15 9.21875C61.2369 9.21875 60.7242 8.53027 60.7242 7.35352V7.34375C60.7242 6.16699 61.2369 5.47852 62.15 5.47852C63.0582 5.47852 63.5758 6.16699 63.5758 7.34375V7.35352C63.5758 8.52539 63.0582 9.21875 62.15 9.21875ZM69.7775 10H70.8713V2.9541H69.7775L67.9221 4.27246V5.34668L69.6945 4.08203H69.7775V10ZM72.8662 10H74.0137L77.0801 3.90137V2.9541H72.2803V3.87695H75.9717V3.95508L72.8662 10ZM77.8104 10.0732C78.2156 10.0732 78.5232 9.76074 78.5232 9.36523C78.5232 8.96484 78.2156 8.65234 77.8104 8.65234C77.4051 8.65234 77.0926 8.96484 77.0926 9.36523C77.0926 9.76074 77.4051 10.0732 77.8104 10.0732ZM82.0367 10.1318C83.5309 10.1318 84.5904 9.2627 84.5904 8.05176V8.04199C84.5904 7.05566 83.8971 6.43066 82.8619 6.33789V6.31348C83.7213 6.13281 84.3463 5.54688 84.3463 4.67285V4.66309C84.3463 3.57422 83.4283 2.82227 82.027 2.82227C80.65 2.82227 79.7125 3.6084 79.6051 4.79492L79.6002 4.84863H80.6256L80.6305 4.7998C80.6988 4.13574 81.2457 3.7207 82.027 3.7207C82.8229 3.7207 83.2818 4.12109 83.2818 4.80469V4.81445C83.2818 5.46875 82.735 5.94238 81.9293 5.94238H81.1041V6.79199H81.9635C82.901 6.79199 83.4771 7.23633 83.4771 8.03223V8.04199C83.4771 8.73535 82.8961 9.21875 82.0367 9.21875C81.1627 9.21875 80.5719 8.76953 80.5035 8.12988L80.4986 8.08105H79.4537L79.4586 8.13965C79.5514 9.30664 80.5328 10.1318 82.0367 10.1318ZM88.1479 10.1709C89.7689 10.1709 90.7504 8.75 90.7504 6.47949V6.46973C90.7504 4.19922 89.7689 2.7832 88.1479 2.7832C86.5219 2.7832 85.5453 4.19922 85.5453 6.46973V6.47949C85.5453 8.75 86.5219 10.1709 88.1479 10.1709ZM88.1479 9.2627C87.2006 9.2627 86.6488 8.20312 86.6488 6.47949V6.46973C86.6488 4.74609 87.2006 3.69629 88.1479 3.69629C89.0902 3.69629 89.6469 4.74609 89.6469 6.46973V6.47949C89.6469 8.20312 89.0902 9.2627 88.1479 9.2627Z" fill="#3E0080"/>
<g filter="url(#filter0_d)">
<rect x="23" y="16" width="377" height="131" rx="10" fill="#EEE8F8"/>
</g>
<mask id="mask0" mask-type="alpha" maskUnits="userSpaceOnUse" x="26" y="18" width="371" height="125">
<rect x="396.305" y="142.319" width="369.61" height="123.032" rx="9.5" transform="rotate(-180 396.305 142.319)" fill="#C4C4C4" stroke="black"/>
</mask>
<g mask="url(#mask0)">
<g filter="url(#filter1_i)">
<path d="M-118.279 -59.0626C-118.279 -252.177 5.69772 -408.727 158.631 -408.727C311.565 -408.727 435.542 -252.177 435.542 -59.0626C435.542 134.052 311.565 290.602 158.631 290.602C5.69772 290.602 -118.279 134.052 -118.279 -59.0626Z" fill="#7429D6" fill-opacity="0.1"/>
<path d="M-76.4026 -59.0626C-76.4026 -223.028 28.8257 -355.948 158.631 -355.948C288.437 -355.948 393.665 -223.028 393.665 -59.0626C393.665 104.902 288.437 237.822 158.631 237.822C28.8257 237.822 -76.4026 104.902 -76.4026 -59.0626Z" fill="#7429D6" fill-opacity="0.1"/>
<path d="M-38.7134 -58.4029C-38.7134 -196.498 49.6408 -308.446 158.631 -308.446C267.622 -308.446 355.976 -196.498 355.976 -58.4029C355.976 79.6921 267.622 191.64 158.631 191.64C49.6408 191.64 -38.7134 79.6921 -38.7134 -58.4029Z" fill="#7429D6" fill-opacity="0.1"/>
<path d="M311.633 -105.739C332.076 -79.9745 332.076 -38.2018 311.633 -12.4372L196.149 133.114C175.706 158.878 142.563 158.878 122.12 133.114L6.63577 -12.4372C-13.8066 -38.2018 -13.8066 -79.9745 6.63577 -105.739L122.12 -251.29C142.563 -277.055 175.706 -277.055 196.149 -251.29L311.633 -105.739Z" fill="#7429D6" fill-opacity="0.1"/>
</g>
</g>
<rect y="4" width="23" height="4" fill="#C3A6EB"/>
<path d="M68.1963 103H70.2607V99.3906H71.9492L73.7881 103H76.126L74.0479 99.083C75.1758 98.6387 75.832 97.5518 75.832 96.2871V96.2734C75.832 94.332 74.5469 93.1357 72.3047 93.1357H68.1963V103ZM70.2607 97.8867V94.749H72.0518C73.084 94.749 73.7197 95.3643 73.7197 96.3145V96.3281C73.7197 97.2988 73.1113 97.8867 72.0791 97.8867H70.2607ZM80.3154 103.157C82.6328 103.157 84.0273 101.694 84.0273 99.2402V99.2266C84.0273 96.793 82.6123 95.3096 80.3154 95.3096C78.0186 95.3096 76.6035 96.7998 76.6035 99.2266V99.2402C76.6035 101.688 77.998 103.157 80.3154 103.157ZM80.3154 101.592C79.249 101.592 78.6475 100.724 78.6475 99.2402V99.2266C78.6475 97.7568 79.2559 96.875 80.3154 96.875C81.3682 96.875 81.9834 97.7568 81.9834 99.2266V99.2402C81.9834 100.724 81.375 101.592 80.3154 101.592ZM87.8408 103.116C88.9004 103.116 89.7002 102.645 90.0898 101.831H90.2129V103H92.209V92.5957H90.2129V96.6768H90.0898C89.7139 95.8564 88.873 95.3506 87.8408 95.3506C85.9336 95.3506 84.7852 96.8066 84.7852 99.2266V99.2402C84.7852 101.646 85.9609 103.116 87.8408 103.116ZM88.5176 101.462C87.4648 101.462 86.8154 100.628 86.8154 99.2402V99.2266C86.8154 97.8525 87.4648 97.0049 88.5176 97.0049C89.5703 97.0049 90.2334 97.8525 90.2334 99.2334V99.2471C90.2334 100.628 89.5771 101.462 88.5176 101.462ZM97.082 103.157C99.2832 103.157 100.254 101.886 100.486 100.942L100.5 100.874H98.6406L98.6201 100.915C98.4834 101.202 97.998 101.667 97.123 101.667C96.0635 101.667 95.4004 100.949 95.3799 99.7119H100.562V99.0898C100.562 96.8135 99.1943 95.3096 97 95.3096C94.8057 95.3096 93.4043 96.8477 93.4043 99.2402V99.2471C93.4043 101.66 94.792 103.157 97.082 103.157ZM97.0342 96.8066C97.9023 96.8066 98.5244 97.3672 98.6475 98.4609H95.4004C95.5234 97.3945 96.166 96.8066 97.0342 96.8066ZM101.695 103H103.691V98.7891C103.691 97.7227 104.409 97.0732 105.544 97.0732C105.852 97.0732 106.159 97.1211 106.46 97.1895V95.4463C106.262 95.3916 105.981 95.3506 105.715 95.3506C104.737 95.3506 104.054 95.8291 103.814 96.6426H103.691V95.4736H101.695V103ZM108.312 94.3184C108.927 94.3184 109.433 93.8262 109.433 93.2109C109.433 92.5889 108.927 92.0967 108.312 92.0967C107.696 92.0967 107.184 92.5889 107.184 93.2109C107.184 93.8262 107.696 94.3184 108.312 94.3184ZM107.307 103H109.303V95.4736H107.307V103ZM114.128 103.157C116.09 103.157 117.266 102.104 117.471 100.464L117.478 100.423H115.632L115.618 100.45C115.44 101.202 114.955 101.592 114.135 101.592C113.068 101.592 112.474 100.751 112.474 99.2266V99.2129C112.474 97.709 113.062 96.875 114.135 96.875C114.989 96.875 115.488 97.3535 115.618 98.085L115.625 98.0986H117.484V98.0781C117.307 96.3965 116.124 95.3096 114.128 95.3096C111.77 95.3096 110.443 96.7383 110.443 99.2129V99.2266C110.443 101.729 111.776 103.157 114.128 103.157ZM118.611 103H120.607V100.478L121.154 99.8965L123.349 103H125.707L122.617 98.666L125.509 95.4736H123.246L120.73 98.4473H120.607V92.5957H118.611V103ZM129.772 103H131.837V93.1357H129.772V103ZM133.6 103H135.596V100.478L136.143 99.8965L138.337 103H140.695L137.605 98.666L140.497 95.4736H138.234L135.719 98.4473H135.596V92.5957H133.6V103ZM141.521 103H143.518V98.6455C143.518 97.627 144.078 96.9639 145.001 96.9639C145.944 96.9639 146.382 97.5244 146.382 98.584V103H148.378V98.1328C148.378 96.335 147.476 95.3096 145.801 95.3096C144.728 95.3096 143.982 95.8223 143.641 96.6357H143.518V92.5957H141.521V103ZM151.863 103.116C152.848 103.116 153.641 102.699 154.023 102.002H154.146V103H156.115V97.8594C156.115 96.2529 154.987 95.3096 152.991 95.3096C151.098 95.3096 149.854 96.1846 149.696 97.5039L149.689 97.5654H151.535L151.549 97.5381C151.706 97.0938 152.164 96.8408 152.882 96.8408C153.702 96.8408 154.146 97.21 154.146 97.8594V98.4814L152.328 98.5908C150.455 98.7002 149.409 99.4932 149.409 100.847V100.86C149.409 102.228 150.428 103.116 151.863 103.116ZM151.357 100.737V100.724C151.357 100.177 151.774 99.8555 152.629 99.8008L154.146 99.7051V100.259C154.146 101.052 153.456 101.66 152.533 101.66C151.843 101.66 151.357 101.312 151.357 100.737ZM157.57 103H159.566V98.6455C159.566 97.627 160.127 96.9639 161.05 96.9639C161.993 96.9639 162.431 97.5244 162.431 98.584V103H164.427V98.1328C164.427 96.335 163.524 95.3096 161.85 95.3096C160.776 95.3096 160.031 95.8223 159.689 96.6357H159.566V95.4736H157.57V103ZM169.17 103.157C171.371 103.157 172.342 101.886 172.574 100.942L172.588 100.874H170.729L170.708 100.915C170.571 101.202 170.086 101.667 169.211 101.667C168.151 101.667 167.488 100.949 167.468 99.7119H172.649V99.0898C172.649 96.8135 171.282 95.3096 169.088 95.3096C166.894 95.3096 165.492 96.8477 165.492 99.2402V99.2471C165.492 101.66 166.88 103.157 169.17 103.157ZM169.122 96.8066C169.99 96.8066 170.612 97.3672 170.735 98.4609H167.488C167.611 97.3945 168.254 96.8066 169.122 96.8066Z" fill="#3E0080"/>
<path d="M57.0418 92.5417H61.0002V94.1251H57.0418V92.5417ZM55.4585 96.5001H61.0002V98.0834H55.4585V96.5001ZM57.8335 100.458H61.0002V102.042H57.8335V100.458ZM43.5835 104.417C43.5835 102.737 44.2508 101.126 45.4385 99.9384C46.6262 98.7507 48.2371 98.0834 49.9168 98.0834C51.5965 98.0834 53.2074 98.7507 54.3952 99.9384C55.5829 101.126 56.2502 102.737 56.2502 104.417H54.6668C54.6668 103.157 54.1664 101.949 53.2756 101.058C52.3848 100.167 51.1766 99.6667 49.9168 99.6667C48.6571 99.6667 47.4489 100.167 46.5581 101.058C45.6673 101.949 45.1668 103.157 45.1668 104.417H43.5835ZM49.9168 97.2917C47.2925 97.2917 45.1668 95.1661 45.1668 92.5417C45.1668 89.9174 47.2925 87.7917 49.9168 87.7917C52.5412 87.7917 54.6668 89.9174 54.6668 92.5417C54.6668 95.1661 52.5412 97.2917 49.9168 97.2917ZM49.9168 95.7084C51.6664 95.7084 53.0835 94.2913 53.0835 92.5417C53.0835 90.7922 51.6664 89.3751 49.9168 89.3751C48.1672 89.3751 46.7502 90.7922 46.7502 92.5417C46.7502 94.2913 48.1672 95.7084 49.9168 95.7084Z" fill="#3E0080"/>
<path d="M71.0371 130.205C72.8125 130.205 74.0957 128.963 74.0957 127.264V127.252C74.0957 125.635 72.9414 124.439 71.3301 124.439C70.1758 124.439 69.4141 125.043 69.1035 125.723H68.9922C68.9922 125.658 68.9922 125.594 68.998 125.529C69.0625 123.842 69.6543 122.453 71.0781 122.453C71.875 122.453 72.4258 122.863 72.6602 123.508L72.6836 123.566H73.9844L73.9727 123.496C73.6914 122.219 72.5781 121.34 71.084 121.34C68.9922 121.34 67.7441 123.027 67.7441 125.887V125.898C67.7441 129.01 69.3379 130.205 71.0371 130.205ZM69.25 127.264V127.258C69.25 126.238 70.0234 125.5 71.0371 125.5C72.0625 125.5 72.8008 126.25 72.8008 127.287V127.299C72.8008 128.312 72.0156 129.104 71.0254 129.104C70.0293 129.104 69.25 128.295 69.25 127.264ZM78.248 130.205C80.1934 130.205 81.3711 128.5 81.3711 125.775V125.764C81.3711 123.039 80.1934 121.34 78.248 121.34C76.2969 121.34 75.125 123.039 75.125 125.764V125.775C75.125 128.5 76.2969 130.205 78.248 130.205ZM78.248 129.115C77.1113 129.115 76.4492 127.844 76.4492 125.775V125.764C76.4492 123.695 77.1113 122.436 78.248 122.436C79.3789 122.436 80.0469 123.695 80.0469 125.764V125.775C80.0469 127.844 79.3789 129.115 78.248 129.115ZM85.3398 130H86.6113V126.092C86.6113 125.26 87.1797 124.604 87.9473 124.604C88.6973 124.604 89.1719 125.061 89.1719 125.787V130H90.4375V125.975C90.4375 125.207 90.9707 124.604 91.7793 124.604C92.6113 124.604 93.0098 125.037 93.0098 125.916V130H94.2754V125.611C94.2754 124.287 93.5254 123.514 92.2422 123.514C91.3574 123.514 90.625 123.965 90.3027 124.65H90.2031C89.9219 123.965 89.3066 123.514 88.4395 123.514C87.6074 123.514 86.9863 123.918 86.7051 124.615H86.6113V123.637H85.3398V130ZM96.2129 122.5C96.6465 122.5 97.0098 122.143 97.0098 121.709C97.0098 121.27 96.6465 120.912 96.2129 120.912C95.7734 120.912 95.416 121.27 95.416 121.709C95.416 122.143 95.7734 122.5 96.2129 122.5ZM95.5742 130H96.8398V123.637H95.5742V130ZM98.1914 130H99.4629V126.268C99.4629 125.242 100.043 124.604 100.975 124.604C101.906 124.604 102.346 125.125 102.346 126.18V130H103.611V125.881C103.611 124.363 102.826 123.514 101.402 123.514C100.477 123.514 99.8672 123.924 99.5566 124.604H99.4629V123.637H98.1914V130ZM107.201 130.123C108.713 130.123 109.838 129.32 109.838 128.143V128.131C109.838 127.211 109.252 126.689 108.027 126.402L107.02 126.174C106.305 126.004 106.012 125.758 106.012 125.359V125.348C106.012 124.838 106.516 124.492 107.213 124.492C107.928 124.492 108.379 124.826 108.502 125.271V125.283H109.715V125.277C109.604 124.24 108.672 123.514 107.219 123.514C105.777 123.514 104.746 124.311 104.746 125.418V125.424C104.746 126.355 105.303 126.9 106.504 127.176L107.518 127.41C108.256 127.58 108.555 127.85 108.555 128.248V128.26C108.555 128.781 108.01 129.139 107.225 129.139C106.469 129.139 106.006 128.816 105.848 128.336L105.842 128.33H104.57V128.336C104.693 129.402 105.666 130.123 107.201 130.123Z" fill="#3E0080"/>
<path d="M51 132C49.8181 132 48.6478 131.767 47.5558 131.315C46.4639 130.863 45.4718 130.2 44.636 129.364C43.8003 128.528 43.1374 127.536 42.6851 126.444C42.2328 125.352 42 124.182 42 123C42 121.818 42.2328 120.648 42.6851 119.556C43.1374 118.464 43.8003 117.472 44.636 116.636C45.4718 115.8 46.4639 115.137 47.5558 114.685C48.6478 114.233 49.8181 114 51 114C53.3869 114 55.6761 114.948 57.364 116.636C59.0518 118.324 60 120.613 60 123C60 125.387 59.0518 127.676 57.364 129.364C55.6761 131.052 53.3869 132 51 132ZM52 123V118H50V125H55V123H52Z" fill="#3E0080"/>
<path d="M147.061 130.314H148.373V127.062H150.225L151.947 130.314H153.465L151.566 126.857C152.598 126.511 153.207 125.585 153.207 124.449V124.437C153.207 122.867 152.129 121.859 150.395 121.859H147.061V130.314ZM148.373 125.996V122.96H150.225C151.238 122.96 151.859 123.535 151.859 124.472V124.484C151.859 125.445 151.273 125.996 150.266 125.996H148.373ZM156.914 130.437C158.543 130.437 159.422 129.5 159.633 128.662L159.645 128.609L158.42 128.615L158.396 128.662C158.244 128.99 157.758 129.394 156.943 129.394C155.895 129.394 155.227 128.685 155.203 127.466H159.715V127.021C159.715 125.111 158.625 123.828 156.85 123.828C155.074 123.828 153.926 125.158 153.926 127.144V127.15C153.926 129.166 155.051 130.437 156.914 130.437ZM156.855 124.871C157.717 124.871 158.355 125.421 158.455 126.558H155.221C155.332 125.462 155.988 124.871 156.855 124.871ZM160.727 130.314H161.998V126.406C161.998 125.574 162.566 124.917 163.334 124.917C164.084 124.917 164.559 125.375 164.559 126.101V130.314H165.824V126.289C165.824 125.521 166.357 124.917 167.166 124.917C167.998 124.917 168.396 125.351 168.396 126.23V130.314H169.662V125.925C169.662 124.601 168.912 123.828 167.629 123.828C166.744 123.828 166.012 124.279 165.689 124.964H165.59C165.309 124.279 164.693 123.828 163.826 123.828C162.994 123.828 162.373 124.232 162.092 124.929H161.998V123.951H160.727V130.314ZM173.633 130.437C175.496 130.437 176.639 129.189 176.639 127.138V127.126C176.639 125.076 175.49 123.828 173.633 123.828C171.77 123.828 170.621 125.082 170.621 127.126V127.138C170.621 129.189 171.764 130.437 173.633 130.437ZM173.633 129.376C172.537 129.376 171.922 128.55 171.922 127.138V127.126C171.922 125.714 172.537 124.888 173.633 124.888C174.723 124.888 175.344 125.714 175.344 127.126V127.138C175.344 128.544 174.723 129.376 173.633 129.376ZM180.059 130.355C180.305 130.355 180.539 130.326 180.744 130.291V129.277C180.568 129.294 180.457 129.3 180.264 129.3C179.637 129.3 179.379 129.019 179.379 128.333V124.953H180.744V123.951H179.379V122.345H178.084V123.951H177.088V124.953H178.084V128.638C178.084 129.863 178.658 130.355 180.059 130.355ZM184.328 130.437C185.957 130.437 186.836 129.5 187.047 128.662L187.059 128.609L185.834 128.615L185.811 128.662C185.658 128.99 185.172 129.394 184.357 129.394C183.309 129.394 182.641 128.685 182.617 127.466H187.129V127.021C187.129 125.111 186.039 123.828 184.264 123.828C182.488 123.828 181.34 125.158 181.34 127.144V127.15C181.34 129.166 182.465 130.437 184.328 130.437ZM184.27 124.871C185.131 124.871 185.77 125.421 185.869 126.558H182.635C182.746 125.462 183.402 124.871 184.27 124.871Z" fill="#3E0080"/>
<path d="M140 122.112L138.814 123.297L138.222 122.704L134.667 126.259L134.074 129.223L132.888 130.407L129.333 126.852L125.185 131L124 129.815L128.148 125.667L124.592 122.112L125.777 120.926L128.742 120.333L132.297 116.778L131.704 116.186L132.889 115L140 122.112Z" fill="#3E0080"/>
<g filter="url(#filter2_d)">
<path d="M335.346 71.2298C335.306 71.1237 335.236 71.0321 335.143 70.9667C335.051 70.9012 334.941 70.865 334.828 70.8627C334.714 70.8603 334.603 70.892 334.508 70.9535C334.413 71.0151 334.338 71.1037 334.294 71.208C333.563 72.9594 331.944 75.9631 329.244 76.7734C329.107 76.813 328.978 76.8566 328.848 76.8982C328.803 76.6949 328.808 76.4838 328.861 76.2826C328.915 76.0813 329.015 75.8957 329.155 75.7412C330.104 74.6257 328.877 72.7851 328.877 72.7851C328.877 72.7851 328.598 74.2354 327.37 75.016C326.314 75.6897 325.63 77.3936 326.104 78.9271C326.813 84.4747 327.992 91.859 319.258 96.0415C310.525 100.224 301.03 83.7832 301.03 83.7832L304.426 102.407C304.426 102.407 312.334 109.936 323.611 102.166C334.889 94.3951 329.83 80.3774 329.83 80.3774C329.83 80.3774 337.958 78.2297 335.346 71.2298Z" fill="url(#paint0_linear)"/>
<path d="M302.934 57.3012C302.934 57.3012 306.593 47.0955 294.216 48.3616C294.216 48.3616 288.498 46.6755 287.509 52.1478C287.509 52.1478 283.434 54.1549 285.589 59.2706C285.589 59.2706 274.948 53.5426 268.844 62.7339C262.739 71.9251 266.533 77.8829 271.057 79.878C271.057 79.878 267.013 81.3085 268.271 85.8497C269.529 90.3908 278.267 94.5674 284.319 90.0104C284.319 90.0104 299.395 93.9631 300.449 83.0957C300.449 83.0957 308.158 79.3887 301.795 69.498C295.431 59.6074 302.934 57.3012 302.934 57.3012Z" fill="url(#paint1_linear)"/>
<path d="M300.533 81.7225C298.207 80.6942 291.338 78.4712 283.866 83.8068C283.245 84.2504 282.756 84.8561 282.454 85.5578C282.153 86.2596 282.049 87.0307 282.155 87.7873C283.12 94.6326 285.404 114.784 280.173 122.721C280.173 122.721 286.488 131.723 295.303 126.216C295.303 126.216 300.85 111.032 306.418 104.757C310.257 100.426 303.481 86.3112 301.75 82.8875C301.49 82.371 301.06 81.9596 300.533 81.7225Z" fill="url(#paint2_linear)"/>
<path d="M295.513 67.7327C295.513 67.7327 290.667 77.3955 289.839 81.8217C291.049 82.4798 292.414 82.8013 293.791 82.7529C295.167 82.7044 296.506 82.2878 297.667 81.5463C297.667 81.5463 299.327 71.4971 300.118 69.7595L295.513 67.7327Z" fill="url(#paint3_linear)"/>
<path d="M302.211 54.5728C302.211 54.5728 309.914 68.8381 303.847 71.929C297.781 75.0198 292.288 64.8914 292.288 64.8914C292.288 64.8914 291.02 57.4576 293.594 55.3138C296.168 53.1701 302.211 54.5728 302.211 54.5728Z" fill="url(#paint4_linear)"/>
<path d="M298.276 50.9019C298.276 50.9019 302.437 52.4592 302.802 54.4781C303.166 56.4971 296.24 57.4501 294.353 57.3094L291.857 64.9612C291.857 64.9612 288.316 57.0241 290.623 52.9862C292.929 48.9483 298.276 50.9019 298.276 50.9019Z" fill="url(#paint5_linear)"/>
<path d="M294.229 64.1565C294.229 64.1565 291.12 59.4846 289.327 62.0504C287.534 64.6161 291.998 67.2731 293.803 66.1299L294.229 64.1565Z" fill="url(#paint6_linear)"/>
<path d="M282.744 85.0077C282.744 85.0077 270.133 93.0617 265.669 105.673C261.205 118.284 280.55 122.117 280.55 122.117C280.55 122.117 283.572 119.492 286.585 120.942C289.599 122.393 287.479 115.809 283.796 115.363C280.112 114.917 281.452 118.04 276.542 115.03C271.757 112.094 269.516 104.595 283.811 95.4511C284.645 94.9242 285.333 94.1975 285.815 93.3371C289.119 87.3199 287.651 82.9214 282.744 85.0077Z" fill="url(#paint7_linear)"/>
<path d="M348.994 102.204C348.994 102.204 338.996 75.137 349.525 66.8204C349.525 66.8204 365.296 64.2766 376.764 68.6243L375.456 102.204C375.456 102.204 363.666 107.447 348.994 102.204Z" fill="url(#paint8_linear)"/>
<path d="M352.646 59.0739C352.646 59.0739 354.694 64.05 355.216 67.9623C355.291 68.5207 355.545 69.0401 355.938 69.4436C356.331 69.8472 356.844 70.1135 357.4 70.2034C359.849 70.6105 363.908 70.8371 366.377 68.5836C366.644 68.3374 366.832 68.0181 366.919 67.6654C367.005 67.3128 366.985 66.9425 366.862 66.601C365.844 63.7526 360.557 51.8974 357.675 50.0793L352.646 59.0739Z" fill="url(#paint9_linear)"/>
<path d="M373.5 95.6699C373.5 95.6912 373.5 95.7142 373.5 95.7354C373.545 101.931 365.17 102.521 365.17 102.521C365.17 102.521 362.774 98.5377 359.701 98.4085C356.628 98.2792 352.358 103.285 352.358 103.285L360.266 105.144C360.266 105.144 372.185 112.181 381.102 102.91C379.526 97.1339 375.772 95.8788 373.5 95.6699Z" fill="url(#paint10_linear)"/>
<path d="M376.758 68.6331C368.309 71.6301 369.532 78.2649 369.532 78.2649C369.532 78.2649 373.426 89.474 373.499 95.6787C375.77 95.8876 379.518 97.148 381.1 102.919C381.313 102.699 381.522 102.473 381.729 102.234C392.382 89.8759 376.758 68.6331 376.758 68.6331Z" fill="url(#paint11_linear)"/>
<path d="M373.5 95.999C373.413 95.999 373.331 95.965 373.269 95.9044C373.208 95.8437 373.173 95.7613 373.172 95.6751C373.117 90.8459 370.712 82.9294 369.679 79.743C369.653 79.6601 369.66 79.57 369.7 79.4925C369.739 79.415 369.808 79.3564 369.891 79.3296C369.974 79.3028 370.064 79.3101 370.141 79.3498C370.219 79.3894 370.278 79.4583 370.304 79.5412C371.345 82.7524 373.774 90.7503 373.829 95.6698C373.829 95.713 373.821 95.7559 373.805 95.7961C373.789 95.8362 373.765 95.8727 373.735 95.9036C373.705 95.9345 373.669 95.9592 373.629 95.9762C373.589 95.9931 373.546 96.0021 373.503 96.0026L373.5 95.999Z" fill="url(#paint12_linear)"/>
<path d="M343.406 46.5333C343.406 46.7812 348.94 62.1982 348.94 62.1982L357.669 58.8506L354.601 43.4602C354.601 43.4602 343.406 42.3874 343.406 46.5333Z" fill="url(#paint13_linear)"/>
<path d="M353.067 47.2132L355.322 55.1792C355.351 55.2808 355.365 55.3855 355.367 55.4908C355.367 56.1405 355.206 58.3781 352.926 58.0736C350.858 57.7974 348.966 57.5761 347.762 58.1426C347.501 58.2653 347.296 58.4807 347.185 58.7469C347.075 59.013 347.068 59.3107 347.165 59.5818C347.668 60.9821 348.861 64.1172 350.311 66.6822C350.454 66.9327 350.686 67.1204 350.961 67.2086C351.236 67.2967 351.534 67.2788 351.796 67.1584C353.437 66.4114 356.854 64.7403 359.286 62.7523C359.448 62.6211 359.572 62.4485 359.644 62.2529C359.716 62.0572 359.735 61.8457 359.697 61.6406C359.313 59.6013 358.173 53.3966 358.123 51.6175C358.075 49.9482 359.948 48.6754 360.778 48.1957C360.911 48.1178 361.026 48.014 361.117 47.8905C361.208 47.767 361.274 47.6263 361.309 47.4769C361.57 46.4024 361.789 43.9701 358.688 43.4355C358.534 43.4093 358.387 43.3524 358.256 43.2682C358.125 43.184 358.013 43.0743 357.925 42.9456C357.837 42.8169 357.776 42.6718 357.746 42.5191C357.715 42.3663 357.716 42.209 357.748 42.0565C358.01 40.7713 357.925 38.8807 355.485 38.1832C353.007 37.4751 351.446 38.9692 350.651 40.1128C350.495 40.3354 350.265 40.4959 350.003 40.5661C349.74 40.6364 349.461 40.6119 349.215 40.4969C349.047 40.4186 348.858 40.3937 348.675 40.4253C348.492 40.4569 348.323 40.5437 348.19 40.6739C348.067 40.7753 347.925 40.8498 347.772 40.8928C347.619 40.9359 347.458 40.9464 347.3 40.9237C347.143 40.901 346.992 40.8457 346.857 40.7612C346.722 40.6767 346.606 40.565 346.517 40.4332C345.795 39.371 344.482 38.3089 342.256 39.0258C338.31 40.304 338.5 44.8535 339.946 47.3265C341.392 49.7995 345.593 48.1727 347.581 46.5334C349.093 45.2942 351.394 46.0342 352.41 46.4626C352.57 46.5299 352.711 46.6324 352.825 46.7624C352.939 46.8924 353.022 47.0465 353.067 47.2132Z" fill="url(#paint14_linear)"/>
<path d="M358.473 54.5933C358.473 54.5933 356.577 50.1181 358.119 48.7303C359.661 47.3424 361.817 47.8204 361.748 51.2759C361.663 55.5722 358.473 54.5933 358.473 54.5933Z" fill="url(#paint15_linear)"/>
</g>
<g filter="url(#filter3_d)">
<rect x="43" y="33" width="120" height="26" rx="5" fill="url(#paint16_linear)"/>
</g>
<g filter="url(#filter4_d)">
<path d="M55.3867 51.2529C57.7656 51.2529 59.4541 49.8447 59.666 47.7803L59.6729 47.7051H57.6631L57.6494 47.7598C57.4307 48.8125 56.5762 49.5029 55.3936 49.5029C53.835 49.5029 52.8711 48.1904 52.8711 46.0713V46.0576C52.8711 43.9385 53.835 42.6328 55.3867 42.6328C56.5625 42.6328 57.4443 43.3848 57.6562 44.4922V44.54H59.666V44.458C59.4746 42.373 57.7246 40.8828 55.3867 40.8828C52.5225 40.8828 50.7588 42.8584 50.7588 46.0576V46.0713C50.7588 49.2705 52.5293 51.2529 55.3867 51.2529ZM65.3867 51.2529C68.2988 51.2529 70.1309 49.2568 70.1309 46.0713V46.0576C70.1309 42.8721 68.292 40.8828 65.3867 40.8828C62.4814 40.8828 60.6357 42.8652 60.6357 46.0576V46.0713C60.6357 49.2568 62.4541 51.2529 65.3867 51.2529ZM65.3867 49.5029C63.7598 49.5029 62.7412 48.1562 62.7412 46.0713V46.0576C62.7412 43.9658 63.7803 42.6328 65.3867 42.6328C66.9863 42.6328 68.0254 43.9658 68.0254 46.0576V46.0713C68.0254 48.1562 66.9932 49.5029 65.3867 49.5029ZM71.5928 51H73.5684V44.6904H73.6777L78.2441 51H79.9531V41.1357H77.9775V47.418H77.8682L73.3154 41.1357H71.5928V51ZM85.3799 51.2529C87.8408 51.2529 89.3584 50.0156 89.3584 48.0605V48.0537C89.3584 46.5156 88.4492 45.6816 86.3643 45.251L85.3184 45.0391C84.1562 44.7998 83.6777 44.417 83.6777 43.7744V43.7676C83.6777 43.0293 84.3545 42.5645 85.373 42.5576C86.4121 42.5576 87.0957 43.0498 87.2119 43.7539L87.2256 43.8359H89.167L89.1602 43.7471C89.0303 42.0996 87.6768 40.8828 85.373 40.8828C83.1855 40.8828 81.6133 42.0928 81.6133 43.9248V43.9316C81.6133 45.4287 82.4951 46.3857 84.5459 46.8027L85.585 47.0146C86.8086 47.2676 87.2939 47.6299 87.2939 48.2793V48.2861C87.2939 49.0449 86.5352 49.5713 85.4346 49.5713C84.2793 49.5713 83.4795 49.0723 83.4043 48.334L83.3975 48.2656H81.4082L81.415 48.375C81.5312 50.125 83.0215 51.2529 85.3799 51.2529ZM94.9424 51.2529C97.4854 51.2529 99.0713 49.7832 99.0713 47.5957V41.1357H97.0068V47.4111C97.0068 48.6895 96.2686 49.5029 94.9424 49.5029C93.6162 49.5029 92.8711 48.6895 92.8711 47.4111V41.1357H90.8066V47.5957C90.8066 49.79 92.4131 51.2529 94.9424 51.2529ZM100.964 51H107.417V49.2979H103.028V41.1357H100.964V51ZM109.884 51H111.948V42.8379H114.908V41.1357H106.924V42.8379H109.884V51ZM114.463 51H116.63L117.361 48.6074H120.841L121.572 51H123.746L120.314 41.1357H117.888L114.463 51ZM119.043 43.1045H119.166L120.369 47.0625H117.833L119.043 43.1045ZM126.247 51H128.312V42.8379H131.271V41.1357H123.287V42.8379H126.247V51ZM132.597 51H134.661V41.1357H132.597V51ZM140.867 51.2529C143.779 51.2529 145.611 49.2568 145.611 46.0713V46.0576C145.611 42.8721 143.772 40.8828 140.867 40.8828C137.962 40.8828 136.116 42.8652 136.116 46.0576V46.0713C136.116 49.2568 137.935 51.2529 140.867 51.2529ZM140.867 49.5029C139.24 49.5029 138.222 48.1562 138.222 46.0713V46.0576C138.222 43.9658 139.261 42.6328 140.867 42.6328C142.467 42.6328 143.506 43.9658 143.506 46.0576V46.0713C143.506 48.1562 142.474 49.5029 140.867 49.5029ZM147.073 51H149.049V44.6904H149.158L153.725 51H155.434V41.1357H153.458V47.418H153.349L148.796 41.1357H147.073V51Z" fill="white"/>
</g>
<defs>
<filter id="filter0_d" x="13" y="6" width="397" height="151" filterUnits="userSpaceOnUse" color-interpolation-filters="sRGB">
<feFlood flood-opacity="0" result="BackgroundImageFix"/>
<feColorMatrix in="SourceAlpha" type="matrix" values="0 0 0 0 0 0 0 0 0 0 0 0 0 0 0 0 0 0 127 0"/>
<feOffset/>
<feGaussianBlur stdDeviation="5"/>
<feColorMatrix type="matrix" values="0 0 0 0 0 0 0 0 0 0 0 0 0 0 0 0 0 0 0.1 0"/>
<feBlend mode="normal" in2="BackgroundImageFix" result="effect1_dropShadow"/>
<feBlend mode="normal" in="SourceGraphic" in2="effect1_dropShadow" result="shape"/>
</filter>
<filter id="filter1_i" x="-118.279" y="-408.727" width="553.821" height="703.329" filterUnits="userSpaceOnUse" color-interpolation-filters="sRGB">
<feFlood flood-opacity="0" result="BackgroundImageFix"/>
<feBlend mode="normal" in="SourceGraphic" in2="BackgroundImageFix" result="shape"/>
<feColorMatrix in="SourceAlpha" type="matrix" values="0 0 0 0 0 0 0 0 0 0 0 0 0 0 0 0 0 0 127 0" result="hardAlpha"/>
<feOffset dy="4"/>
<feGaussianBlur stdDeviation="2"/>
<feComposite in2="hardAlpha" operator="arithmetic" k2="-1" k3="1"/>
<feColorMatrix type="matrix" values="0 0 0 0 0 0 0 0 0 0 0 0 0 0 0 0 0 0 0.25 0"/>
<feBlend mode="normal" in2="shape" result="effect1_innerShadow"/>
</filter>
<filter id="filter2_d" x="261" y="38" width="128.447" height="97.9999" filterUnits="userSpaceOnUse" color-interpolation-filters="sRGB">
<feFlood flood-opacity="0" result="BackgroundImageFix"/>
<feColorMatrix in="SourceAlpha" type="matrix" values="0 0 0 0 0 0 0 0 0 0 0 0 0 0 0 0 0 0 127 0"/>
<feOffset dy="4"/>
<feGaussianBlur stdDeviation="2"/>
<feColorMatrix type="matrix" values="0 0 0 0 0 0 0 0 0 0 0 0 0 0 0 0 0 0 0.25 0"/>
<feBlend mode="normal" in2="BackgroundImageFix" result="effect1_dropShadow"/>
<feBlend mode="normal" in="SourceGraphic" in2="effect1_dropShadow" result="shape"/>
</filter>
<filter id="filter3_d" x="26" y="20" width="154" height="60" filterUnits="userSpaceOnUse" color-interpolation-filters="sRGB">
<feFlood flood-opacity="0" result="BackgroundImageFix"/>
<feColorMatrix in="SourceAlpha" type="matrix" values="0 0 0 0 0 0 0 0 0 0 0 0 0 0 0 0 0 0 127 0"/>
<feOffset dy="4"/>
<feGaussianBlur stdDeviation="8.5"/>
<feColorMatrix type="matrix" values="0 0 0 0 0 0 0 0 0 0 0 0 0 0 0 0 0 0 0.25 0"/>
<feBlend mode="normal" in2="BackgroundImageFix" result="effect1_dropShadow"/>
<feBlend mode="normal" in="SourceGraphic" in2="effect1_dropShadow" result="shape"/>
</filter>
<filter id="filter4_d" x="46.7588" y="40.8828" width="112.675" height="18.3701" filterUnits="userSpaceOnUse" color-interpolation-filters="sRGB">
<feFlood flood-opacity="0" result="BackgroundImageFix"/>
<feColorMatrix in="SourceAlpha" type="matrix" values="0 0 0 0 0 0 0 0 0 0 0 0 0 0 0 0 0 0 127 0"/>
<feOffset dy="4"/>
<feGaussianBlur stdDeviation="2"/>
<feColorMatrix type="matrix" values="0 0 0 0 0 0 0 0 0 0 0 0 0 0 0 0 0 0 0.25 0"/>
<feBlend mode="normal" in2="BackgroundImageFix" result="effect1_dropShadow"/>
<feBlend mode="normal" in="SourceGraphic" in2="effect1_dropShadow" result="shape"/>
</filter>
<linearGradient id="paint0_linear" x1="14642.9" y1="15409" x2="8229.43" y2="23296.4" gradientUnits="userSpaceOnUse">
<stop stop-color="#FEBBBA"/>
<stop offset="1" stop-color="#FF928E"/>
</linearGradient>
<linearGradient id="paint1_linear" x1="104620" y1="10800.7" x2="110838" y2="15508.3" gradientUnits="userSpaceOnUse">
<stop stop-color="#090056"/>
<stop offset="1" stop-color="#020039"/>
</linearGradient>
<linearGradient id="paint2_linear" x1="339.953" y1="34.1417" x2="293.054" y2="99.9524" gradientUnits="userSpaceOnUse">
<stop stop-color="#FF928E"/>
<stop offset="1" stop-color="#FE7062"/>
</linearGradient>
<linearGradient id="paint3_linear" x1="30330.2" y1="8496.29" x2="29956.6" y2="7513.3" gradientUnits="userSpaceOnUse">
<stop stop-color="#FEBBBA"/>
<stop offset="1" stop-color="#FF928E"/>
</linearGradient>
<linearGradient id="paint4_linear" x1="41870.8" y1="6810.8" x2="40431.8" y2="8573.57" gradientUnits="userSpaceOnUse">
<stop stop-color="#FEBBBA"/>
<stop offset="1" stop-color="#FF928E"/>
</linearGradient>
<linearGradient id="paint5_linear" x1="35529.2" y1="2746.17" x2="37591.6" y2="4329.29" gradientUnits="userSpaceOnUse">
<stop stop-color="#090056"/>
<stop offset="1" stop-color="#020039"/>
</linearGradient>
<linearGradient id="paint6_linear" x1="15158.6" y1="1265.63" x2="14784.2" y2="1894.38" gradientUnits="userSpaceOnUse">
<stop stop-color="#FEBBBA"/>
<stop offset="1" stop-color="#FF928E"/>
</linearGradient>
<linearGradient id="paint7_linear" x1="1090.26" y1="28975" x2="14082" y2="19885.3" gradientUnits="userSpaceOnUse">
<stop stop-color="#FEBBBA"/>
<stop offset="1" stop-color="#FF928E"/>
</linearGradient>
<linearGradient id="paint8_linear" x1="34815.4" y1="7811.39" x2="42365.1" y2="15110.7" gradientUnits="userSpaceOnUse">
<stop stop-color="#3E30CB"/>
<stop offset="1" stop-color="#1D129D"/>
</linearGradient>
<linearGradient id="paint9_linear" x1="15747.7" y1="2614.71" x2="16906.9" y2="2614.71" gradientUnits="userSpaceOnUse">
<stop stop-color="#FEBBBA"/>
<stop offset="1" stop-color="#FF928E"/>
</linearGradient>
<linearGradient id="paint10_linear" x1="31195.1" y1="4423.62" x2="35861" y2="4423.62" gradientUnits="userSpaceOnUse">
<stop stop-color="#FEBBBA"/>
<stop offset="1" stop-color="#FF928E"/>
</linearGradient>
<linearGradient id="paint11_linear" x1="18165.7" y1="5127.52" x2="24570.4" y2="8588.63" gradientUnits="userSpaceOnUse">
<stop stop-color="#3E30CB"/>
<stop offset="1" stop-color="#1D129D"/>
</linearGradient>
<linearGradient id="paint12_linear" x1="5075.56" y1="5949.29" x2="5615.15" y2="5767.32" gradientUnits="userSpaceOnUse">
<stop stop-color="#3E30CB"/>
<stop offset="1" stop-color="#1D129D"/>
</linearGradient>
<linearGradient id="paint13_linear" x1="-128381" y1="963.451" x2="-126300" y2="3045.19" gradientUnits="userSpaceOnUse">
<stop stop-color="#FEBBBA"/>
<stop offset="1" stop-color="#FF928E"/>
</linearGradient>
<linearGradient id="paint14_linear" x1="353.207" y1="33.6514" x2="342.772" y2="84.859" gradientUnits="userSpaceOnUse">
<stop stop-color="#090056"/>
<stop offset="1" stop-color="#020039"/>
</linearGradient>
<linearGradient id="paint15_linear" x1="-36239" y1="1106.86" x2="-36743.5" y2="778.916" gradientUnits="userSpaceOnUse">
<stop stop-color="#FEBBBA"/>
<stop offset="1" stop-color="#FF928E"/>
</linearGradient>
<linearGradient id="paint16_linear" x1="103" y1="33" x2="103" y2="59" gradientUnits="userSpaceOnUse">
<stop stop-color="#47078B"/>
<stop offset="1" stop-color="#56BF93"/>
</linearGradient>
</defs>
</svg>
