<svg width="395" height="50" viewBox="0 0 395 50" fill="none" xmlns="http://www.w3.org/2000/svg">
<path d="M56.7188 14H57.375V9.69531H57.418L59.1992 14H59.793L61.5742 9.69531H61.6172V14H62.2734V8.36328H61.457L59.5273 13.0664H59.4648L57.5352 8.36328H56.7188V14ZM65.0555 14.0742C66.2547 14.0742 66.9969 13.2461 66.9969 11.8984V11.8906C66.9969 10.5391 66.2547 9.71484 65.0555 9.71484C63.8562 9.71484 63.1141 10.5391 63.1141 11.8906V11.8984C63.1141 13.2461 63.8562 14.0742 65.0555 14.0742ZM65.0555 13.4727C64.2586 13.4727 63.8094 12.8906 63.8094 11.8984V11.8906C63.8094 10.8945 64.2586 10.3164 65.0555 10.3164C65.8523 10.3164 66.3016 10.8945 66.3016 11.8906V11.8984C66.3016 12.8906 65.8523 13.4727 65.0555 13.4727ZM67.7516 14H68.4312V11.5078C68.4312 10.7695 68.857 10.3164 69.5289 10.3164C70.2008 10.3164 70.5133 10.6797 70.5133 11.4375V14H71.193V11.2734C71.193 10.2734 70.6656 9.71484 69.7203 9.71484C69.0992 9.71484 68.7047 9.97656 68.4937 10.4219H68.4312V9.78906H67.7516V14Z" fill="#23093F"/>
<path d="M115.184 14H115.887V8.99609H117.703V8.36328H113.367V8.99609H115.184V14ZM119.227 14.0742C119.845 14.0742 120.27 13.8203 120.477 13.3711H120.54V14H121.22V9.78906H120.54V12.2812C120.54 13.0195 120.145 13.4727 119.403 13.4727C118.731 13.4727 118.458 13.1094 118.458 12.3516V9.78906H117.778V12.5156C117.778 13.5117 118.27 14.0742 119.227 14.0742ZM123.908 14.0742C124.9 14.0742 125.502 13.5117 125.646 12.9414L125.654 12.9102H124.974L124.959 12.9453C124.845 13.1992 124.494 13.4688 123.923 13.4688C123.173 13.4688 122.693 12.9609 122.673 12.0898H125.705V11.8242C125.705 10.5664 125.009 9.71484 123.865 9.71484C122.72 9.71484 121.978 10.6055 121.978 11.9062V11.9102C121.978 13.2305 122.705 14.0742 123.908 14.0742ZM123.861 10.3203C124.482 10.3203 124.943 10.7148 125.013 11.5469H122.685C122.759 10.7461 123.236 10.3203 123.861 10.3203Z" fill="#23093F"/>
<path d="M166.887 14H167.551L168.848 9.55078H168.895L170.191 14H170.855L172.391 8.36328H171.656L170.535 12.9453H170.488L169.227 8.36328H168.516L167.254 12.9453H167.207L166.086 8.36328H165.352L166.887 14ZM174.403 14.0742C175.395 14.0742 175.997 13.5117 176.141 12.9414L176.149 12.9102H175.47L175.454 12.9453C175.341 13.1992 174.989 13.4688 174.419 13.4688C173.669 13.4688 173.188 12.9609 173.169 12.0898H176.2V11.8242C176.2 10.5664 175.505 9.71484 174.36 9.71484C173.216 9.71484 172.473 10.6055 172.473 11.9062V11.9102C172.473 13.2305 173.2 14.0742 174.403 14.0742ZM174.356 10.3203C174.977 10.3203 175.438 10.7148 175.509 11.5469H173.18C173.255 10.7461 173.731 10.3203 174.356 10.3203ZM178.509 14.0742C179.095 14.0742 179.564 13.7969 179.822 13.3281H179.884V14H180.564V8.11719H179.884V10.4531H179.822C179.591 10.0039 179.087 9.71484 178.509 9.71484C177.439 9.71484 176.744 10.5703 176.744 11.8906V11.8984C176.744 13.2109 177.443 14.0742 178.509 14.0742ZM178.666 13.4727C177.896 13.4727 177.439 12.8789 177.439 11.8984V11.8906C177.439 10.9102 177.896 10.3164 178.666 10.3164C179.431 10.3164 179.9 10.918 179.9 11.8906V11.8984C179.9 12.8711 179.431 13.4727 178.666 13.4727Z" fill="#23093F"/>
<path d="M224.184 14H224.887V8.99609H226.703V8.36328H222.367V8.99609H224.184V14ZM227.442 14H228.122V11.5078C228.122 10.7695 228.548 10.3164 229.22 10.3164C229.891 10.3164 230.204 10.6797 230.204 11.4375V14H230.884V11.2734C230.884 10.2734 230.356 9.71484 229.411 9.71484C228.79 9.71484 228.395 9.97656 228.184 10.4219H228.122V8.11719H227.442V14ZM233.224 14.0742C233.841 14.0742 234.267 13.8203 234.474 13.3711H234.537V14H235.216V9.78906H234.537V12.2812C234.537 13.0195 234.142 13.4727 233.4 13.4727C232.728 13.4727 232.455 13.1094 232.455 12.3516V9.78906H231.775V12.5156C231.775 13.5117 232.267 14.0742 233.224 14.0742ZM236.186 14H236.866V11.3906C236.866 10.7734 237.327 10.3633 237.975 10.3633C238.123 10.3633 238.252 10.3789 238.393 10.4023V9.74219C238.327 9.73047 238.182 9.71484 238.053 9.71484C237.483 9.71484 237.088 9.97266 236.928 10.4141H236.866V9.78906H236.186V14ZM240.3 14.0742C241.257 14.0742 241.987 13.5547 241.987 12.8047V12.7969C241.987 12.1953 241.605 11.8516 240.812 11.6602L240.163 11.5039C239.667 11.3828 239.456 11.2031 239.456 10.918V10.9102C239.456 10.5391 239.823 10.2812 240.323 10.2812C240.831 10.2812 241.159 10.5117 241.249 10.8438H241.917C241.823 10.1562 241.21 9.71484 240.327 9.71484C239.433 9.71484 238.761 10.2422 238.761 10.9414V10.9453C238.761 11.5508 239.116 11.8945 239.905 12.082L240.558 12.2383C241.077 12.3633 241.292 12.5625 241.292 12.8477V12.8555C241.292 13.2383 240.89 13.5078 240.323 13.5078C239.784 13.5078 239.448 13.2773 239.335 12.9258H238.64C238.718 13.6211 239.362 14.0742 240.3 14.0742Z" fill="#23093F"/>
<path d="M287.719 14H288.422V11.5586H290.918V10.9336H288.422V8.99609H291.141V8.36328H287.719V14ZM291.911 14H292.591V11.3906C292.591 10.7734 293.052 10.3633 293.7 10.3633C293.848 10.3633 293.977 10.3789 294.118 10.4023V9.74219C294.052 9.73047 293.907 9.71484 293.778 9.71484C293.208 9.71484 292.813 9.97266 292.653 10.4141H292.591V9.78906H291.911V14ZM295.017 8.97656C295.275 8.97656 295.486 8.76562 295.486 8.50781C295.486 8.25 295.275 8.03906 295.017 8.03906C294.759 8.03906 294.548 8.25 294.548 8.50781C294.548 8.76562 294.759 8.97656 295.017 8.97656ZM294.673 14H295.353V9.78906H294.673V14Z" fill="#23093F"/>
<path d="M334.566 14.1328C335.824 14.1328 336.648 13.4766 336.648 12.4219V12.418C336.648 11.6055 336.184 11.1328 335.008 10.8711L334.383 10.7305C333.617 10.5625 333.309 10.2578 333.309 9.80859V9.80469C333.309 9.21484 333.852 8.88281 334.555 8.87891C335.289 8.875 335.758 9.24219 335.836 9.73828L335.844 9.78906H336.547L336.543 9.73438C336.484 8.89453 335.699 8.23047 334.574 8.23047C333.41 8.23047 332.594 8.89062 332.59 9.82422V9.82812C332.59 10.6445 333.078 11.1641 334.207 11.4141L334.832 11.5508C335.605 11.7227 335.93 12.043 335.93 12.5117V12.5156C335.93 13.0898 335.371 13.4844 334.605 13.4844C333.793 13.4844 333.207 13.1289 333.156 12.5664L333.152 12.5234H332.449L332.453 12.5664C332.535 13.4844 333.332 14.1328 334.566 14.1328ZM338.591 14.0742C339.157 14.0742 339.598 13.8281 339.864 13.3789H339.927V14H340.606V11.1172C340.606 10.2422 340.032 9.71484 339.005 9.71484C338.106 9.71484 337.466 10.1602 337.356 10.8203L337.352 10.8438H338.032L338.036 10.832C338.145 10.5039 338.477 10.3164 338.981 10.3164C339.61 10.3164 339.927 10.5977 339.927 11.1172V11.5L338.72 11.5742C337.739 11.6328 337.184 12.0664 337.184 12.8164V12.8242C337.184 13.5898 337.79 14.0742 338.591 14.0742ZM337.88 12.8086V12.8008C337.88 12.3828 338.161 12.1562 338.802 12.1172L339.927 12.0469V12.4297C339.927 13.0312 339.423 13.4844 338.731 13.4844C338.243 13.4844 337.88 13.2344 337.88 12.8086ZM343.045 14.0312C343.177 14.0312 343.306 14.0156 343.439 13.9922V13.4141C343.314 13.4258 343.248 13.4297 343.127 13.4297C342.689 13.4297 342.517 13.2305 342.517 12.7344V10.3516H343.439V9.78906H342.517V8.69922H341.814V9.78906H341.15V10.3516H341.814V12.9062C341.814 13.7109 342.177 14.0312 343.045 14.0312Z" fill="#23093F"/>
<path d="M379.566 14.1328C380.824 14.1328 381.648 13.4766 381.648 12.4219V12.418C381.648 11.6055 381.184 11.1328 380.008 10.8711L379.383 10.7305C378.617 10.5625 378.309 10.2578 378.309 9.80859V9.80469C378.309 9.21484 378.852 8.88281 379.555 8.87891C380.289 8.875 380.758 9.24219 380.836 9.73828L380.844 9.78906H381.547L381.543 9.73438C381.484 8.89453 380.699 8.23047 379.574 8.23047C378.41 8.23047 377.594 8.89062 377.59 9.82422V9.82812C377.59 10.6445 378.078 11.1641 379.207 11.4141L379.832 11.5508C380.605 11.7227 380.93 12.043 380.93 12.5117V12.5156C380.93 13.0898 380.371 13.4844 379.605 13.4844C378.793 13.4844 378.207 13.1289 378.156 12.5664L378.152 12.5234H377.449L377.453 12.5664C377.535 13.4844 378.332 14.1328 379.566 14.1328ZM383.845 14.0742C384.462 14.0742 384.887 13.8203 385.095 13.3711H385.157V14H385.837V9.78906H385.157V12.2812C385.157 13.0195 384.762 13.4727 384.02 13.4727C383.348 13.4727 383.075 13.1094 383.075 12.3516V9.78906H382.395V12.5156C382.395 13.5117 382.887 14.0742 383.845 14.0742ZM386.806 14H387.486V11.5078C387.486 10.7695 387.912 10.3164 388.584 10.3164C389.255 10.3164 389.568 10.6797 389.568 11.4375V14H390.248V11.2734C390.248 10.2734 389.72 9.71484 388.775 9.71484C388.154 9.71484 387.759 9.97656 387.548 10.4219H387.486V9.78906H386.806V14Z" fill="#23093F"/>
<rect x="0.15" y="0.15" width="34.7" height="49.7" rx="4.85" fill="#3E0080" stroke="#A367E3" stroke-width="0.3"/>
<path d="M12.6133 14.1367C13.9258 14.1367 14.7656 13.4648 14.7656 12.3867V12.3828C14.7656 11.5469 14.2812 11.0703 13.0977 10.8164L12.4844 10.6797C11.7539 10.5234 11.457 10.25 11.457 9.83203V9.82812C11.457 9.29688 11.9453 8.98828 12.6055 8.98828C13.2891 8.98438 13.7305 9.32031 13.8047 9.78125L13.8125 9.83203H14.6602L14.6562 9.77734C14.5938 8.90234 13.8125 8.22656 12.6172 8.22656C11.4219 8.22656 10.5781 8.89844 10.5742 9.87109V9.875C10.5742 10.707 11.0664 11.2383 12.2109 11.4805L12.8281 11.6133C13.5742 11.7734 13.8789 12.0547 13.8789 12.4883V12.4922C13.8789 13.0156 13.3672 13.375 12.6484 13.375C11.8945 13.375 11.3516 13.0469 11.3047 12.5352L11.3008 12.4922H10.4414L10.4453 12.543C10.5234 13.4922 11.3398 14.1367 12.6133 14.1367ZM16.9344 14.082C17.5516 14.082 17.9812 13.8164 18.1844 13.3594H18.2508V14H19.0945V9.75781H18.2508V12.2461C18.2508 12.9297 17.8875 13.3555 17.2078 13.3555C16.5867 13.3555 16.3289 13.0078 16.3289 12.3047V9.75781H15.4812V12.5039C15.4812 13.5078 15.9773 14.082 16.9344 14.082ZM20.0172 14H20.8648V11.5117C20.8648 10.8281 21.2516 10.4023 21.8727 10.4023C22.4937 10.4023 22.7867 10.75 22.7867 11.4531V14H23.6305V11.2539C23.6305 10.2422 23.107 9.67578 22.1578 9.67578C21.5406 9.67578 21.1344 9.94922 20.9273 10.4023H20.8648V9.75781H20.0172V14Z" fill="white"/>
<path d="M11.7949 35H15.3691V20.9082H11.7949L8.21094 23.3496V26.4355L11.6094 24.1406H11.7949V35ZM22.2371 35H25.8113V20.9082H22.2371L18.6531 23.3496V26.4355L22.0516 24.1406H22.2371V35Z" fill="white"/>
<path d="M57.7949 35H61.3691V20.9082H57.7949L54.2109 23.3496V26.4355L57.6094 24.1406H57.7949V35ZM64.7898 35H75.5027V32.207H69.5457V31.9922L71.8309 29.9902C74.4187 27.7441 75.3074 26.3379 75.3074 24.7461V24.6973C75.3074 22.1973 73.2078 20.5273 70.073 20.5273C66.782 20.5273 64.5848 22.4219 64.5848 25.2246V25.2832H67.866V25.2148C67.866 24.0527 68.7156 23.2324 69.9266 23.2324C71.118 23.2324 71.8309 23.9258 71.8309 24.9805V25.0195C71.8309 25.8789 71.284 26.582 69.2137 28.4863L64.7898 32.6074V35Z" fill="#3E0080"/>
<path d="M112.795 35H116.369V20.9082H112.795L109.211 23.3496V26.4355L112.609 24.1406H112.795V35ZM125.298 35.3516C128.843 35.3516 131.098 33.6426 131.098 30.9668V30.9473C131.098 29.082 129.741 27.9102 127.632 27.6953V27.627C129.223 27.3047 130.542 26.1816 130.542 24.4141V24.3945C130.542 22.0898 128.491 20.5566 125.278 20.5566C122.143 20.5566 120.073 22.2559 119.887 24.8926L119.878 25.0293H123.13L123.139 24.9316C123.237 23.8965 124.038 23.2227 125.278 23.2227C126.489 23.2227 127.212 23.8672 127.212 24.8828V24.9023C127.212 25.8984 126.372 26.5527 124.995 26.5527H123.491V28.9844H125.014C126.577 28.9844 127.456 29.6094 127.456 30.7422V30.7617C127.456 31.8066 126.626 32.5391 125.298 32.5391C123.96 32.5391 123.1 31.8457 122.983 30.9082L122.964 30.8008H119.546L119.555 30.9277C119.761 33.5938 121.968 35.3516 125.298 35.3516Z" fill="#3E0080"/>
<path d="M164.795 35H168.369V20.9082H164.795L161.211 23.3496V26.4355L164.609 24.1406H164.795V35ZM178.372 35H181.761V32.5977H183.518V29.8047H181.761V20.9082H176.78C174.954 23.7793 173.167 26.7383 171.448 29.8926V32.5977H178.372V35ZM174.554 29.9316V29.7559C175.686 27.6367 177.024 25.4297 178.284 23.4668H178.46V29.9316H174.554Z" fill="#3E0080"/>
<path d="M224.795 35H228.369V20.9082H224.795L221.211 23.3496V26.4355L224.609 24.1406H224.795V35ZM237.512 35.3809C240.823 35.3809 243.098 33.3398 243.098 30.3027V30.2832C243.098 27.6172 241.204 25.7031 238.587 25.7031C237.2 25.7031 236.116 26.3379 235.579 27.2852H235.393L235.677 23.6621H242.229V20.9082H232.903L232.298 29.3848H235.354C235.511 29.1016 235.735 28.8281 236.018 28.623C236.419 28.3203 236.917 28.1543 237.512 28.1543C238.821 28.1543 239.768 29.0527 239.768 30.3516V30.3711C239.768 31.6797 238.841 32.5977 237.512 32.5977C236.35 32.5977 235.511 31.8945 235.286 31.0254L235.276 30.9668H232.073L232.083 31.123C232.229 33.5254 234.29 35.3809 237.512 35.3809Z" fill="#3E0080"/>
<path d="M284.795 35H288.369V20.9082H284.795L281.211 23.3496V26.4355L284.609 24.1406H284.795V35ZM297.737 35.3809C301.087 35.3809 303.382 33.2129 303.382 30.3027V30.2832C303.382 27.6367 301.595 25.7129 298.802 25.7129C296.829 25.7129 295.735 26.6602 295.227 27.7148H295.022C295.022 27.6074 295.022 27.5 295.032 27.4023C295.139 25.0391 295.95 23.3008 297.718 23.3008C298.704 23.3008 299.407 23.8184 299.7 24.541L299.729 24.6191H303.206L303.186 24.541C302.776 22.2656 300.608 20.5371 297.698 20.5371C293.987 20.5371 291.643 23.3398 291.643 28.0078V28.0273C291.643 32.8027 294.104 35.3809 297.737 35.3809ZM295.481 30.3809V30.3613C295.481 29.1016 296.468 28.2227 297.727 28.2227C299.016 28.2227 299.954 29.1406 299.954 30.4199V30.4395C299.954 31.6699 298.958 32.627 297.718 32.627C296.468 32.627 295.481 31.6602 295.481 30.3809Z" fill="#3E0080"/>
<path d="M330.795 35H334.369V20.9082H330.795L327.211 23.3496V26.4355L330.609 24.1406H330.795V35ZM338.425 35H342.175L347.868 23.6719V20.8984H337.38V23.6621H344.274V23.8379L338.425 35Z" fill="#3E0080"/>
<path d="M375.795 35H379.369V20.9082H375.795L372.211 23.3496V26.4355L375.609 24.1406H375.795V35ZM388.669 35.3516C392.272 35.3516 394.714 33.6621 394.714 31.1816V31.1621C394.714 29.2676 393.259 27.9492 391.286 27.6074V27.5391C392.985 27.1582 394.196 25.9668 394.196 24.4141V24.3945C394.196 22.168 391.94 20.5566 388.669 20.5566C385.397 20.5566 383.151 22.168 383.151 24.3945V24.4141C383.151 25.9668 384.352 27.168 386.061 27.5391V27.6074C384.089 27.9492 382.634 29.2676 382.634 31.1621V31.1816C382.634 33.6621 385.075 35.3516 388.669 35.3516ZM388.669 26.5234C387.507 26.5234 386.686 25.8008 386.686 24.7656V24.7461C386.686 23.7109 387.516 23.0078 388.669 23.0078C389.831 23.0078 390.661 23.7109 390.661 24.7461V24.7656C390.661 25.8008 389.841 26.5234 388.669 26.5234ZM388.669 32.8906C387.331 32.8906 386.393 32.0703 386.393 30.9375V30.918C386.393 29.7949 387.311 28.9746 388.669 28.9746C390.026 28.9746 390.954 29.7949 390.954 30.918V30.9375C390.954 32.0703 390.007 32.8906 388.669 32.8906Z" fill="#3E0080"/>
<circle cx="17.5" cy="42.5" r="2.5" fill="white"/>
</svg>
