<svg width="81" height="88" viewBox="0 0 81 88" fill="none" xmlns="http://www.w3.org/2000/svg">
<g filter="url(#filter0_d)">
<circle cx="40.5" cy="40.5" r="30.5" fill="url(#paint0_linear)" fill-opacity="0.7"/>
<ellipse cx="40.5003" cy="40.5" rx="25.8875" ry="25.8962" fill="url(#paint1_linear)"/>
<ellipse cx="40.4995" cy="40.4425" rx="21.7363" ry="21.8104" fill="#B781E8"/>
<g filter="url(#filter1_i)">
<rect width="29.492" height="29.492" rx="7.65595" transform="matrix(0.707774 -0.706439 0.707774 0.706439 19.5713 40.5022)" fill="#7429D6" fill-opacity="0.3"/>
</g>
<g clip-path="url(#clip0)">
<path d="M38.0417 37.4689C36.297 36.85 35.7144 35.1823 36.5013 33.3661C37.212 31.7325 39.6765 31.6613 40.8448 31.6582V28.8271H40.8173C39.277 28.8271 36.5806 28.8581 34.9305 30.6836C33.0394 32.7504 32.9967 35.6898 33.9544 37.4905C34.9122 39.2913 35.5741 40.3216 35.144 41.3024C34.7139 42.2832 33.076 45.73 34.6072 48.4373C36.0255 50.9435 38.4717 51.157 40.8448 51.1601V37.3977C40.1005 37.3977 39.2404 37.8989 38.0417 37.4689Z" fill="#863BD8"/>
<path d="M46.825 30.6836C45.181 28.8705 42.3931 28.8271 40.8467 28.8271V31.6582C42.024 31.6582 44.5343 31.7294 45.245 33.3661C46.035 35.1823 45.4494 36.8469 43.7199 37.4689C42.5212 37.8989 41.5848 37.3977 40.8528 37.3977V43.7003H40.8833C41.1329 43.69 41.3821 43.731 41.6157 43.8208C41.8494 43.9107 42.0627 44.0475 42.2429 44.223C42.4232 44.3986 42.5666 44.6093 42.6645 44.8424C42.7625 45.0756 42.813 45.3265 42.813 45.5799C42.813 45.8334 42.7625 46.0842 42.6645 46.3174C42.5666 46.5506 42.4232 46.7613 42.2429 46.9368C42.0627 47.1124 41.8494 47.2492 41.6157 47.339C41.3821 47.4288 41.1329 47.4698 40.8833 47.4596H40.8528V51.1724H40.8833C43.2655 51.1724 45.7269 50.9651 47.1514 48.4497C48.6765 45.7424 47.0446 42.2925 46.6145 41.3148C46.1845 40.337 46.825 39.2851 47.7919 37.4905C48.7588 35.696 48.7039 32.7504 46.825 30.6836Z" fill="#A04ADA"/>
<path d="M40.8772 43.7497H40.8436C40.3526 43.7497 39.8817 43.9475 39.5345 44.2998C39.1873 44.652 38.9922 45.1297 38.9922 45.6278C38.9922 46.1259 39.1873 46.6036 39.5345 46.9558C39.8817 47.308 40.3526 47.5059 40.8436 47.5059H40.8772C41.3556 47.4862 41.808 47.2795 42.1396 46.9292C42.4713 46.5788 42.6565 46.1119 42.6565 45.6262C42.6565 45.1405 42.4713 44.6736 42.1396 44.3233C41.808 43.9729 41.3556 43.7663 40.8772 43.7466V43.7497Z" fill="#4F4F4F"/>
<path d="M40.8767 47.6018C40.4918 47.6018 40.1155 47.4861 39.7955 47.2691C39.4755 47.0522 39.2261 46.7439 39.0788 46.3832C38.9315 46.0225 38.893 45.6256 38.9681 45.2427C39.0431 44.8598 39.2285 44.5081 39.5006 44.232C39.7728 43.9559 40.1195 43.7679 40.497 43.6917C40.8745 43.6156 41.2658 43.6547 41.6214 43.8041C41.977 43.9535 42.2809 44.2065 42.4947 44.5311C42.7085 44.8557 42.8227 45.2374 42.8227 45.6278C42.8227 46.1514 42.6177 46.6535 42.2527 47.0237C41.8878 47.3938 41.3928 47.6018 40.8767 47.6018ZM40.8767 43.8704C40.534 43.8704 40.1991 43.9735 39.9141 44.1666C39.6292 44.3597 39.4072 44.6342 39.2761 44.9553C39.1449 45.2764 39.1106 45.6298 39.1775 45.9707C39.2443 46.3116 39.4093 46.6247 39.6516 46.8705C39.8939 47.1163 40.2026 47.2837 40.5387 47.3515C40.8747 47.4193 41.2231 47.3845 41.5397 47.2515C41.8562 47.1184 42.1268 46.8932 42.3172 46.6042C42.5076 46.3152 42.6092 45.9754 42.6092 45.6278C42.6084 45.162 42.4256 44.7154 42.1008 44.386C41.7761 44.0566 41.3359 43.8712 40.8767 43.8704Z" fill="white"/>
</g>
</g>
<path d="M24.5125 85H25.825V81.2559H30.1668V85H31.4734V76.5449H30.1668V80.1191H25.825V76.5449H24.5125V85ZM35.8434 85.123C37.7066 85.123 38.8492 83.875 38.8492 81.8242V81.8125C38.8492 79.7617 37.7008 78.5137 35.8434 78.5137C33.9801 78.5137 32.8316 79.7676 32.8316 81.8125V81.8242C32.8316 83.875 33.9742 85.123 35.8434 85.123ZM35.8434 84.0625C34.7477 84.0625 34.1324 83.2363 34.1324 81.8242V81.8125C34.1324 80.4004 34.7477 79.5742 35.8434 79.5742C36.9332 79.5742 37.5543 80.4004 37.5543 81.8125V81.8242C37.5543 83.2305 36.9332 84.0625 35.8434 84.0625ZM40.0668 85H41.3383V81.0918C41.3383 80.2598 41.9066 79.6035 42.6742 79.6035C43.4242 79.6035 43.8988 80.0605 43.8988 80.7871V85H45.1645V80.9746C45.1645 80.207 45.6977 79.6035 46.5063 79.6035C47.3383 79.6035 47.7367 80.0371 47.7367 80.916V85H49.0023V80.6113C49.0023 79.2871 48.2523 78.5137 46.9691 78.5137C46.0844 78.5137 45.352 78.9648 45.0297 79.6504H44.9301C44.6488 78.9648 44.0336 78.5137 43.1664 78.5137C42.3344 78.5137 41.7133 78.918 41.432 79.6152H41.3383V78.6367H40.0668V85ZM53.1496 85.123C54.7785 85.123 55.6574 84.1855 55.8684 83.3477L55.8801 83.2949L54.6555 83.3008L54.632 83.3477C54.4797 83.6758 53.9934 84.0801 53.1789 84.0801C52.1301 84.0801 51.4621 83.3711 51.4387 82.1523H55.9504V81.707C55.9504 79.7969 54.8605 78.5137 53.0852 78.5137C51.3098 78.5137 50.1613 79.8438 50.1613 81.8301V81.8359C50.1613 83.8516 51.2863 85.123 53.1496 85.123ZM53.091 79.5566C53.9523 79.5566 54.591 80.1074 54.6906 81.2441H51.4563C51.5676 80.1484 52.2238 79.5566 53.091 79.5566Z" fill="white"/>
<defs>
<filter id="filter0_d" x="0" y="0" width="81" height="81" filterUnits="userSpaceOnUse" color-interpolation-filters="sRGB">
<feFlood flood-opacity="0" result="BackgroundImageFix"/>
<feColorMatrix in="SourceAlpha" type="matrix" values="0 0 0 0 0 0 0 0 0 0 0 0 0 0 0 0 0 0 127 0"/>
<feOffset/>
<feGaussianBlur stdDeviation="5"/>
<feColorMatrix type="matrix" values="0 0 0 0 0 0 0 0 0 0 0 0 0 0 0 0 0 0 0.1 0"/>
<feBlend mode="normal" in2="BackgroundImageFix" result="effect1_dropShadow"/>
<feBlend mode="normal" in="SourceGraphic" in2="effect1_dropShadow" result="shape"/>
</filter>
<filter id="filter1_i" x="22.7456" y="22.8362" width="35.399" height="35.9447" filterUnits="userSpaceOnUse" color-interpolation-filters="sRGB">
<feFlood flood-opacity="0" result="BackgroundImageFix"/>
<feBlend mode="normal" in="SourceGraphic" in2="BackgroundImageFix" result="shape"/>
<feColorMatrix in="SourceAlpha" type="matrix" values="0 0 0 0 0 0 0 0 0 0 0 0 0 0 0 0 0 0 127 0" result="hardAlpha"/>
<feOffset dy="0.612476"/>
<feGaussianBlur stdDeviation="0.306238"/>
<feComposite in2="hardAlpha" operator="arithmetic" k2="-1" k3="1"/>
<feColorMatrix type="matrix" values="0 0 0 0 0 0 0 0 0 0 0 0 0 0 0 0 0 0 0.25 0"/>
<feBlend mode="normal" in2="shape" result="effect1_innerShadow"/>
</filter>
<linearGradient id="paint0_linear" x1="40.5" y1="10" x2="40.5" y2="71" gradientUnits="userSpaceOnUse">
<stop stop-color="#AD4CD6"/>
<stop offset="1" stop-color="#6A24D6"/>
</linearGradient>
<linearGradient id="paint1_linear" x1="40.5003" y1="14.6038" x2="40.5003" y2="66.3962" gradientUnits="userSpaceOnUse">
<stop stop-color="#AB53D9"/>
<stop offset="0.510428" stop-color="#9743DA"/>
<stop offset="1" stop-color="#8333DB"/>
</linearGradient>
<clipPath id="clip0">
<rect width="15.0617" height="22.3329" fill="white" transform="translate(33.3452 28.8271)"/>
</clipPath>
</defs>
</svg>
