<svg width="414" height="96" viewBox="0 0 414 96" fill="none" xmlns="http://www.w3.org/2000/svg">
<path d="M63.7777 41.9567C265.777 131.323 311.777 -59.0432 477.778 19.4568V89.4567H63.7777C63.7777 89.4567 -138.222 -47.4096 63.7777 41.9567Z" fill="#882DE7" fill-opacity="0.1"/>
<g filter="url(#filter0_d)">
<path d="M89.7776 48.4585C291.777 137.825 411 -79.4983 503.778 48.5018V95.9584H89.7776C89.7776 95.9584 -112.222 -40.9079 89.7776 48.4585Z" fill="#9531E9" fill-opacity="0.25"/>
</g>
<g filter="url(#filter1_d)">
<path d="M443.381 48.4778C219.239 137.886 86.9477 -79.5387 -16 48.5212V96H443.381C443.381 96 667.523 -40.9303 443.381 48.4778Z" fill="url(#paint0_linear)" fill-opacity="0.2"/>
</g>
<defs>
<filter id="filter0_d" x="-4" y="7" width="511.778" height="96.9584" filterUnits="userSpaceOnUse" color-interpolation-filters="sRGB">
<feFlood flood-opacity="0" result="BackgroundImageFix"/>
<feColorMatrix in="SourceAlpha" type="matrix" values="0 0 0 0 0 0 0 0 0 0 0 0 0 0 0 0 0 0 127 0"/>
<feOffset dy="4"/>
<feGaussianBlur stdDeviation="2"/>
<feColorMatrix type="matrix" values="0 0 0 0 0 0 0 0 0 0 0 0 0 0 0 0 0 0 0.25 0"/>
<feBlend mode="normal" in2="BackgroundImageFix" result="effect1_dropShadow"/>
<feBlend mode="normal" in="SourceGraphic" in2="effect1_dropShadow" result="shape"/>
</filter>
<filter id="filter1_d" x="-20" y="7" width="567" height="97" filterUnits="userSpaceOnUse" color-interpolation-filters="sRGB">
<feFlood flood-opacity="0" result="BackgroundImageFix"/>
<feColorMatrix in="SourceAlpha" type="matrix" values="0 0 0 0 0 0 0 0 0 0 0 0 0 0 0 0 0 0 127 0"/>
<feOffset dy="4"/>
<feGaussianBlur stdDeviation="2"/>
<feColorMatrix type="matrix" values="0 0 0 0 0 0 0 0 0 0 0 0 0 0 0 0 0 0 0.25 0"/>
<feBlend mode="normal" in2="BackgroundImageFix" result="effect1_dropShadow"/>
<feBlend mode="normal" in="SourceGraphic" in2="effect1_dropShadow" result="shape"/>
</filter>
<linearGradient id="paint0_linear" x1="263.5" y1="7" x2="263.5" y2="96" gradientUnits="userSpaceOnUse">
<stop stop-color="#9531E9"/>
<stop offset="1" stop-color="#C19FDD"/>
</linearGradient>
</defs>
</svg>
