<svg width="74" height="58" viewBox="0 0 74 58" fill="none" xmlns="http://www.w3.org/2000/svg">
<path d="M1.31055 55H2.50586V48.7949H2.59961L5.07812 55H6.05078L8.53516 48.7949H8.62305V55H9.81836V46.5449H8.30664L5.61133 53.2891H5.51758L2.82227 46.5449H1.31055V55ZM12.1141 57.2383C13.4031 57.2383 14.0477 56.7637 14.5867 55.2461L16.9539 48.6367H15.618L14.0301 53.7227H13.9187L12.325 48.6367H10.9539L13.2625 55.0059L13.1687 55.334C12.9812 55.9785 12.6238 56.2305 12.032 56.2305C11.8855 56.2305 11.7273 56.2246 11.6043 56.207V57.209C11.7684 57.2266 11.9559 57.2383 12.1141 57.2383ZM21.0707 55H22.3832V52.1113H24.3637C26.0219 52.1113 27.1703 50.9805 27.1703 49.3281V49.3164C27.1703 47.6582 26.0219 46.5449 24.3637 46.5449H21.0707V55ZM24.0355 47.6523C25.1723 47.6523 25.8344 48.2676 25.8344 49.3223V49.334C25.8344 50.3945 25.1723 51.0098 24.0355 51.0098H22.3832V47.6523H24.0355ZM28.4172 55H29.6887V51.1973C29.6887 50.2773 30.3508 49.6797 31.3234 49.6797C31.5637 49.6797 31.7805 49.709 32.009 49.7559V48.584C31.8801 48.5547 31.6574 48.5254 31.4523 48.5254C30.6027 48.5254 30.0109 48.9238 29.7824 49.5977H29.6887V48.6367H28.4172V55ZM35.4531 55.123C37.3164 55.123 38.459 53.875 38.459 51.8242V51.8125C38.459 49.7617 37.3105 48.5137 35.4531 48.5137C33.5898 48.5137 32.4414 49.7676 32.4414 51.8125V51.8242C32.4414 53.875 33.584 55.123 35.4531 55.123ZM35.4531 54.0625C34.3574 54.0625 33.7422 53.2363 33.7422 51.8242V51.8125C33.7422 50.4004 34.3574 49.5742 35.4531 49.5742C36.543 49.5742 37.1641 50.4004 37.1641 51.8125V51.8242C37.1641 53.2305 36.543 54.0625 35.4531 54.0625ZM42.366 57.2441C44.1707 57.2441 45.3133 56.3184 45.3133 54.8711V48.6367H44.0477V49.6797H43.9715C43.6023 48.9648 42.9109 48.5254 42.0203 48.5254C40.368 48.5254 39.3543 49.8086 39.3543 51.625V51.6367C39.3543 53.4297 40.3621 54.6895 41.9969 54.6895C42.8699 54.6895 43.573 54.3027 43.9598 53.6113H44.0535V54.8652C44.0535 55.7324 43.4324 56.2246 42.3836 56.2246C41.5223 56.2246 41.0066 55.9141 40.9012 55.4746L40.8953 55.4629H39.6121L39.6004 55.4746C39.7527 56.5352 40.7488 57.2441 42.366 57.2441ZM42.3484 53.6406C41.2645 53.6406 40.6551 52.8145 40.6551 51.6309V51.6191C40.6551 50.4355 41.2645 49.6035 42.3484 49.6035C43.4207 49.6035 44.077 50.4355 44.077 51.6191V51.6309C44.077 52.8203 43.4266 53.6406 42.3484 53.6406ZM46.8414 55H48.1129V51.1973C48.1129 50.2773 48.775 49.6797 49.7477 49.6797C49.9879 49.6797 50.2047 49.709 50.4332 49.7559V48.584C50.3043 48.5547 50.0816 48.5254 49.8766 48.5254C49.027 48.5254 48.4352 48.9238 48.2066 49.5977H48.1129V48.6367H46.8414V55ZM53.0453 55.1055C53.8891 55.1055 54.557 54.7422 54.932 54.0977H55.0316V55H56.2914V50.6465C56.2914 49.3105 55.3891 48.5137 53.7895 48.5137C52.3422 48.5137 51.3402 49.2109 51.1879 50.2539L51.182 50.2949H52.4066L52.4125 50.2715C52.5648 49.8203 53.0277 49.5625 53.7309 49.5625C54.5922 49.5625 55.0316 49.9492 55.0316 50.6465V51.209L53.309 51.3086C51.7914 51.4023 50.9359 52.0645 50.9359 53.2012V53.2129C50.9359 54.3672 51.8324 55.1055 53.0453 55.1055ZM52.2016 53.1602V53.1484C52.2016 52.5742 52.6 52.2578 53.4789 52.2051L55.0316 52.1055V52.6504C55.0316 53.4707 54.3344 54.0918 53.3852 54.0918C52.6996 54.0918 52.2016 53.7461 52.2016 53.1602ZM57.7844 55H59.0559V51.0918C59.0559 50.2598 59.6242 49.6035 60.3918 49.6035C61.1418 49.6035 61.6164 50.0605 61.6164 50.7871V55H62.882V50.9746C62.882 50.207 63.4152 49.6035 64.2238 49.6035C65.0559 49.6035 65.4543 50.0371 65.4543 50.916V55H66.7199V50.6113C66.7199 49.2871 65.9699 48.5137 64.6867 48.5137C63.802 48.5137 63.0695 48.9648 62.7473 49.6504H62.6477C62.3664 48.9648 61.7512 48.5137 60.884 48.5137C60.052 48.5137 59.4309 48.918 59.1496 49.6152H59.0559V48.6367H57.7844V55ZM70.5098 55.123C72.0215 55.123 73.1465 54.3203 73.1465 53.1426V53.1309C73.1465 52.2109 72.5605 51.6895 71.3359 51.4023L70.3281 51.1738C69.6133 51.0039 69.3203 50.7578 69.3203 50.3594V50.3477C69.3203 49.8379 69.8242 49.4922 70.5215 49.4922C71.2363 49.4922 71.6875 49.8262 71.8105 50.2715V50.2832H73.0234V50.2773C72.9121 49.2402 71.9805 48.5137 70.5273 48.5137C69.0859 48.5137 68.0547 49.3105 68.0547 50.418V50.4238C68.0547 51.3555 68.6113 51.9004 69.8125 52.1758L70.8262 52.4102C71.5645 52.5801 71.8633 52.8496 71.8633 53.248V53.2598C71.8633 53.7812 71.3184 54.1387 70.5332 54.1387C69.7773 54.1387 69.3145 53.8164 69.1562 53.3359L69.1504 53.3301H67.8789V53.3359C68.002 54.4023 68.9746 55.123 70.5098 55.123Z" fill="white"/>
<path d="M28 10.5H23.5C22.6716 10.5 22 11.1716 22 12V36C22 36.8284 22.6716 37.5 23.5 37.5H28C28.8284 37.5 29.5 36.8284 29.5 36V12C29.5 11.1716 28.8284 10.5 28 10.5Z" stroke="url(#paint0_linear)" stroke-width="3" stroke-linecap="round" stroke-linejoin="round"/>
<path d="M50.5 10.5H46C45.1716 10.5 44.5 11.1716 44.5 12V36C44.5 36.8284 45.1716 37.5 46 37.5H50.5C51.3284 37.5 52 36.8284 52 36V12C52 11.1716 51.3284 10.5 50.5 10.5Z" stroke="url(#paint1_linear)" stroke-width="3" stroke-linecap="round" stroke-linejoin="round"/>
<path d="M52 15H56.5C56.8978 15 57.2794 15.158 57.5607 15.4393C57.842 15.7206 58 16.1022 58 16.5V31.5C58 31.8978 57.842 32.2794 57.5607 32.5607C57.2794 32.842 56.8978 33 56.5 33H52" stroke="url(#paint2_linear)" stroke-width="3" stroke-linecap="round" stroke-linejoin="round"/>
<path d="M22 33H17.5C17.1022 33 16.7206 32.842 16.4393 32.5607C16.158 32.2794 16 31.8978 16 31.5V16.5C16 16.1022 16.158 15.7206 16.4393 15.4393C16.7206 15.158 17.1022 15 17.5 15H22" stroke="url(#paint3_linear)" stroke-width="3" stroke-linecap="round" stroke-linejoin="round"/>
<path d="M29.5 24H44.5" stroke="url(#paint4_linear)" stroke-width="3" stroke-linecap="round" stroke-linejoin="round"/>
<defs>
<linearGradient id="paint0_linear" x1="25.75" y1="10.5" x2="25.75" y2="37.5" gradientUnits="userSpaceOnUse">
<stop stop-color="#9142C6"/>
<stop offset="1" stop-color="#E1D0F1"/>
</linearGradient>
<linearGradient id="paint1_linear" x1="48.25" y1="10.5" x2="48.25" y2="37.5" gradientUnits="userSpaceOnUse">
<stop stop-color="#9142C6"/>
<stop offset="1" stop-color="#E1D0F1"/>
</linearGradient>
<linearGradient id="paint2_linear" x1="55" y1="15" x2="55" y2="33" gradientUnits="userSpaceOnUse">
<stop stop-color="#9142C6"/>
<stop offset="1" stop-color="#E1D0F1"/>
</linearGradient>
<linearGradient id="paint3_linear" x1="19" y1="15" x2="19" y2="33" gradientUnits="userSpaceOnUse">
<stop stop-color="#9142C6"/>
<stop offset="1" stop-color="#E1D0F1"/>
</linearGradient>
<linearGradient id="paint4_linear" x1="37" y1="24" x2="37" y2="25" gradientUnits="userSpaceOnUse">
<stop stop-color="#9142C6"/>
<stop offset="1" stop-color="#E1D0F1"/>
</linearGradient>
</defs>
</svg>
