<svg width="93" height="177" viewBox="0 0 93 177" fill="none" xmlns="http://www.w3.org/2000/svg">
<g id="Group 178" filter="url(#filter0_d)">
<path id="Vector" d="M23.5834 33.2661C23.638 32.1296 23.5879 30.9904 23.4337 29.863C22.1124 33.2265 20.2974 34.9349 19.007 35.7745C18.7073 35.8676 18.3924 35.9021 18.0797 35.876C17.3813 35.707 16.6973 35.4832 16.0341 35.2068C17.9421 33.7358 19.7933 31.4063 19.9068 31.2618C18.1864 32.8411 16.108 33.9233 14.668 34.5513C11.1187 32.6244 8.68601 29.4725 7.36815 27.3959C16.4745 24.521 19.155 18.8126 19.155 18.8126C11.0602 25.2746 7.47654 25.586 6.22061 25.3641C6.20512 25.3314 6.19824 25.3142 6.19824 25.3142C18.3722 22.0883 21.746 7.85845 25.8544 2.87258C29.9629 -2.11329 34.9487 1.69235 34.9487 1.69235C34.9487 1.69235 34.4205 19.3442 23.5834 33.2661Z" fill="#393B3A"/>
<path id="Vector_2" d="M44.803 29.1009C44.803 29.1009 52.7618 33.3298 52.1029 37.1147C51.0465 43.1553 46.6164 56.315 46.6164 56.315L59.5593 49.865L61.8733 52.6573C61.8733 52.6573 46.1536 68.3513 40.6171 64.7469C35.0807 61.1426 44.803 29.1009 44.803 29.1009Z" fill="#C0783D"/>
<path id="Vector_3" d="M46.7458 6.02616C46.7458 6.02616 38.0197 -4.4686 33.3986 2.24116C33.3986 2.24116 29.9577 3.67258 28.7034 9.53932C27.432 15.5265 31.4132 20.0754 33.4708 18.9519C34.7921 18.2311 35.7917 20.5399 35.7917 20.5399L46.7458 6.02616Z" fill="#393B3A"/>
<path id="Vector_4" d="M43.9932 29.0303C44.0259 29.0458 40.7846 30.7301 38.3467 30.0626C36.0534 29.4364 33.1458 28.6673 33.1768 28.6604C34.1488 28.4678 35.8366 24.9288 35.8159 19.198L36.2564 19.284L43.6388 20.7464C43.6388 20.7464 43.4668 23.0707 43.4668 25.2591C43.4771 27.0914 43.5786 28.8342 43.9932 29.0303Z" fill="#CE8E55"/>
<path id="Vector_5" d="M43.6491 20.7412C43.6491 20.7412 43.477 23.0655 43.477 25.2539C39.3479 25.137 37.1612 21.3674 36.2666 19.2788L43.6491 20.7412Z" fill="#C0783D"/>
<path id="Vector_6" d="M35.4993 18.4753C35.4993 18.4753 33.3349 15.0534 32.8154 12.1286C32.4437 10.04 33.5035 2.29793 41.2869 3.41278C42.8535 3.63084 44.3514 4.19695 45.6706 5.06958C47.3601 6.21196 49.7997 8.68253 47.071 15.4301L46.3639 17.7115L35.4993 18.4753Z" fill="#393B3A"/>
<path id="Vector_7" d="M45.0252 22.8143C45.0252 22.8143 35.2496 22.9743 35.2427 16.8857C35.2358 10.797 33.9696 6.71605 40.2114 6.35648C46.4532 5.9969 47.6678 8.3178 48.165 10.3497C48.6622 12.3815 47.568 22.6148 45.0252 22.8143Z" fill="#CE8E55"/>
<path id="Vector_8" d="M24.036 74.6499C27.4631 66.9629 29.1027 64.7882 29.1612 62.3693C29.1684 61.4099 29.111 60.4512 28.9891 59.4996C28.7678 57.6675 28.4188 55.8532 27.9448 54.0698C27.9448 54.0543 27.9345 54.032 27.9276 54.0061C27.8846 53.8341 27.7934 53.4367 27.6782 52.8724C26.7422 48.2375 24.2459 32.0325 33.2111 28.6381C33.3023 28.6277 33.3918 28.6209 33.4778 28.6157C37.3884 28.349 44.8466 29.1043 44.8466 29.1043C45.9085 30.6333 46.8727 32.2279 47.7335 33.8786C49.4109 37.0614 51.2484 41.4159 51.5185 45.6069C51.7972 49.8839 50.3503 52.8586 49.7275 57.1683C49.1907 60.8725 49.1356 65.4609 51.4325 72.8055C56.4992 89.0346 22.1435 78.8977 24.036 74.6499Z" fill="#CE8E55"/>
<path id="Vector_9" d="M47.8742 6.9638C46.3654 5.13496 45.2247 5.53238 44.5847 6.08121C44.3834 5.77664 44.1143 5.52283 43.7984 5.33969C38.1519 3.06697 35.7949 7.49026 35.7949 7.49026C35.1411 11.8602 31.9893 14.3617 31.9893 14.3617C31.9893 14.3617 33.7716 15.4628 37.8801 14.4065C39.1326 14.0848 40.2526 13.2022 41.204 12.1148C40.1207 13.8821 38.8016 15.4935 37.2831 16.9046C42.1898 14.637 44.1649 7.81198 44.3559 7.09799C44.9529 7.63305 46.1297 8.7978 46.4875 9.93846C46.9761 11.4869 47.1946 14.6818 48.1254 14.5734C48.1219 14.5665 50.14 9.71136 47.8742 6.9638Z" fill="#393B3A"/>
<path id="Vector_10" d="M49.7188 57.1683C49.7188 57.1683 36.707 60.8948 28.9787 59.4995C28.7574 57.6675 28.4084 55.8532 27.9344 54.0698C27.9344 54.0543 27.9241 54.0319 27.9172 54.0061C27.8742 53.8341 27.783 53.4367 27.6677 52.8724C29.3884 51.9029 31.1854 51.0755 33.0407 50.3983L49.7188 57.1683Z" fill="#C0783D"/>
<path id="Vector_11" d="M35.5356 29.8131C35.5356 29.8131 43.3585 33.4261 47.1728 33.5293C50.987 33.6325 38.6153 36.707 35.5356 29.8131Z" fill="#C0783D"/>
<path id="Vector_12" d="M51.4307 48.6487C51.1089 51.4754 50.1833 53.9494 49.7102 57.1684C40.7639 58.3417 31.0003 55.1829 27.9258 54.0715C27.9258 54.0561 27.9155 54.0337 27.9086 54.0079C27.4992 52.3648 23.1378 32.4454 33.1922 28.6398C34.7193 29.1485 36.0994 30.0219 37.2129 31.1844C40.0654 34.085 44.8637 34.1521 47.7076 33.8803C48.8706 36.0876 50.1163 38.861 50.8526 41.7479C51.1863 43.012 51.4011 44.3046 51.4943 45.6086C51.565 46.6218 51.5437 47.6393 51.4307 48.6487Z" fill="#FFE94D"/>
<path id="Vector_13" d="M43.9929 29.0303C43.9929 29.0303 46.2846 28.934 47.0175 29.4226C47.7504 29.9112 51.4683 34.2622 51.6627 34.8489C51.6627 34.8489 47.0674 34.4584 46.6269 34.7526C46.6338 34.7526 48.3095 33.7736 43.9929 29.0303Z" fill="#F9CF00"/>
<path id="Vector_14" d="M64.3943 164.521L60.9361 163.47C60.9361 163.47 44.3527 144.373 48.0775 124.307C48.1282 124.098 48.1082 123.878 48.0207 123.681C47.3033 122.262 44.2185 116.077 41.0133 108.402C39.4821 104.727 37.9165 100.71 36.5814 96.7026C35.79 94.3387 35.0743 91.9817 34.4876 89.7056C34.4876 89.6832 34.4773 89.6677 34.4756 89.654C34.4751 89.6459 34.4751 89.6379 34.4756 89.6299C33.0356 84.0091 32.3818 78.8874 33.285 75.3845L51.0298 71.1075C51.0298 71.1075 52.9739 78.3334 54.8647 87.684C57.5107 100.778 60.3701 118.029 58.8372 125.379C57.4694 131.901 64.3943 164.521 64.3943 164.521Z" fill="#CE8E55"/>
<path id="Vector_15" d="M57.803 50.7253C57.803 50.7253 59.3514 52.4302 59.8211 54.6496C59.8211 54.6496 61.8374 52.6866 61.9561 52.6418C62.0749 52.5971 63.8486 51.6096 64.616 50.4689C65.3833 49.3283 65.8994 48.3906 64.8723 46.6839C63.8452 44.9772 60.9153 44.4835 60.5712 44.8258C60.2271 45.1682 59.3049 49.4212 59.3049 49.4212C59.3049 49.4212 59.1931 49.7429 57.803 50.7253Z" fill="#FAFFFD"/>
<path id="Vector_16" d="M41.0095 108.397C39.4783 104.722 37.9127 100.704 36.5776 96.6975C35.7862 94.3336 35.0705 91.9765 34.4838 89.7004C34.4838 89.678 34.4735 89.6625 34.4718 89.6488C34.4713 89.6408 34.4713 89.6327 34.4718 89.6247L35.8275 89.475L49.5739 87.9541C49.5739 87.9541 49.6616 88.9864 49.7803 90.7069C50.0625 94.8944 45.6444 102.072 41.0095 108.397Z" fill="#C0783D"/>
<path id="Vector_17" d="M48.8108 75.9213L40.754 93.814L40.6318 93.7521C36.064 106.311 29.5125 122.516 24.3735 127.989C19.8161 132.846 8.81375 164.392 8.81375 164.392L5.85458 163.341C5.85458 163.341 2.12636 136.643 15.7627 121.469C15.9143 121.317 16.0116 121.119 16.0397 120.906V120.897C16.1566 119.433 16.6693 113.443 17.7463 106.055C18.0079 104.262 18.3021 102.389 18.6324 100.476C19.1124 97.704 19.6647 94.8514 20.3029 92.0557L20.3339 91.9198C20.3614 91.2419 20.4733 90.0978 20.6333 88.6234C20.8965 86.049 21.324 83.4941 21.9133 80.9743C21.9357 80.8865 21.9563 80.8022 21.9787 80.7076C23.589 74.0735 25.8892 70.729 25.8892 70.729C25.8892 70.729 38.144 74.1234 42.3936 74.4176C46.6431 74.7118 48.8108 75.9213 48.8108 75.9213Z" fill="#CE8E55"/>
<path id="Vector_18" d="M54.8539 87.6857C54.2363 88.6578 52.2354 89.7503 49.7734 90.7206L49.7425 90.7327C46.8882 91.8527 43.4215 92.7972 40.7789 93.186C38.5423 93.5129 36.8907 93.4355 36.7083 92.7181C35.2683 87.0973 32.3711 78.8891 33.2674 75.3862L51.5438 72.9036C51.5438 72.9036 52.9632 78.3402 54.8539 87.6857Z" fill="#018061"/>
<path id="Vector_19" d="M38.3156 93.377C37.7806 93.5112 28.1065 104.441 17.739 106.062C18.0005 104.269 18.2947 102.396 18.625 100.482C19.1051 97.7108 19.6573 94.8583 20.2956 92.0626L20.3266 91.9267C20.3541 91.2488 20.4659 90.1047 20.6259 88.6303C24.9271 84.4307 29.3676 80.7627 29.3676 80.7627L38.3156 93.377Z" fill="#C0783D"/>
<path id="Vector_20" d="M5.66658 168.55H7.73113C8.41931 168.44 8.93544 168.243 9.63738 168.15C10.7109 168.009 11.2047 168.449 11.3028 168.55L11.3234 168.569H20.0651C20.2853 168.256 20.0737 167.537 19.8672 166.993C19.7979 166.814 19.6879 166.653 19.5458 166.523C19.4037 166.393 19.2334 166.298 19.0483 166.245C18.1209 165.977 16.2955 165.729 14.6198 164.222C13.6787 163.372 10.0727 161.094 10.0727 161.094H10.0537C9.9746 161.094 9.59781 161.211 7.95822 162.596C7.11004 163.31 5.66486 161.588 5.66486 161.588C5.46632 161.768 5.30552 161.986 5.19173 162.23C4.9872 162.645 4.92089 163.115 5.00248 163.571C5.13324 164.359 4.71345 165.824 4.37624 166.815C4.17323 167.413 4.00118 167.847 4.00118 167.847C4.00118 167.847 3.89624 168.329 5.66658 168.55Z" fill="#018061"/>
<path id="Vector_21" d="M5.18481 162.224C5.67514 162.568 6.71258 163.257 7.40076 163.343C8.3298 163.465 10.0657 161.094 10.0657 161.094H10.0468C9.96768 161.094 9.5909 161.211 7.95131 162.596C7.10312 163.31 5.65794 161.588 5.65794 161.588C5.45995 161.767 5.29918 161.983 5.18481 162.224Z" fill="#006C5C"/>
<path id="Vector_22" d="M5.66658 168.55H7.73113C8.41931 168.44 8.93544 168.243 9.63738 168.15C10.7109 168.009 11.2047 168.449 11.3028 168.55L11.3234 168.569H20.0651C20.2853 168.256 20.0737 167.537 19.8672 166.993C19.6022 166.758 19.5231 168.026 19.3803 168.22C19.2375 168.415 12.249 168.292 11.8447 168C11.4404 167.707 10.2309 167.193 8.5449 167.596C7.07563 167.94 4.91302 167.047 4.37624 166.809C4.17323 167.408 4.00118 167.842 4.00118 167.842C4.00118 167.842 3.89624 168.329 5.66658 168.55Z" fill="#006C5C"/>
<path id="Vector_23" d="M59.4942 168.55H61.5588C62.2469 168.44 62.7631 168.243 63.465 168.15C64.5386 168.009 65.0324 168.449 65.1304 168.55L65.1493 168.569H73.8927C74.1129 168.256 73.8927 167.537 73.6948 166.993C73.6256 166.814 73.5155 166.653 73.3734 166.523C73.2313 166.393 73.061 166.298 72.8759 166.245C71.9486 165.977 70.1232 165.729 68.4475 164.222C67.5064 163.372 63.9003 161.094 63.9003 161.094H63.8814C63.8022 161.094 63.4254 161.211 61.7859 162.596C60.9377 163.31 59.4925 161.588 59.4925 161.588C59.294 161.768 59.1332 161.986 59.0194 162.23C58.8148 162.645 58.7485 163.115 58.8301 163.571C58.9609 164.359 58.5411 165.824 58.2039 166.815C58.0009 167.413 57.8288 167.847 57.8288 167.847C57.8288 167.847 57.7239 168.329 59.4942 168.55Z" fill="#018061"/>
<path id="Vector_24" d="M59.0125 162.224C59.5028 162.568 60.5402 163.257 61.2284 163.343C62.1574 163.465 63.8934 161.094 63.8934 161.094H63.8745C63.7953 161.094 63.4185 161.211 61.7789 162.596C60.9308 163.31 59.4856 161.588 59.4856 161.588C59.2876 161.767 59.1268 161.983 59.0125 162.224Z" fill="#006C5C"/>
<path id="Vector_25" d="M59.4942 168.55H61.5588C62.2469 168.44 62.7631 168.243 63.465 168.15C64.5386 168.009 65.0324 168.449 65.1304 168.55L65.1493 168.569H73.8927C74.1129 168.256 73.8927 167.537 73.6948 166.993C73.4299 166.758 73.3507 168.026 73.2079 168.22C73.0651 168.415 66.075 168.292 65.6724 168C65.2698 167.707 64.0586 167.193 62.3725 167.596C60.9033 167.94 58.7407 167.047 58.2039 166.809C58.0009 167.408 57.8288 167.842 57.8288 167.842C57.8288 167.842 57.7239 168.329 59.4942 168.55Z" fill="#006C5C"/>
<path id="Vector_26" d="M51.4302 48.6486C36.0115 47.9054 29.4841 41.7445 29.4841 41.7445H50.8745C51.2082 43.0086 51.423 44.3011 51.5162 45.6052C51.5797 46.6202 51.5509 47.6388 51.4302 48.6486Z" fill="#F9CF00"/>
<path id="Vector_27" d="M80.372 39.446C80.372 39.446 67.9762 43.5286 58.9558 43.7471C51.3669 43.9329 38.2502 44.8757 31.2617 42.5565C29.9438 42.1195 29.0251 41.5501 28.6328 40.8154C26.2139 36.1943 30.1985 31.4166 30.1985 31.4166C30.1985 31.4166 32.466 31.6471 35.8467 31.9723C44.4008 32.793 55.4186 35.2997 60.6212 35.1431C67.8815 34.9229 74.5087 35.4356 80.6697 35.6317L80.372 39.446Z" fill="#CE8E55"/>
<path id="Vector_28" d="M31.2463 42.7716C29.8699 42.3174 28.9151 41.7256 28.5159 40.9634C26.0023 36.1633 28.7206 32.442 30.3189 31.2015C31.482 30.3 33.1835 30.9641 35.9964 31.7779C35.1827 32.6261 30.8454 37.3917 31.2463 42.7716Z" fill="#FFE94D"/>
<path id="Vector_29" d="M78.7104 35.5577C78.7104 35.5577 79.0372 38.2812 78.1013 40.1513C78.1013 40.1513 80.2106 39.4976 80.393 39.5062C80.5753 39.5148 84.8214 39.8503 86.3251 39.6903C87.8288 39.5303 88.6116 39.6421 88.7578 36.9272C88.904 34.2123 88.8318 33.113 88.3174 33.0889C87.803 33.0648 85.3358 33.5052 80.7887 35.4614C80.7887 35.4614 80.5186 35.5956 78.7104 35.5577Z" fill="#FAFFFD"/>
<path id="Vector_30" d="M49.7737 90.7206L49.7427 90.7327C46.8885 91.8527 43.4218 92.7972 40.7791 93.186C38.9159 90.1942 33.8853 81.3459 39.8621 81.831C47.0502 82.4212 49.7737 90.7206 49.7737 90.7206Z" fill="#006C5C"/>
<path id="Vector_31" d="M25.8886 70.7393C25.8886 70.7393 21.3156 76.2447 20.3333 91.9266C20.3333 91.9266 26.489 93.1826 27.8086 92.7869C29.1282 92.3912 31.4216 86.7653 31.4216 86.7653C31.4216 86.7653 30.1519 92.2897 31.3734 93.3168C32.5949 94.3439 40.3198 95.2729 40.3198 95.2729L49.5121 74.8339C49.5121 74.8339 36.7309 73.3784 25.8886 70.7393Z" fill="#018061"/>
<path id="Vector_32" d="M25.7429 70.9337C25.7429 70.9337 36.5628 76.8022 44.2636 75.1144C51.9643 73.4267 51.5514 72.9036 51.5514 72.9036L50.2267 68.3221C50.2267 68.3221 46.2438 70.6412 40.8898 70.421C35.5357 70.2008 27.8333 66.5896 27.8333 66.5896L25.7429 70.9337Z" fill="#006C5C"/>
</g>
<defs>
<filter id="filter0_d" x="0" y="0" width="92.8244" height="176.569" filterUnits="userSpaceOnUse" color-interpolation-filters="sRGB">
<feFlood flood-opacity="0" result="BackgroundImageFix"/>
<feColorMatrix in="SourceAlpha" type="matrix" values="0 0 0 0 0 0 0 0 0 0 0 0 0 0 0 0 0 0 127 0"/>
<feOffset dy="4"/>
<feGaussianBlur stdDeviation="2"/>
<feColorMatrix type="matrix" values="0 0 0 0 0 0 0 0 0 0 0 0 0 0 0 0 0 0 0.25 0"/>
<feBlend mode="normal" in2="BackgroundImageFix" result="effect1_dropShadow"/>
<feBlend mode="normal" in="SourceGraphic" in2="effect1_dropShadow" result="shape"/>
</filter>
</defs>
</svg>
