<svg width="414" height="99" viewBox="0 0 414 99" fill="none" xmlns="http://www.w3.org/2000/svg">
<g filter="url(#filter0_d)">
<rect y="19" width="414" height="80" fill="#3E0080"/>
</g>
<path d="M63.7777 44.9567C265.777 134.323 311.777 -56.0432 477.778 22.4568V92.4567H63.7777C63.7777 92.4567 -138.222 -44.4096 63.7777 44.9567Z" fill="#882DE7" fill-opacity="0.1"/>
<g filter="url(#filter1_d)">
<path d="M89.7776 51.4585C291.777 140.825 411 -76.4983 503.778 51.5018V98.9584H89.7776C89.7776 98.9584 -112.222 -37.9079 89.7776 51.4585Z" fill="#9531E9" fill-opacity="0.25"/>
</g>
<g filter="url(#filter2_d)">
<path d="M443.381 51.4778C219.239 140.886 86.9477 -76.5387 -16 51.5212V99H443.381C443.381 99 667.523 -37.9303 443.381 51.4778Z" fill="url(#paint0_linear)" fill-opacity="0.2"/>
</g>
<g filter="url(#filter3_d)">
<circle cx="206.5" cy="40.5" r="30.5" fill="url(#paint1_linear)" fill-opacity="0.7"/>
<ellipse cx="206.5" cy="40.5" rx="25.8875" ry="25.8962" fill="url(#paint2_linear)"/>
<ellipse cx="206.499" cy="40.4425" rx="21.7363" ry="21.8104" fill="#B781E8"/>
<g filter="url(#filter4_i)">
<rect width="29.492" height="29.492" rx="7.65595" transform="matrix(0.707774 -0.706439 0.707774 0.706439 185.571 40.5022)" fill="#7429D6" fill-opacity="0.3"/>
</g>
<g clip-path="url(#clip0)">
<path d="M204.042 37.4689C202.297 36.85 201.714 35.1823 202.501 33.3661C203.212 31.7325 205.677 31.6613 206.845 31.6582V28.8271H206.817C205.277 28.8271 202.581 28.8581 200.93 30.6836C199.039 32.7504 198.997 35.6898 199.954 37.4905C200.912 39.2913 201.574 40.3216 201.144 41.3024C200.714 42.2832 199.076 45.73 200.607 48.4373C202.025 50.9435 204.472 51.157 206.845 51.1601V37.3977C206.101 37.3977 205.24 37.8989 204.042 37.4689Z" fill="#863BD8"/>
<path d="M212.825 30.6836C211.181 28.8705 208.393 28.8271 206.847 28.8271V31.6582C208.024 31.6582 210.534 31.7294 211.245 33.3661C212.035 35.1823 211.449 36.8469 209.72 37.4689C208.521 37.8989 207.585 37.3977 206.853 37.3977V43.7003H206.883C207.133 43.69 207.382 43.731 207.616 43.8208C207.849 43.9107 208.063 44.0475 208.243 44.223C208.423 44.3986 208.567 44.6093 208.665 44.8424C208.762 45.0756 208.813 45.3265 208.813 45.5799C208.813 45.8334 208.762 46.0842 208.665 46.3174C208.567 46.5506 208.423 46.7613 208.243 46.9368C208.063 47.1124 207.849 47.2492 207.616 47.339C207.382 47.4288 207.133 47.4698 206.883 47.4596H206.853V51.1724H206.883C209.265 51.1724 211.727 50.9651 213.151 48.4497C214.676 45.7424 213.045 42.2925 212.615 41.3148C212.184 40.337 212.825 39.2851 213.792 37.4905C214.759 35.696 214.704 32.7504 212.825 30.6836Z" fill="#A04ADA"/>
<path d="M206.877 43.7497H206.844C206.353 43.7497 205.882 43.9475 205.534 44.2998C205.187 44.652 204.992 45.1297 204.992 45.6278C204.992 46.1259 205.187 46.6036 205.534 46.9558C205.882 47.308 206.353 47.5059 206.844 47.5059H206.877C207.356 47.4862 207.808 47.2795 208.14 46.9292C208.471 46.5788 208.656 46.1119 208.656 45.6262C208.656 45.1405 208.471 44.6736 208.14 44.3233C207.808 43.9729 207.356 43.7663 206.877 43.7466V43.7497Z" fill="#4F4F4F"/>
<path d="M206.877 47.6018C206.492 47.6018 206.116 47.4861 205.796 47.2691C205.476 47.0522 205.226 46.7439 205.079 46.3832C204.932 46.0225 204.893 45.6256 204.968 45.2427C205.043 44.8598 205.228 44.5081 205.501 44.232C205.773 43.9559 206.12 43.7679 206.497 43.6917C206.875 43.6156 207.266 43.6547 207.621 43.8041C207.977 43.9535 208.281 44.2065 208.495 44.5311C208.709 44.8557 208.823 45.2374 208.823 45.6278C208.823 46.1514 208.618 46.6535 208.253 47.0237C207.888 47.3938 207.393 47.6018 206.877 47.6018V47.6018ZM206.877 43.8704C206.534 43.8704 206.199 43.9735 205.914 44.1666C205.629 44.3597 205.407 44.6342 205.276 44.9553C205.145 45.2764 205.111 45.6298 205.177 45.9707C205.244 46.3116 205.409 46.6247 205.652 46.8705C205.894 47.1163 206.203 47.2837 206.539 47.3515C206.875 47.4193 207.223 47.3845 207.54 47.2515C207.856 47.1184 208.127 46.8932 208.317 46.6042C208.508 46.3152 208.609 45.9754 208.609 45.6278C208.608 45.162 208.426 44.7154 208.101 44.386C207.776 44.0566 207.336 43.8712 206.877 43.8704V43.8704Z" fill="white"/>
</g>
</g>
<path d="M190.513 85H191.825V81.2559H196.167V85H197.473V76.5449H196.167V80.1191H191.825V76.5449H190.513V85ZM201.843 85.123C203.707 85.123 204.849 83.875 204.849 81.8242V81.8125C204.849 79.7617 203.701 78.5137 201.843 78.5137C199.98 78.5137 198.832 79.7676 198.832 81.8125V81.8242C198.832 83.875 199.974 85.123 201.843 85.123ZM201.843 84.0625C200.748 84.0625 200.132 83.2363 200.132 81.8242V81.8125C200.132 80.4004 200.748 79.5742 201.843 79.5742C202.933 79.5742 203.554 80.4004 203.554 81.8125V81.8242C203.554 83.2305 202.933 84.0625 201.843 84.0625ZM206.067 85H207.338V81.0918C207.338 80.2598 207.907 79.6035 208.674 79.6035C209.424 79.6035 209.899 80.0605 209.899 80.7871V85H211.164V80.9746C211.164 80.207 211.698 79.6035 212.506 79.6035C213.338 79.6035 213.737 80.0371 213.737 80.916V85H215.002V80.6113C215.002 79.2871 214.252 78.5137 212.969 78.5137C212.084 78.5137 211.352 78.9648 211.03 79.6504H210.93C210.649 78.9648 210.034 78.5137 209.166 78.5137C208.334 78.5137 207.713 78.918 207.432 79.6152H207.338V78.6367H206.067V85ZM219.15 85.123C220.779 85.123 221.657 84.1855 221.868 83.3477L221.88 83.2949L220.655 83.3008L220.632 83.3477C220.48 83.6758 219.993 84.0801 219.179 84.0801C218.13 84.0801 217.462 83.3711 217.439 82.1523H221.95V81.707C221.95 79.7969 220.861 78.5137 219.085 78.5137C217.31 78.5137 216.161 79.8438 216.161 81.8301V81.8359C216.161 83.8516 217.286 85.123 219.15 85.123ZM219.091 79.5566C219.952 79.5566 220.591 80.1074 220.691 81.2441H217.456C217.568 80.1484 218.224 79.5566 219.091 79.5566Z" fill="white"/>
<path d="M49.1871 85H50.4996V82.1113H52.4801C54.1383 82.1113 55.2867 80.9805 55.2867 79.3281V79.3164C55.2867 77.6582 54.1383 76.5449 52.4801 76.5449H49.1871V85ZM52.152 77.6523C53.2887 77.6523 53.9508 78.2676 53.9508 79.3223V79.334C53.9508 80.3945 53.2887 81.0098 52.152 81.0098H50.4996V77.6523H52.152ZM56.5336 85H57.8051V81.1973C57.8051 80.2773 58.4672 79.6797 59.4398 79.6797C59.6801 79.6797 59.8969 79.709 60.1254 79.7559V78.584C59.9965 78.5547 59.7738 78.5254 59.5687 78.5254C58.7191 78.5254 58.1273 78.9238 57.8988 79.5977H57.8051V78.6367H56.5336V85ZM63.5695 85.123C65.4328 85.123 66.5754 83.875 66.5754 81.8242V81.8125C66.5754 79.7617 65.427 78.5137 63.5695 78.5137C61.7062 78.5137 60.5578 79.7676 60.5578 81.8125V81.8242C60.5578 83.875 61.7004 85.123 63.5695 85.123ZM63.5695 84.0625C62.4738 84.0625 61.8586 83.2363 61.8586 81.8242V81.8125C61.8586 80.4004 62.4738 79.5742 63.5695 79.5742C64.6594 79.5742 65.2805 80.4004 65.2805 81.8125V81.8242C65.2805 83.2305 64.6594 84.0625 63.5695 84.0625ZM68.2441 85H69.5098V79.6387H70.9102V78.6367H69.498V78.0273C69.498 77.3828 69.7734 77.043 70.4766 77.043C70.6758 77.043 70.8457 77.0547 70.9629 77.0723V76.1406C70.7461 76.1055 70.5 76.082 70.2129 76.082C68.8887 76.082 68.2441 76.7031 68.2441 77.9688V78.6367H67.1953V79.6387H68.2441V85ZM72.702 77.5C73.1355 77.5 73.4988 77.1426 73.4988 76.709C73.4988 76.2695 73.1355 75.9121 72.702 75.9121C72.2625 75.9121 71.9051 76.2695 71.9051 76.709C71.9051 77.1426 72.2625 77.5 72.702 77.5ZM72.0633 85H73.3289V78.6367H72.0633V85ZM74.9391 85H76.2105V76.1406H74.9391V85ZM80.475 85.123C82.1039 85.123 82.9828 84.1855 83.1938 83.3477L83.2055 83.2949L81.9809 83.3008L81.9574 83.3477C81.8051 83.6758 81.3188 84.0801 80.5043 84.0801C79.4555 84.0801 78.7875 83.3711 78.7641 82.1523H83.2758V81.707C83.2758 79.7969 82.1859 78.5137 80.4105 78.5137C78.6352 78.5137 77.4867 79.8438 77.4867 81.8301V81.8359C77.4867 83.8516 78.6117 85.123 80.475 85.123ZM80.4164 79.5566C81.2777 79.5566 81.9164 80.1074 82.016 81.2441H78.7816C78.893 80.1484 79.5492 79.5566 80.4164 79.5566Z" fill="white"/>
<path d="M66 57.5C70.9706 57.5 75 53.4706 75 48.5C75 43.5294 70.9706 39.5 66 39.5C61.0294 39.5 57 43.5294 57 48.5C57 53.4706 61.0294 57.5 66 57.5Z" fill="url(#paint3_linear)" stroke="url(#paint4_linear)" stroke-width="3" stroke-linecap="round" stroke-linejoin="round"/>
<path d="M52.3579 65.3737C53.741 62.9796 55.7298 60.9917 58.1245 59.6096C60.5192 58.2275 63.2354 57.5 66.0002 57.5C68.7651 57.5 71.4813 58.2277 73.8759 59.6098C76.2706 60.9919 78.2593 62.9799 79.6424 65.374" stroke="url(#paint5_linear)" stroke-width="3" stroke-linecap="round" stroke-linejoin="round"/>
<path d="M297.311 85H298.506V78.7949H298.6L301.078 85H302.051L304.535 78.7949H304.623V85H305.818V76.5449H304.307L301.611 83.2891H301.518L298.822 76.5449H297.311V85ZM308.114 87.2383C309.403 87.2383 310.048 86.7637 310.587 85.2461L312.954 78.6367H311.618L310.03 83.7227H309.919L308.325 78.6367H306.954L309.262 85.0059L309.169 85.334C308.981 85.9785 308.624 86.2305 308.032 86.2305C307.886 86.2305 307.727 86.2246 307.604 86.207V87.209C307.768 87.2266 307.956 87.2383 308.114 87.2383ZM317.071 85H318.383V82.1113H320.364C322.022 82.1113 323.17 80.9805 323.17 79.3281V79.3164C323.17 77.6582 322.022 76.5449 320.364 76.5449H317.071V85ZM320.036 77.6523C321.172 77.6523 321.834 78.2676 321.834 79.3223V79.334C321.834 80.3945 321.172 81.0098 320.036 81.0098H318.383V77.6523H320.036ZM324.417 85H325.689V81.1973C325.689 80.2773 326.351 79.6797 327.323 79.6797C327.564 79.6797 327.78 79.709 328.009 79.7559V78.584C327.88 78.5547 327.657 78.5254 327.452 78.5254C326.603 78.5254 326.011 78.9238 325.782 79.5977H325.689V78.6367H324.417V85ZM331.453 85.123C333.316 85.123 334.459 83.875 334.459 81.8242V81.8125C334.459 79.7617 333.311 78.5137 331.453 78.5137C329.59 78.5137 328.441 79.7676 328.441 81.8125V81.8242C328.441 83.875 329.584 85.123 331.453 85.123ZM331.453 84.0625C330.357 84.0625 329.742 83.2363 329.742 81.8242V81.8125C329.742 80.4004 330.357 79.5742 331.453 79.5742C332.543 79.5742 333.164 80.4004 333.164 81.8125V81.8242C333.164 83.2305 332.543 84.0625 331.453 84.0625ZM338.366 87.2441C340.171 87.2441 341.313 86.3184 341.313 84.8711V78.6367H340.048V79.6797H339.971C339.602 78.9648 338.911 78.5254 338.02 78.5254C336.368 78.5254 335.354 79.8086 335.354 81.625V81.6367C335.354 83.4297 336.362 84.6895 337.997 84.6895C338.87 84.6895 339.573 84.3027 339.96 83.6113H340.054V84.8652C340.054 85.7324 339.432 86.2246 338.384 86.2246C337.522 86.2246 337.007 85.9141 336.901 85.4746L336.895 85.4629H335.612L335.6 85.4746C335.753 86.5352 336.749 87.2441 338.366 87.2441ZM338.348 83.6406C337.264 83.6406 336.655 82.8145 336.655 81.6309V81.6191C336.655 80.4355 337.264 79.6035 338.348 79.6035C339.421 79.6035 340.077 80.4355 340.077 81.6191V81.6309C340.077 82.8203 339.427 83.6406 338.348 83.6406ZM342.841 85H344.113V81.1973C344.113 80.2773 344.775 79.6797 345.748 79.6797C345.988 79.6797 346.205 79.709 346.433 79.7559V78.584C346.304 78.5547 346.082 78.5254 345.877 78.5254C345.027 78.5254 344.435 78.9238 344.207 79.5977H344.113V78.6367H342.841V85ZM349.045 85.1055C349.889 85.1055 350.557 84.7422 350.932 84.0977H351.032V85H352.291V80.6465C352.291 79.3105 351.389 78.5137 349.789 78.5137C348.342 78.5137 347.34 79.2109 347.188 80.2539L347.182 80.2949H348.407L348.412 80.2715C348.565 79.8203 349.028 79.5625 349.731 79.5625C350.592 79.5625 351.032 79.9492 351.032 80.6465V81.209L349.309 81.3086C347.791 81.4023 346.936 82.0645 346.936 83.2012V83.2129C346.936 84.3672 347.832 85.1055 349.045 85.1055ZM348.202 83.1602V83.1484C348.202 82.5742 348.6 82.2578 349.479 82.2051L351.032 82.1055V82.6504C351.032 83.4707 350.334 84.0918 349.385 84.0918C348.7 84.0918 348.202 83.7461 348.202 83.1602ZM353.784 85H355.056V81.0918C355.056 80.2598 355.624 79.6035 356.392 79.6035C357.142 79.6035 357.616 80.0605 357.616 80.7871V85H358.882V80.9746C358.882 80.207 359.415 79.6035 360.224 79.6035C361.056 79.6035 361.454 80.0371 361.454 80.916V85H362.72V80.6113C362.72 79.2871 361.97 78.5137 360.687 78.5137C359.802 78.5137 359.07 78.9648 358.747 79.6504H358.648C358.366 78.9648 357.751 78.5137 356.884 78.5137C356.052 78.5137 355.431 78.918 355.15 79.6152H355.056V78.6367H353.784V85ZM366.51 85.123C368.021 85.123 369.146 84.3203 369.146 83.1426V83.1309C369.146 82.2109 368.561 81.6895 367.336 81.4023L366.328 81.1738C365.613 81.0039 365.32 80.7578 365.32 80.3594V80.3477C365.32 79.8379 365.824 79.4922 366.521 79.4922C367.236 79.4922 367.688 79.8262 367.811 80.2715V80.2832H369.023V80.2773C368.912 79.2402 367.98 78.5137 366.527 78.5137C365.086 78.5137 364.055 79.3105 364.055 80.418V80.4238C364.055 81.3555 364.611 81.9004 365.812 82.1758L366.826 82.4102C367.564 82.5801 367.863 82.8496 367.863 83.248V83.2598C367.863 83.7812 367.318 84.1387 366.533 84.1387C365.777 84.1387 365.314 83.8164 365.156 83.3359L365.15 83.3301H363.879V83.3359C364.002 84.4023 364.975 85.123 366.51 85.123Z" fill="white"/>
<path d="M324 40.5H319.5C318.672 40.5 318 41.1716 318 42V66C318 66.8284 318.672 67.5 319.5 67.5H324C324.828 67.5 325.5 66.8284 325.5 66V42C325.5 41.1716 324.828 40.5 324 40.5Z" stroke="url(#paint6_linear)" stroke-width="3" stroke-linecap="round" stroke-linejoin="round"/>
<path d="M346.5 40.5H342C341.172 40.5 340.5 41.1716 340.5 42V66C340.5 66.8284 341.172 67.5 342 67.5H346.5C347.328 67.5 348 66.8284 348 66V42C348 41.1716 347.328 40.5 346.5 40.5Z" stroke="url(#paint7_linear)" stroke-width="3" stroke-linecap="round" stroke-linejoin="round"/>
<path d="M348 45H352.5C352.898 45 353.279 45.158 353.561 45.4393C353.842 45.7206 354 46.1022 354 46.5V61.5C354 61.8978 353.842 62.2794 353.561 62.5607C353.279 62.842 352.898 63 352.5 63H348" stroke="url(#paint8_linear)" stroke-width="3" stroke-linecap="round" stroke-linejoin="round"/>
<path d="M318 63H313.5C313.102 63 312.721 62.842 312.439 62.5607C312.158 62.2794 312 61.8978 312 61.5V46.5C312 46.1022 312.158 45.7206 312.439 45.4393C312.721 45.158 313.102 45 313.5 45H318" stroke="url(#paint9_linear)" stroke-width="3" stroke-linecap="round" stroke-linejoin="round"/>
<path d="M325.5 54H340.5" stroke="url(#paint10_linear)" stroke-width="3" stroke-linecap="round" stroke-linejoin="round"/>
<defs>
<filter id="filter0_d" x="-5" y="12" width="424" height="90" filterUnits="userSpaceOnUse" color-interpolation-filters="sRGB">
<feFlood flood-opacity="0" result="BackgroundImageFix"/>
<feColorMatrix in="SourceAlpha" type="matrix" values="0 0 0 0 0 0 0 0 0 0 0 0 0 0 0 0 0 0 127 0"/>
<feOffset dy="-2"/>
<feGaussianBlur stdDeviation="2.5"/>
<feColorMatrix type="matrix" values="0 0 0 0 0 0 0 0 0 0 0 0 0 0 0 0 0 0 0.25 0"/>
<feBlend mode="normal" in2="BackgroundImageFix" result="effect1_dropShadow"/>
<feBlend mode="normal" in="SourceGraphic" in2="effect1_dropShadow" result="shape"/>
</filter>
<filter id="filter1_d" x="-4" y="10" width="511.778" height="96.9584" filterUnits="userSpaceOnUse" color-interpolation-filters="sRGB">
<feFlood flood-opacity="0" result="BackgroundImageFix"/>
<feColorMatrix in="SourceAlpha" type="matrix" values="0 0 0 0 0 0 0 0 0 0 0 0 0 0 0 0 0 0 127 0"/>
<feOffset dy="4"/>
<feGaussianBlur stdDeviation="2"/>
<feColorMatrix type="matrix" values="0 0 0 0 0 0 0 0 0 0 0 0 0 0 0 0 0 0 0.25 0"/>
<feBlend mode="normal" in2="BackgroundImageFix" result="effect1_dropShadow"/>
<feBlend mode="normal" in="SourceGraphic" in2="effect1_dropShadow" result="shape"/>
</filter>
<filter id="filter2_d" x="-20" y="10" width="567" height="97" filterUnits="userSpaceOnUse" color-interpolation-filters="sRGB">
<feFlood flood-opacity="0" result="BackgroundImageFix"/>
<feColorMatrix in="SourceAlpha" type="matrix" values="0 0 0 0 0 0 0 0 0 0 0 0 0 0 0 0 0 0 127 0"/>
<feOffset dy="4"/>
<feGaussianBlur stdDeviation="2"/>
<feColorMatrix type="matrix" values="0 0 0 0 0 0 0 0 0 0 0 0 0 0 0 0 0 0 0.25 0"/>
<feBlend mode="normal" in2="BackgroundImageFix" result="effect1_dropShadow"/>
<feBlend mode="normal" in="SourceGraphic" in2="effect1_dropShadow" result="shape"/>
</filter>
<filter id="filter3_d" x="166" y="0" width="81" height="81" filterUnits="userSpaceOnUse" color-interpolation-filters="sRGB">
<feFlood flood-opacity="0" result="BackgroundImageFix"/>
<feColorMatrix in="SourceAlpha" type="matrix" values="0 0 0 0 0 0 0 0 0 0 0 0 0 0 0 0 0 0 127 0"/>
<feOffset/>
<feGaussianBlur stdDeviation="5"/>
<feColorMatrix type="matrix" values="0 0 0 0 0 0 0 0 0 0 0 0 0 0 0 0 0 0 0.1 0"/>
<feBlend mode="normal" in2="BackgroundImageFix" result="effect1_dropShadow"/>
<feBlend mode="normal" in="SourceGraphic" in2="effect1_dropShadow" result="shape"/>
</filter>
<filter id="filter4_i" x="188.746" y="22.8362" width="35.399" height="35.9447" filterUnits="userSpaceOnUse" color-interpolation-filters="sRGB">
<feFlood flood-opacity="0" result="BackgroundImageFix"/>
<feBlend mode="normal" in="SourceGraphic" in2="BackgroundImageFix" result="shape"/>
<feColorMatrix in="SourceAlpha" type="matrix" values="0 0 0 0 0 0 0 0 0 0 0 0 0 0 0 0 0 0 127 0" result="hardAlpha"/>
<feOffset dy="0.612476"/>
<feGaussianBlur stdDeviation="0.306238"/>
<feComposite in2="hardAlpha" operator="arithmetic" k2="-1" k3="1"/>
<feColorMatrix type="matrix" values="0 0 0 0 0 0 0 0 0 0 0 0 0 0 0 0 0 0 0.25 0"/>
<feBlend mode="normal" in2="shape" result="effect1_innerShadow"/>
</filter>
<linearGradient id="paint0_linear" x1="263.5" y1="10" x2="263.5" y2="99" gradientUnits="userSpaceOnUse">
<stop stop-color="#9531E9"/>
<stop offset="1" stop-color="#C19FDD"/>
</linearGradient>
<linearGradient id="paint1_linear" x1="206.5" y1="10" x2="206.5" y2="71" gradientUnits="userSpaceOnUse">
<stop stop-color="#AD4CD6"/>
<stop offset="1" stop-color="#6A24D6"/>
</linearGradient>
<linearGradient id="paint2_linear" x1="206.5" y1="14.6038" x2="206.5" y2="66.3962" gradientUnits="userSpaceOnUse">
<stop stop-color="#AB53D9"/>
<stop offset="0.510428" stop-color="#9743DA"/>
<stop offset="1" stop-color="#8333DB"/>
</linearGradient>
<linearGradient id="paint3_linear" x1="66" y1="39.5" x2="66" y2="57.5" gradientUnits="userSpaceOnUse">
<stop stop-color="#A54ED9"/>
<stop offset="1" stop-color="#A54ED9" stop-opacity="0"/>
</linearGradient>
<linearGradient id="paint4_linear" x1="66" y1="39.5" x2="66" y2="57.5" gradientUnits="userSpaceOnUse">
<stop stop-color="white"/>
<stop offset="1" stop-color="white" stop-opacity="0"/>
</linearGradient>
<linearGradient id="paint5_linear" x1="66.0002" y1="57.5" x2="66.0002" y2="65.374" gradientUnits="userSpaceOnUse">
<stop stop-color="white"/>
<stop offset="1" stop-color="#A367E3"/>
</linearGradient>
<linearGradient id="paint6_linear" x1="321.75" y1="40.5" x2="321.75" y2="67.5" gradientUnits="userSpaceOnUse">
<stop stop-color="#9142C6"/>
<stop offset="1" stop-color="#E1D0F1"/>
</linearGradient>
<linearGradient id="paint7_linear" x1="344.25" y1="40.5" x2="344.25" y2="67.5" gradientUnits="userSpaceOnUse">
<stop stop-color="#9142C6"/>
<stop offset="1" stop-color="#E1D0F1"/>
</linearGradient>
<linearGradient id="paint8_linear" x1="351" y1="45" x2="351" y2="63" gradientUnits="userSpaceOnUse">
<stop stop-color="#9142C6"/>
<stop offset="1" stop-color="#E1D0F1"/>
</linearGradient>
<linearGradient id="paint9_linear" x1="315" y1="45" x2="315" y2="63" gradientUnits="userSpaceOnUse">
<stop stop-color="#9142C6"/>
<stop offset="1" stop-color="#E1D0F1"/>
</linearGradient>
<linearGradient id="paint10_linear" x1="333" y1="54" x2="333" y2="55" gradientUnits="userSpaceOnUse">
<stop stop-color="#9142C6"/>
<stop offset="1" stop-color="#E1D0F1"/>
</linearGradient>
<clipPath id="clip0">
<rect width="15.0617" height="22.3329" fill="white" transform="translate(199.345 28.8271)"/>
</clipPath>
</defs>
</svg>
