<svg width="393" height="62" viewBox="0 0 393 62" fill="none" xmlns="http://www.w3.org/2000/svg">
<path fill-rule="evenodd" clip-rule="evenodd" d="M365.5 5C364.119 5 363 6.11929 363 7.5V13C363 14.3807 364.119 15.5 365.5 15.5H381.469H382.5C383.881 15.5 385 14.3807 385 13V7.5C385 6.11929 383.881 5 382.5 5H365.5ZM366 6C364.895 6 364 6.89543 364 8V12.5C364 13.6046 364.895 14.5 366 14.5H380.469H382C383.105 14.5 384 13.6046 384 12.5V8C384 6.89543 383.105 6 382 6H366Z" fill="#ABABAB"/>
<path fill-rule="evenodd" clip-rule="evenodd" d="M386 12.374C386.863 12.152 387.5 11.3689 387.5 10.437C387.5 9.50507 386.863 8.72202 386 8.5V12.374Z" fill="#ABABAB"/>
<rect x="365" y="7" width="18" height="6.5" rx="1" fill="#060606"/>
<path fill-rule="evenodd" clip-rule="evenodd" d="M350.33 6.60789C352.546 6.60799 354.677 7.45943 356.283 8.98623C356.404 9.1041 356.597 9.10261 356.716 8.98289L357.872 7.81623C357.933 7.7555 357.966 7.67325 357.966 7.58767C357.965 7.50209 357.931 7.42024 357.87 7.36023C353.655 3.32068 347.005 3.32068 342.79 7.36023C342.729 7.4202 342.694 7.50202 342.693 7.5876C342.693 7.67318 342.726 7.75546 342.787 7.81623L343.943 8.98289C344.062 9.1028 344.255 9.10428 344.376 8.98623C345.982 7.45933 348.114 6.60789 350.33 6.60789ZM350.33 10.4036C351.547 10.4035 352.721 10.856 353.624 11.6733C353.746 11.7892 353.938 11.7867 354.057 11.6676L355.212 10.5009C355.273 10.4397 355.306 10.3567 355.305 10.2704C355.305 10.1842 355.269 10.1019 355.207 10.0419C352.459 7.48554 348.203 7.48554 345.455 10.0419C345.393 10.1019 345.357 10.1842 345.356 10.2705C345.356 10.3568 345.39 10.4398 345.45 10.5009L346.605 11.6676C346.724 11.7867 346.916 11.7892 347.038 11.6733C347.94 10.8566 349.113 10.4041 350.33 10.4036ZM352.549 13.1879C352.611 13.1273 352.645 13.0439 352.643 12.9574C352.641 12.8709 352.604 12.7889 352.54 12.7309C351.264 11.652 349.396 11.652 348.12 12.7309C348.056 12.7889 348.019 12.8708 348.017 12.9573C348.015 13.0438 348.049 13.1273 348.111 13.1879L350.108 15.2036C350.167 15.2628 350.247 15.2962 350.33 15.2962C350.413 15.2962 350.493 15.2628 350.552 15.2036L352.549 13.1879Z" fill="#060606"/>
<path fill-rule="evenodd" clip-rule="evenodd" d="M321.667 11.3336H322.667C323.219 11.3336 323.667 11.7813 323.667 12.3336V14.3336C323.667 14.8859 323.219 15.3336 322.667 15.3336H321.667C321.115 15.3336 320.667 14.8859 320.667 14.3336V12.3336C320.667 11.7813 321.115 11.3336 321.667 11.3336ZM326.334 9.33362H327.334C327.886 9.33362 328.334 9.78133 328.334 10.3336V14.3336C328.334 14.8859 327.886 15.3336 327.334 15.3336H326.334C325.782 15.3336 325.334 14.8859 325.334 14.3336V10.3336C325.334 9.78133 325.782 9.33362 326.334 9.33362ZM331 7.00037H332C332.552 7.00037 333 7.44808 333 8.00037V14.3337C333 14.886 332.552 15.3337 332 15.3337H331C330.448 15.3337 330 14.886 330 14.3337V8.00037C330 7.44808 330.448 7.00037 331 7.00037ZM335.667 4.66699H336.667C337.219 4.66699 337.667 5.11471 337.667 5.66699V14.3337C337.667 14.8859 337.219 15.3337 336.667 15.3337H335.667C335.115 15.3337 334.667 14.8859 334.667 14.3337V5.66699C334.667 5.11471 335.115 4.66699 335.667 4.66699Z" fill="#060606"/>
<path d="M159.025 47H160.602V41.2461H160.719L162.887 47H163.994L166.162 41.2461H166.279V47H167.855V38.5449H165.828L163.496 44.7324H163.391L161.053 38.5449H159.025V47ZM171.95 47H173.72V43.8418L176.667 38.5449H174.751L172.893 42.1016H172.788L170.925 38.5449H169.009L171.95 43.8418V47ZM184.194 47.2168C186.233 47.2168 187.68 46.0098 187.862 44.2402L187.868 44.1758H186.145L186.133 44.2227C185.946 45.125 185.213 45.7168 184.2 45.7168C182.864 45.7168 182.038 44.5918 182.038 42.7754V42.7637C182.038 40.9473 182.864 39.8281 184.194 39.8281C185.202 39.8281 185.957 40.4727 186.139 41.4219V41.4629H187.862V41.3926C187.698 39.6055 186.198 38.3281 184.194 38.3281C181.739 38.3281 180.227 40.0215 180.227 42.7637V42.7754C180.227 45.5176 181.745 47.2168 184.194 47.2168ZM189.196 47H194.728V45.541H190.966V38.5449H189.196V47ZM196.033 47H197.803V38.5449H196.033V47ZM199.554 47H205.155V45.541H201.323V43.4023H204.938V42.043H201.323V40.0039H205.155V38.5449H199.554V47ZM206.718 47H208.412V41.5918H208.505L212.42 47H213.884V38.5449H212.191V43.9297H212.097L208.195 38.5449H206.718V47ZM217.692 47H219.461V40.0039H221.998V38.5449H215.155V40.0039H217.692V47ZM226.286 47.2168C228.396 47.2168 229.696 46.1562 229.696 44.4805V44.4746C229.696 43.1562 228.917 42.4414 227.13 42.0723L226.234 41.8906C225.238 41.6855 224.827 41.3574 224.827 40.8066V40.8008C224.827 40.168 225.407 39.7695 226.28 39.7637C227.171 39.7637 227.757 40.1855 227.857 40.7891L227.868 40.8594H229.532L229.527 40.7832C229.415 39.3711 228.255 38.3281 226.28 38.3281C224.405 38.3281 223.058 39.3652 223.058 40.9355V40.9414C223.058 42.2246 223.814 43.0449 225.571 43.4023L226.462 43.584C227.511 43.8008 227.927 44.1113 227.927 44.668V44.6738C227.927 45.3242 227.277 45.7754 226.333 45.7754C225.343 45.7754 224.657 45.3477 224.593 44.7148L224.587 44.6562H222.882L222.888 44.75C222.988 46.25 224.265 47.2168 226.286 47.2168Z" fill="#3E0080"/>
<path fill-rule="evenodd" clip-rule="evenodd" d="M382.189 57.2722H366.618C365.725 57.2722 365 56.5475 365 55.6547C365 54.7618 365.725 54.0371 366.618 54.0371H382.189C383.082 54.0371 383.807 54.7618 383.807 55.6547C383.807 56.5475 383.082 57.2722 382.189 57.2722Z" fill="#130F26"/>
<path fill-rule="evenodd" clip-rule="evenodd" d="M382.189 48.2434H366.618C365.725 48.2434 365 47.5187 365 46.6258C365 45.733 365.725 45.0083 366.618 45.0083H382.189C383.082 45.0083 383.807 45.733 383.807 46.6258C383.807 47.5187 383.082 48.2434 382.189 48.2434Z" fill="#130F26"/>
<path fill-rule="evenodd" clip-rule="evenodd" d="M372.559 39.2351H366.618C365.725 39.2351 365 38.5104 365 37.6175C365 36.7247 365.725 36 366.618 36H372.559C373.452 36 374.177 36.7247 374.177 37.6175C374.177 38.5104 373.452 39.2351 372.559 39.2351Z" fill="#130F26"/>
<path d="M16.2146 3.16748C13.9222 3.16748 12.2889 4.73486 12.2889 6.88086V6.89551C12.2889 8.90234 13.7098 10.3818 15.7386 10.3818C17.1888 10.3818 18.1116 9.64209 18.4998 8.80713H18.6463C18.6463 8.8877 18.639 8.96826 18.639 9.04883C18.5584 11.0703 17.8479 12.7109 16.1707 12.7109C15.2405 12.7109 14.5887 12.2275 14.3104 11.4878L14.2884 11.4146H12.428L12.4427 11.4951C12.7796 13.1138 14.2298 14.2637 16.1707 14.2637C18.8294 14.2637 20.4334 12.1543 20.4334 8.59473V8.58008C20.4334 4.77148 18.4705 3.16748 16.2146 3.16748ZM16.2073 8.93164C15.0062 8.93164 14.1346 8.05273 14.1346 6.82959V6.81494C14.1346 5.63574 15.0647 4.70557 16.2293 4.70557C17.4012 4.70557 18.3167 5.65039 18.3167 6.85889V6.87354C18.3167 8.06738 17.4012 8.93164 16.2073 8.93164ZM23.4586 7.15186C24.1324 7.15186 24.6231 6.63916 24.6231 5.99463C24.6231 5.34277 24.1324 4.8374 23.4586 4.8374C22.7921 4.8374 22.294 5.34277 22.294 5.99463C22.294 6.63916 22.7921 7.15186 23.4586 7.15186ZM23.4586 12.5864C24.1324 12.5864 24.6231 12.0811 24.6231 11.4292C24.6231 10.7773 24.1324 10.272 23.4586 10.272C22.7921 10.272 22.294 10.7773 22.294 11.4292C22.294 12.0811 22.7921 12.5864 23.4586 12.5864ZM31.6107 14H33.4198V11.9712H34.8407V10.4111H33.4198V3.43115H30.7465C29.3109 5.61377 27.8095 8.04541 26.4398 10.4258V11.9712H31.6107V14ZM28.1977 10.4551V10.3452C29.223 8.55078 30.4462 6.59521 31.5302 4.93994H31.64V10.4551H28.1977ZM38.9206 14H40.8103V3.43115H38.9279L36.1667 5.37207V7.15186L38.7961 5.2915H38.9206V14Z" fill="#171717"/>
<path d="M22.828 46.0002H35V48.0002H22.828L28.192 53.3642L26.778 54.7782L19 47.0002L26.778 39.2222L28.192 40.6362L22.828 46.0002Z" fill="#09121F"/>
</svg>
