<svg width="38" height="38" viewBox="0 0 38 38" fill="none" xmlns="http://www.w3.org/2000/svg">
<path fill-rule="evenodd" clip-rule="evenodd" d="M27.1891 33.2723H11.6175C10.7247 33.2723 10 32.5477 10 31.6548C10 30.7619 10.7247 30.0372 11.6175 30.0372H27.1891C28.082 30.0372 28.8067 30.7619 28.8067 31.6548C28.8067 32.5477 28.082 33.2723 27.1891 33.2723Z" fill="#130F26"/>
<path fill-rule="evenodd" clip-rule="evenodd" d="M27.1891 24.2431H11.6175C10.7247 24.2431 10 23.5185 10 22.6256C10 21.7327 10.7247 21.0081 11.6175 21.0081H27.1891C28.082 21.0081 28.8067 21.7327 28.8067 22.6256C28.8067 23.5185 28.082 24.2431 27.1891 24.2431Z" fill="#130F26"/>
<path fill-rule="evenodd" clip-rule="evenodd" d="M17.5593 15.2351H11.6175C10.7247 15.2351 10 14.5104 10 13.6175C10 12.7247 10.7247 12 11.6175 12H17.5593C18.4522 12 19.1769 12.7247 19.1769 13.6175C19.1769 14.5104 18.4522 15.2351 17.5593 15.2351Z" fill="#130F26"/>
</svg>
