<svg width="28" height="27" viewBox="0 0 28 27" fill="none" xmlns="http://www.w3.org/2000/svg">
<path d="M22.2407 13.101C21.4189 12.1413 21.0455 11.3097 21.0455 9.8968V9.4164C21.0455 7.57523 20.6217 6.38895 19.7004 5.20267C18.2804 3.36037 15.8899 2.25 13.5498 2.25H13.4502C11.1593 2.25 8.8437 3.30938 7.39912 5.0769C6.4275 6.28698 5.95454 7.52424 5.95454 9.4164V9.8968C5.95454 11.3097 5.6057 12.1413 4.7593 13.101C4.13652 13.808 3.9375 14.7167 3.9375 15.7002C3.9375 16.6848 4.26063 17.6173 4.90912 18.3752C5.75552 19.2839 6.95076 19.864 8.17172 19.9649C9.93943 20.1666 11.7071 20.2425 13.5006 20.2425C15.2929 20.2425 17.0606 20.1156 18.8294 19.9649C20.0492 19.864 21.2445 19.2839 22.0909 18.3752C22.7383 17.6173 23.0625 16.6848 23.0625 15.7002C23.0625 14.7167 22.8635 13.808 22.2407 13.101Z" fill="url(#paint0_radial)"/>
<path d="M22.2407 13.101C21.4189 12.1413 21.0455 11.3097 21.0455 9.8968V9.4164C21.0455 7.57523 20.6217 6.38895 19.7004 5.20267C18.2804 3.36037 15.8899 2.25 13.5498 2.25H13.4502C11.1593 2.25 8.8437 3.30938 7.39912 5.0769C6.4275 6.28698 5.95454 7.52424 5.95454 9.4164V9.8968C5.95454 11.3097 5.6057 12.1413 4.7593 13.101C4.13652 13.808 3.9375 14.7167 3.9375 15.7002C3.9375 16.6848 4.26063 17.6173 4.90912 18.3752C5.75552 19.2839 6.95076 19.864 8.17172 19.9649C9.93943 20.1666 11.7071 20.2425 13.5006 20.2425C15.2929 20.2425 17.0606 20.1156 18.8294 19.9649C20.0492 19.864 21.2445 19.2839 22.0909 18.3752C22.7383 17.6173 23.0625 16.6848 23.0625 15.7002C23.0625 14.7167 22.8635 13.808 22.2407 13.101" stroke="#3E0080" stroke-width="0.8"/>
<g opacity="0.4">
<mask id="path-3-inside-1" fill="white">
<path d="M15.7599 21.6319C15.1975 21.5118 11.7705 21.5118 11.2081 21.6319C10.7273 21.743 10.2074 22.0013 10.2074 22.5678C10.2353 23.1083 10.5518 23.5853 10.9901 23.8878L10.9889 23.8889C11.5558 24.3308 12.2211 24.6118 12.9177 24.7126C13.2889 24.7636 13.6668 24.7614 14.0514 24.7126C14.7469 24.6118 15.4121 24.3308 15.979 23.8889L15.9779 23.8878C16.4162 23.5853 16.7326 23.1083 16.7605 22.5678C16.7605 22.0013 16.2406 21.743 15.7599 21.6319Z"/>
</mask>
<path d="M15.7599 21.6319C15.1975 21.5118 11.7705 21.5118 11.2081 21.6319C10.7273 21.743 10.2074 22.0013 10.2074 22.5678C10.2353 23.1083 10.5518 23.5853 10.9901 23.8878L10.9889 23.8889C11.5558 24.3308 12.2211 24.6118 12.9177 24.7126C13.2889 24.7636 13.6668 24.7614 14.0514 24.7126C14.7469 24.6118 15.4121 24.3308 15.979 23.8889L15.9779 23.8878C16.4162 23.5853 16.7326 23.1083 16.7605 22.5678C16.7605 22.0013 16.2406 21.743 15.7599 21.6319Z" fill="url(#paint1_radial)"/>
<path d="M11.2081 21.6319L10.9993 20.654L10.9911 20.6557L10.9831 20.6576L11.2081 21.6319ZM10.2074 22.5678H9.2074V22.5937L9.20873 22.6195L10.2074 22.5678ZM10.9901 23.8878L11.7018 24.5902L12.5391 23.7419L11.5581 23.0648L10.9901 23.8878ZM10.9889 23.8889L10.2772 23.1865L9.48761 23.9866L10.3742 24.6776L10.9889 23.8889ZM12.9177 24.7126L12.7744 25.7024L12.7816 25.7033L12.9177 24.7126ZM14.0514 24.7126L14.1771 25.7047L14.186 25.7036L14.1949 25.7023L14.0514 24.7126ZM15.979 23.8889L16.5938 24.6776L17.4805 23.9865L16.6906 23.1864L15.979 23.8889ZM15.9779 23.8878L15.4098 23.0648L14.4287 23.742L15.2662 24.5903L15.9779 23.8878ZM16.7605 22.5678L17.7592 22.6195L17.7605 22.5937V22.5678H16.7605ZM15.9687 20.654C15.726 20.6022 15.3125 20.5792 14.9271 20.5651C14.5026 20.5495 13.9912 20.5419 13.484 20.5419C12.9768 20.5419 12.4654 20.5495 12.0408 20.5651C11.6555 20.5792 11.242 20.6022 10.9993 20.654L11.4169 22.6099C11.4154 22.6102 11.4715 22.6007 11.6176 22.5897C11.7486 22.5798 11.9168 22.571 12.1141 22.5637C12.5079 22.5493 12.9938 22.5419 13.484 22.5419C13.9741 22.5419 14.4601 22.5493 14.8538 22.5637C15.0511 22.571 15.2193 22.5798 15.3503 22.5897C15.4964 22.6007 15.5525 22.6102 15.551 22.6099L15.9687 20.654ZM10.9831 20.6576C10.6737 20.729 10.2631 20.8652 9.90981 21.1426C9.52294 21.4464 9.2074 21.9251 9.2074 22.5678H11.2074C11.2074 22.5859 11.2016 22.6255 11.1788 22.6683C11.1583 22.7067 11.1387 22.7206 11.1451 22.7155C11.1533 22.7091 11.1803 22.6907 11.2349 22.6679C11.2885 22.6454 11.3554 22.6242 11.4331 22.6063L10.9831 20.6576ZM9.20873 22.6195C9.25565 23.5266 9.77882 24.2669 10.422 24.7108L11.5581 23.0648C11.3247 22.9037 11.2151 22.69 11.2061 22.5162L9.20873 22.6195ZM10.2783 23.1854L10.2772 23.1865L11.7007 24.5914L11.7018 24.5902L10.2783 23.1854ZM10.3742 24.6776C11.0784 25.2266 11.9063 25.5767 12.7744 25.7023L13.0609 23.723C12.5359 23.647 12.0332 23.435 11.6037 23.1002L10.3742 24.6776ZM12.7816 25.7033C13.2484 25.7675 13.7148 25.7633 14.1771 25.7047L13.9257 23.7206C13.6188 23.7595 13.3294 23.7598 13.0537 23.7219L12.7816 25.7033ZM14.1949 25.7023C15.0618 25.5766 15.8896 25.2265 16.5938 24.6776L15.3642 23.1002C14.9346 23.4351 14.4319 23.647 13.9079 23.723L14.1949 25.7023ZM16.6906 23.1864L16.6895 23.1853L15.2662 24.5903L15.2674 24.5915L16.6906 23.1864ZM16.5459 24.7108C17.1891 24.2669 17.7123 23.5266 17.7592 22.6195L15.7619 22.5162C15.7529 22.69 15.6432 22.9037 15.4098 23.0648L16.5459 24.7108ZM17.7605 22.5678C17.7605 21.9251 17.445 21.4464 17.0581 21.1426C16.7048 20.8652 16.2943 20.729 15.9849 20.6576L15.5348 22.6063C15.6125 22.6242 15.6794 22.6454 15.733 22.6679C15.7877 22.6907 15.8146 22.7091 15.8228 22.7155C15.8293 22.7206 15.8096 22.7067 15.7892 22.6683C15.7664 22.6255 15.7605 22.5859 15.7605 22.5678H17.7605Z" fill="#3E0080" mask="url(#path-3-inside-1)"/>
</g>
<circle cx="22" cy="6" r="6" fill="#FF3131"/>
<path d="M19.4085 9H24.6769V7.79464H21.3923V7.73438L22.909 6.34821C24.1596 5.1981 24.5765 4.62556 24.5765 3.74665V3.73661C24.5765 2.50112 23.5218 1.62723 21.99 1.62723C20.4581 1.62723 19.3231 2.5865 19.3231 3.95257V3.99275H20.7294L20.7344 3.94754C20.7545 3.29464 21.2567 2.80748 22 2.80748C22.6429 2.80748 23.0949 3.22935 23.0999 3.82199V3.83203C23.0999 4.33426 22.904 4.69085 21.9699 5.56473L19.4085 7.96038V9Z" fill="white"/>
<defs>
<radialGradient id="paint0_radial" cx="0" cy="0" r="1" gradientUnits="userSpaceOnUse" gradientTransform="translate(13.5 11.2462) rotate(90) scale(8.99624 9.5625)">
<stop stop-color="#3E0080" stop-opacity="0"/>
<stop offset="1" stop-color="#3E0080" stop-opacity="0.54"/>
</radialGradient>
<radialGradient id="paint1_radial" cx="0" cy="0" r="1" gradientUnits="userSpaceOnUse" gradientTransform="translate(13.484 23.146) rotate(90) scale(1.60409 3.27657)">
<stop stop-color="#3E0080" stop-opacity="0"/>
<stop offset="1" stop-color="#3E0080" stop-opacity="0.54"/>
</radialGradient>
</defs>
</svg>
