<svg width="61" height="69" viewBox="0 0 61 69" fill="none" xmlns="http://www.w3.org/2000/svg">
<g clip-path="url(#clip0)">
<path d="M42.6909 10.8098C42.5395 10.8695 39.9046 11.1496 38.9065 15.582C38.045 19.4054 41.5341 16.3774 41.5341 16.3774L42.6909 10.8098Z" fill="#F7B686"/>
<path d="M46.0063 62.8623C46.0063 62.8623 45.9719 64.2131 45.0488 64.5943C44.1258 64.9756 41.4502 65.3191 42.4496 66.1875C43.0231 66.6857 45.7269 66.3641 46.49 66.3641C47.253 66.3641 47.9668 66.693 48.5366 66.1875C49.1606 65.6309 48.5366 62.8623 48.5366 62.8623C48.5366 62.8623 47.8782 63.2021 47.2862 63.1875C46.4321 63.1656 46.0063 62.8623 46.0063 62.8623Z" fill="#2F1A31"/>
<path d="M56.6101 62.8623C56.6101 62.8623 56.5756 64.2131 55.6526 64.5943C54.7295 64.9756 52.054 65.3191 53.0533 66.1875C53.6268 66.6857 56.3307 66.3629 57.0937 66.3629C57.8568 66.3629 58.5706 66.693 59.1416 66.1875C59.7656 65.6309 59.1416 62.8623 59.1416 62.8623C59.1416 62.8623 58.4832 63.2021 57.8912 63.1875C57.0371 63.1656 56.6101 62.8623 56.6101 62.8623Z" fill="#2F1A31"/>
<path d="M39.1443 25.8391C39.1443 25.8391 38.9732 31.4932 40.7959 42.3373C42.1127 50.1668 43.6659 58.0559 44.4289 61.8379C44.5538 62.4894 44.8967 63.0802 45.4025 63.5151C45.9082 63.95 46.5472 64.2036 47.2165 64.235L47.9549 64.263C49.4318 64.3214 50.6243 63.0693 50.5172 61.5833L48.6712 35.9938L48.201 27.5699L39.1443 25.8391Z" fill="#436E8E"/>
<path d="M55.8199 30.8159C55.7362 31.5041 51.8053 31.4249 46.992 30.8159C42.1787 30.2069 38.4325 29.1813 38.5161 28.4931C38.5998 27.805 42.484 27.7209 47.296 28.3238C52.1081 28.9268 55.9048 30.1265 55.8199 30.8159Z" fill="#2F1A31"/>
<path d="M44.6698 29.8768L54.9449 62.5455C55.1467 63.2065 55.5542 63.7876 56.1094 64.2058C56.6646 64.624 57.339 64.858 58.0365 64.8744L58.6518 64.8854C60.1115 64.9097 61.2265 63.5809 60.9606 62.1192L55.3388 31.4249C55.2996 31.2475 55.2131 31.0837 55.0882 30.9507C54.9633 30.8176 54.8046 30.7202 54.6287 30.6685C52.7026 30.1204 44.4802 28.526 44.6698 29.8768Z" fill="#436E8E"/>
<path d="M54.2138 12.0061C54.2138 12.0061 52.8465 8.19856 47.9753 8.37274C43.1042 8.54692 39.4281 14.8794 38.5161 28.4933C38.5161 28.4933 46.4923 26.7625 55.8346 30.8003C55.8309 30.8003 56.3528 17.5554 54.2138 12.0061Z" fill="#96A7E2"/>
<path d="M57.8164 12.3435L54.1834 13.9623C54.1834 13.9623 44.6503 16.0877 42.296 15.6675C39.9416 15.2473 38.7048 13.0816 38.7048 13.0816C38.7048 13.0816 42.4793 9.24362 46.7413 8.48844C47.1492 8.42891 47.56 8.39109 47.972 8.37517C48.6903 8.32711 49.4114 8.3426 50.1269 8.42145C56.1402 9.06457 57.8164 12.3435 57.8164 12.3435Z" fill="#96A7E2"/>
<path d="M49.2613 44.4786L49.4312 44.4262L47.2159 37.777C46.7159 36.254 45.6637 34.9683 44.2622 34.168L44.176 34.3166C45.5416 35.0953 46.5672 36.3472 47.0547 37.8306L49.2613 44.4786Z" fill="#020202"/>
<path d="M44.6313 7.52374L44.6449 7.47015C44.6449 7.47015 44.0185 7.31789 43.8425 6.89889C43.7514 6.68208 43.7945 6.42752 43.9655 6.14372C44.048 6.00973 44.1243 5.88915 44.1944 5.77831C44.6781 5.01582 44.859 4.72959 44.7273 4.10596L44.672 4.11692C44.795 4.72593 44.635 4.97928 44.1464 5.74908C44.0763 5.85992 44 5.9805 43.9175 6.11448C43.7305 6.41412 43.6849 6.68574 43.7846 6.92082C43.9803 7.36662 44.6092 7.51765 44.6313 7.52374Z" fill="#E28569"/>
<path d="M44.7092 4.11206C44.8153 4.80138 44.662 5.50524 44.2785 6.09014C43.6311 7.10232 44.3351 7.84166 45.2126 7.45189C46.0901 7.06212 46.4224 8.16931 47.5435 7.55786C48.6647 6.94641 44.7092 4.11206 44.7092 4.11206Z" fill="#E28569"/>
<path d="M49.8893 8.38609C49.6514 8.36193 49.4244 8.27552 49.2314 8.13573C49.0385 7.99595 48.8866 7.80783 48.7915 7.59072L48.1885 6.20339L48.0125 5.80144L46.9836 3.43359L47.162 5.8867L47.2691 7.36051L47.2999 7.77951C47.3115 7.94481 47.2608 8.1085 47.1576 8.23898C47.0545 8.36945 46.9061 8.45745 46.7411 8.48597C46.5578 8.78073 46.3055 9.38 47.0611 9.61873C47.9497 9.89888 49.3872 9.20582 49.9028 8.38609H49.8893Z" fill="#F7B686"/>
<path d="M48.1908 6.16321C48.1908 6.17661 48.1908 6.19001 48.1908 6.2034C48.1317 6.99512 47.2763 7.36418 47.2763 7.36418L47.1693 5.89037C47.4302 5.79658 47.8019 5.69914 48.0197 5.80511C48.0819 5.84015 48.1318 5.89333 48.1624 5.95741C48.193 6.02149 48.2029 6.09335 48.1908 6.16321Z" fill="#2F1A31"/>
<path d="M46.87 6.66987C45.5833 6.66987 44.5402 5.39653 44.5402 3.82578C44.5402 2.25503 45.5833 0.981689 46.87 0.981689C48.1567 0.981689 49.1997 2.25503 49.1997 3.82578C49.1997 5.39653 48.1567 6.66987 46.87 6.66987Z" fill="#F7B686"/>
<path d="M48.889 4.25449C48.6244 4.4981 48.2552 4.52977 48.0645 4.31174C47.8737 4.09371 47.9315 3.71612 48.1961 3.46643C48.4608 3.21673 48.8287 3.19115 49.0195 3.4104C49.2103 3.62964 49.1524 4.00601 48.889 4.25449Z" fill="#F7B686"/>
<path d="M45.6165 5.66618C46.1575 5.66488 46.6947 5.5777 47.2078 5.40796C47.2078 5.40796 47.2743 6.18384 46.4115 6.23622C45.9106 6.26667 45.6165 5.66618 45.6165 5.66618Z" fill="#DB6B49"/>
<path d="M45.6162 5.66618C45.6162 5.66618 45.8082 5.82452 46.2574 5.82209C46.7066 5.81965 47.2075 5.40796 47.2075 5.40796C47.2075 5.40796 46.2488 5.66862 45.6162 5.66618Z" fill="white"/>
<path d="M46.645 3.85377C46.6371 3.85132 46.6298 3.84723 46.6237 3.84176C46.6175 3.8363 46.6126 3.82959 46.6093 3.8221C46.6067 3.8157 46.6054 3.80886 46.6055 3.80197C46.6055 3.79507 46.607 3.78826 46.6097 3.78192C46.6125 3.77559 46.6165 3.76985 46.6215 3.76504C46.6265 3.76023 46.6324 3.75644 46.6388 3.75389C46.754 3.70045 46.8838 3.68641 47.0079 3.71397C47.132 3.74153 47.2433 3.80913 47.3243 3.90614C47.3292 3.91091 47.3331 3.91659 47.3358 3.92286C47.3385 3.92914 47.3398 3.93588 47.3398 3.94268C47.3398 3.94949 47.3385 3.95623 47.3358 3.9625C47.3331 3.96878 47.3292 3.97446 47.3243 3.97922C47.3139 3.98806 47.3006 3.99291 47.2868 3.99291C47.273 3.99291 47.2597 3.98806 47.2493 3.97922C47.0779 3.87793 46.8777 3.83514 46.6794 3.85742C46.6679 3.86016 46.6557 3.85887 46.645 3.85377Z" fill="#060633"/>
<path d="M47.0649 4.42979C47.0649 4.55159 46.9973 4.65877 46.9062 4.66121C46.8151 4.66365 46.7363 4.56499 46.7327 4.44075C46.729 4.31651 46.7991 4.21176 46.8914 4.2081C46.9837 4.20445 47.06 4.30433 47.0649 4.42979Z" fill="#060633"/>
<path d="M44.7548 4.12664C44.7468 4.12792 44.7386 4.12725 44.7308 4.12471C44.7231 4.12216 44.7161 4.11781 44.7105 4.11202C44.7008 4.10204 44.6954 4.08872 44.6954 4.07487C44.6954 4.06102 44.7008 4.04771 44.7105 4.03772C44.796 3.9443 44.9105 3.88164 45.0359 3.8596C45.1613 3.83755 45.2906 3.85736 45.4034 3.91592C45.4161 3.92175 45.426 3.93233 45.4308 3.94534C45.4357 3.95836 45.4351 3.97275 45.4292 3.98535C45.4229 3.99754 45.4122 4.007 45.3993 4.01194C45.3864 4.01688 45.3721 4.01695 45.3591 4.01214C45.1619 3.98085 44.9598 4.01512 44.7843 4.10959C44.7767 4.11842 44.7663 4.12444 44.7548 4.12664Z" fill="#060633"/>
<path d="M45.3639 4.50657C45.3915 4.55089 45.4009 4.60402 45.3902 4.65501C45.3794 4.706 45.3493 4.75096 45.306 4.78063C45.2224 4.81717 45.1116 4.75505 45.0599 4.64177C45.0323 4.59745 45.0228 4.54431 45.0336 4.49333C45.0444 4.44234 45.0745 4.39738 45.1177 4.36771C45.2014 4.32508 45.311 4.38477 45.3639 4.50657Z" fill="#060633"/>
<path d="M45.8805 1.4981C45.8805 1.4981 45.931 2.4847 47.1764 2.65279C48.4219 2.82088 49.2797 3.34219 49.1136 4.23013C48.9474 5.11808 46.9389 6.95973 48.4133 7.6735C49.8877 8.38726 49.5751 7.05717 51.1738 7.36534C52.7725 7.6735 53.0617 5.559 51.9602 4.33245C50.8587 3.1059 51.3054 -0.138928 47.1764 -7.30655e-05C43.0474 0.138782 44.5599 3.4104 44.5599 3.4104C44.5599 3.4104 45.883 2.58702 45.8805 1.4981Z" fill="#E28569"/>
<path d="M48.8394 7.85497L48.8517 7.82452C48.5465 7.70272 48.3681 7.52976 48.3041 7.29712C48.1269 6.65156 48.8997 5.65887 49.5828 4.78311C49.7637 4.55046 49.9348 4.33122 50.0874 4.1205C50.5095 3.53707 50.5464 2.84035 50.1846 2.30321C49.7822 1.70637 49.0167 1.45059 48.1872 1.64425C47.386 1.82817 46.8334 1.66252 46.5134 1.49078C46.3155 1.39001 46.1424 1.24738 46.0064 1.073L45.978 1.09127C46.117 1.27076 46.2944 1.41759 46.4974 1.52123C46.8235 1.69419 47.3823 1.86228 48.1946 1.67592C49.0068 1.48956 49.7612 1.73682 50.1563 2.32148C50.5169 2.85497 50.48 3.52123 50.0603 4.10223C49.9089 4.31051 49.7379 4.52976 49.5569 4.7624C48.869 5.64425 48.0899 6.64425 48.2709 7.30808C48.3373 7.55168 48.5281 7.73073 48.8394 7.85497Z" fill="white"/>
<path d="M44.9159 5.99007C45.0425 5.99029 45.1664 5.95434 45.2728 5.88653C45.7737 5.57837 45.962 4.6478 45.6937 3.81589C45.5288 3.30553 45.2212 2.92186 44.8716 2.79518C44.7732 2.75659 44.6669 2.74187 44.5616 2.75226C44.4562 2.76264 44.3549 2.79782 44.2661 2.85486C43.7652 3.16059 43.5757 4.09116 43.8452 4.92551C44.0101 5.4383 44.3178 5.82076 44.6673 5.94865C44.7472 5.97646 44.8313 5.99047 44.9159 5.99007ZM45.5941 3.84512C45.85 4.63684 45.6802 5.51503 45.2175 5.80127C45.1413 5.84813 45.0553 5.87691 44.966 5.88537C44.8768 5.89382 44.7868 5.88171 44.703 5.84999C44.383 5.72819 44.0988 5.37374 43.9437 4.89262C43.6889 4.09847 43.8575 3.22149 44.3203 2.93647C44.3963 2.88944 44.4824 2.86055 44.5717 2.85209C44.661 2.84364 44.751 2.85584 44.8347 2.88775C45.1559 3.00955 45.439 3.36156 45.5941 3.84512Z" fill="#6F4975"/>
<g opacity="0.3">
<path opacity="0.3" d="M48.3876 3.27024C48.5747 4.08267 48.2756 4.95356 47.7206 5.21909C47.1655 5.48461 46.5637 5.0376 46.3766 4.22518C46.1896 3.41275 46.4886 2.54186 47.0437 2.27633C47.5987 2.0108 48.2005 2.45782 48.3876 3.27024Z" fill="white"/>
</g>
<g opacity="0.3">
<path opacity="0.3" d="M45.7157 3.88169C45.9028 4.69655 45.653 5.58693 45.1582 5.85733C44.6635 6.12773 44.1097 5.69411 43.9275 4.88291C43.7454 4.0717 43.989 3.17767 44.485 2.90727C44.981 2.63686 45.5287 3.06561 45.7157 3.88169Z" fill="white"/>
</g>
<path d="M47.3282 5.31906C47.4562 5.31812 47.5823 5.289 47.6975 5.23379C48.3128 4.94999 48.6426 4.01577 48.4359 3.14488C48.3128 2.64062 48.0457 2.25206 47.6888 2.08032C47.5712 2.02267 47.4417 1.99268 47.3104 1.99268C47.1791 1.99268 47.0496 2.02267 46.932 2.08032C46.3166 2.36412 45.9892 3.29835 46.1935 4.16924C46.3166 4.67472 46.5849 5.06327 46.943 5.23501C47.0634 5.29132 47.1951 5.32004 47.3282 5.31906ZM47.3073 2.09129C47.4253 2.09195 47.5415 2.11946 47.647 2.17167C47.9707 2.3288 48.2303 2.70152 48.3399 3.16802C48.5331 3.99141 48.2267 4.87326 47.6568 5.14122C47.5529 5.19025 47.4391 5.21569 47.3239 5.21569C47.2087 5.21569 47.095 5.19025 46.991 5.14122C46.6661 4.98653 46.4064 4.6126 46.2969 4.14366C46.1037 3.32149 46.4101 2.43842 46.98 2.17046C47.0819 2.12074 47.1937 2.09372 47.3073 2.09129Z" fill="#6F4975"/>
<path d="M45.6066 4.18495C45.629 4.1847 45.6507 4.17698 45.6681 4.16303C45.7686 4.09544 45.8824 4.04964 46.002 4.02865C46.1216 4.00765 46.2444 4.01194 46.3622 4.04123C46.3873 4.04526 46.4129 4.0397 46.4339 4.02566C46.455 4.01163 46.4698 3.99019 46.4754 3.96571C46.4781 3.95345 46.4782 3.94078 46.4758 3.92847C46.4734 3.91616 46.4684 3.90446 46.4613 3.8941C46.4542 3.88373 46.445 3.87491 46.4343 3.86817C46.4236 3.86142 46.4116 3.8569 46.3991 3.85487C46.2524 3.8183 46.0994 3.81363 45.9507 3.84117C45.802 3.86872 45.6611 3.92783 45.5376 4.01443C45.5221 4.02708 45.5109 4.04419 45.5056 4.0634C45.5003 4.0826 45.5012 4.10296 45.5081 4.12167C45.515 4.14038 45.5275 4.15651 45.5441 4.16785C45.5606 4.17918 45.5803 4.18516 45.6004 4.18495H45.6066Z" fill="#6F4975"/>
<path d="M57.8161 12.3435C57.8703 12.7089 56.6556 13.2132 55.1086 13.4812C53.5616 13.7491 52.2558 13.6773 52.2016 13.3167C52.1475 12.9562 53.3622 12.4471 54.9092 12.1791C56.4562 11.9111 57.7632 11.983 57.8161 12.3435Z" fill="#2F1A31"/>
<path d="M51.9507 30.0694C51.9507 30.0694 42.345 28.2581 39.2301 29.1108L40.7242 31.3032L46.2759 31.615L51.9507 30.0694Z" fill="#436E8E"/>
<path d="M1.95338 66.1509C2.00254 66.1426 2.04825 66.1205 2.08512 66.0872C2.12198 66.054 2.14844 66.011 2.16137 65.9633L9.15671 43.4152C9.19363 43.2776 8.20291 43.1363 8.06384 43.0998C8.03071 43.0907 7.99609 43.0883 7.96201 43.0927C7.92793 43.097 7.89506 43.108 7.86529 43.125C7.83553 43.142 7.80947 43.1646 7.78863 43.1917C7.76778 43.2187 7.75256 43.2496 7.74386 43.2825L1.65678 65.8294C1.64785 65.8621 1.64554 65.8964 1.64999 65.93C1.65444 65.9637 1.66556 65.9962 1.6827 66.0256C1.69985 66.055 1.72269 66.0808 1.74992 66.1015C1.77715 66.1221 1.80823 66.1373 1.84139 66.146C1.87794 66.1555 1.91612 66.1572 1.95338 66.1509Z" fill="#2F1A31"/>
<path d="M26.5596 68.989C26.6075 68.9743 26.6501 68.9463 26.6824 68.9083C26.7147 68.8703 26.7353 68.8239 26.7417 68.7747L30.7243 45.5213C30.744 45.38 29.7398 45.3666 29.5995 45.3483C29.5655 45.3437 29.5309 45.3458 29.4978 45.3545C29.4647 45.3631 29.4336 45.3782 29.4063 45.3988C29.3791 45.4194 29.3563 45.4451 29.3391 45.4745C29.322 45.5039 29.3109 45.5364 29.3065 45.57L26.2175 68.7125C26.213 68.7462 26.2152 68.7804 26.2241 68.8133C26.233 68.8461 26.2484 68.8768 26.2693 68.9037C26.2902 68.9307 26.3163 68.9532 26.3461 68.9702C26.3758 68.9871 26.4086 68.9981 26.4427 69.0024C26.4822 69.0063 26.5221 69.0017 26.5596 68.989Z" fill="#2F1A31"/>
<path d="M41.0909 64.3203C41.0242 64.3014 40.964 64.2649 40.9167 64.2147C40.8695 64.1644 40.8369 64.1024 40.8226 64.0353L34.2125 33.5578C34.1792 33.3727 35.6019 33.3958 35.8038 33.3763C35.8999 33.3659 35.9965 33.391 36.075 33.4468C36.1536 33.5025 36.2086 33.585 36.2296 33.6784L41.5549 63.9671C41.5613 64.0114 41.5582 64.0567 41.5458 64.0998C41.5335 64.1429 41.5121 64.183 41.4831 64.2174C41.4541 64.2519 41.4181 64.2799 41.3775 64.2997C41.3368 64.3195 41.2924 64.3307 41.2472 64.3325C41.1948 64.3382 41.1417 64.334 41.0909 64.3203Z" fill="#2F1A31"/>
<path d="M39.5491 13.0206L12.4563 11.531C12.0694 11.5098 11.6861 11.6146 11.365 11.8292C11.0439 12.0439 10.8026 12.3567 10.678 12.7198L0.0938721 43.6138C0.0187225 43.8332 -0.0117989 44.0652 0.0040741 44.2963C0.0199471 44.5275 0.0819016 44.7532 0.186356 44.9605C0.290813 45.1679 0.435707 45.3527 0.612686 45.5043C0.789665 45.656 0.995224 45.7714 1.21751 45.844L31.9852 55.894C32.2272 55.9731 32.4835 55.9997 32.7368 55.9719C32.9901 55.9441 33.2344 55.8626 33.4529 55.7329C33.6715 55.6032 33.8592 55.4283 34.0033 55.2203C34.1474 55.0122 34.2444 54.7759 34.2878 54.5273L41.1983 15.073C41.2408 14.829 41.2308 14.5788 41.1687 14.339C41.1067 14.0991 40.9942 13.8749 40.8384 13.681C40.6827 13.4872 40.4873 13.3282 40.2651 13.2144C40.0429 13.1006 39.7989 13.0346 39.5491 13.0206Z" fill="#6F4975"/>
<path d="M37.7127 13.8854L12.9004 12.5029C12.5443 12.4845 12.1919 12.5825 11.8976 12.782C11.6033 12.9814 11.3836 13.2711 11.2722 13.6065L1.57915 42.2654C1.43829 42.675 1.46754 43.1233 1.66047 43.5115C1.8534 43.8998 2.19423 44.1964 2.60802 44.3361L30.7801 53.6515C31.003 53.7241 31.239 53.748 31.472 53.7215C31.7051 53.6951 31.9296 53.6191 32.13 53.4986C32.3305 53.378 32.5022 53.216 32.6333 53.0235C32.7645 52.831 32.8519 52.6127 32.8896 52.3836L39.2166 15.7879C39.2567 15.5636 39.2486 15.3334 39.1929 15.1123C39.1372 14.8913 39.0351 14.6843 38.8933 14.5048C38.7514 14.3254 38.573 14.1775 38.3696 14.0708C38.1662 13.964 37.9424 13.9009 37.7127 13.8854Z" fill="#BED5DC"/>
<path d="M25.2899 38.9657L30.7788 40.2398C30.855 40.257 30.935 40.2437 31.0013 40.2029C31.0677 40.1621 31.1151 40.097 31.1333 40.0218L31.8717 36.8853C31.8894 36.8102 31.8763 36.7313 31.8352 36.6657C31.7941 36.6002 31.7285 36.5534 31.6526 36.5358L26.171 35.2617C26.095 35.2446 26.0152 35.2578 25.949 35.2987C25.8829 35.3395 25.8357 35.4046 25.8178 35.4797L25.0794 38.6162C25.0614 38.6901 25.0733 38.7681 25.1127 38.8334C25.152 38.8987 25.2156 38.9462 25.2899 38.9657Z" fill="#E28569"/>
<path d="M26.6328 37.4823L30.3988 38.3569C30.4495 38.3637 30.5011 38.3559 30.5475 38.3342C30.5938 38.3126 30.6327 38.2782 30.6597 38.235C30.6694 38.2065 30.6726 38.1762 30.669 38.1463C30.6653 38.1164 30.655 38.0876 30.6387 38.0622C30.6225 38.0367 30.6006 38.0152 30.5749 37.9992C30.5491 37.9831 30.5201 37.973 30.4898 37.9695L26.7042 37.1778C26.6641 37.169 26.6221 37.176 26.5871 37.1974C26.5522 37.2188 26.527 37.2528 26.5171 37.2923C26.5118 37.3123 26.5106 37.3331 26.5135 37.3536C26.5165 37.3741 26.5236 37.3938 26.5344 37.4115C26.5452 37.4292 26.5594 37.4446 26.5763 37.4568C26.5932 37.4689 26.6124 37.4776 26.6328 37.4823Z" fill="#DEEBE9"/>
<path d="M27.7709 37.0096L30.6138 37.6685C30.6526 37.6736 30.6921 37.6672 30.7273 37.6503C30.7625 37.6335 30.7919 37.6068 30.812 37.5735C30.8203 37.5517 30.8237 37.5284 30.8217 37.5052C30.8198 37.482 30.8127 37.4595 30.801 37.4393C30.7892 37.4191 30.773 37.4018 30.7536 37.3886C30.7343 37.3753 30.7122 37.3665 30.6889 37.3628L27.83 36.7696C27.7985 36.7638 27.7661 36.7704 27.7394 36.7879C27.7128 36.8054 27.694 36.8325 27.6872 36.8634C27.6795 36.8938 27.684 36.9259 27.6995 36.9531C27.7151 36.9803 27.7407 37.0005 27.7709 37.0096Z" fill="#DEEBE9"/>
<path d="M27.444 38.4154L30.2869 39.0743C30.3258 39.0793 30.3654 39.0729 30.4008 39.0561C30.4362 39.0392 30.4659 39.0125 30.4863 38.9793C30.4944 38.9575 30.4975 38.9342 30.4955 38.9111C30.4935 38.8879 30.4864 38.8655 30.4746 38.8454C30.4629 38.8253 30.4468 38.808 30.4275 38.7947C30.4083 38.7815 30.3863 38.7725 30.3632 38.7686L27.5043 38.1754C27.473 38.17 27.4408 38.1767 27.4144 38.1942C27.3881 38.2117 27.3695 38.2385 27.3627 38.2692C27.3549 38.2992 27.359 38.3311 27.3741 38.3582C27.3892 38.3854 27.4142 38.4058 27.444 38.4154Z" fill="#DEEBE9"/>
<path d="M9.53666 34.8684L13.3519 35.7527C13.378 35.7589 13.405 35.7599 13.4315 35.7557C13.458 35.7515 13.4834 35.7422 13.5063 35.7283C13.5291 35.7144 13.549 35.6961 13.5647 35.6746C13.5805 35.6531 13.5918 35.6288 13.598 35.6029L14.11 33.4227C14.1222 33.3703 14.113 33.3154 14.0844 33.2697C14.0558 33.2241 14.0101 33.1915 13.9574 33.179L10.1422 32.2948C10.0893 32.2827 10.0338 32.2918 9.98766 32.3201C9.94155 32.3484 9.90861 32.3936 9.89603 32.4458L9.37914 34.6248C9.36742 34.6778 9.37743 34.7332 9.40697 34.7789C9.4365 34.8246 9.48315 34.8568 9.53666 34.8684Z" fill="#74A1BD"/>
<path d="M10.4695 33.8379L13.0872 34.4469C13.122 34.4522 13.1576 34.4475 13.1897 34.4332C13.2218 34.419 13.249 34.3958 13.2681 34.3665C13.2749 34.3464 13.277 34.3249 13.2742 34.3039C13.2713 34.2828 13.2637 34.2626 13.2519 34.2449C13.24 34.2272 13.2242 34.2124 13.2057 34.2016C13.1872 34.1908 13.1665 34.1843 13.1451 34.1826L10.5138 33.6321C10.4861 33.6258 10.457 33.6306 10.4328 33.6454C10.4086 33.6603 10.3913 33.6839 10.3846 33.7112C10.3791 33.7391 10.385 33.7681 10.4009 33.7918C10.4167 33.8155 10.4414 33.832 10.4695 33.8379Z" fill="#DEEBE9"/>
<path d="M11.2646 33.5078L13.2411 33.967C13.2682 33.9703 13.2957 33.9658 13.3202 33.9539C13.3446 33.942 13.3651 33.9233 13.379 33.9001C13.3849 33.8848 13.3872 33.8684 13.3858 33.8522C13.3845 33.8359 13.3794 33.8201 13.371 33.8061C13.3626 33.792 13.3511 33.78 13.3373 33.771C13.3236 33.762 13.308 33.7561 13.2916 33.7539L11.3052 33.3422C11.2944 33.3399 11.2832 33.3397 11.2723 33.3417C11.2614 33.3437 11.251 33.3478 11.2418 33.3538C11.2325 33.3599 11.2245 33.3676 11.2183 33.3767C11.2121 33.3858 11.2077 33.396 11.2056 33.4068C11.1999 33.4279 11.203 33.4504 11.214 33.4694C11.2251 33.4883 11.2433 33.5021 11.2646 33.5078Z" fill="#DEEBE9"/>
<path d="M11.0332 34.4859L13.0097 34.9439C13.0368 34.9473 13.0643 34.9428 13.0888 34.9309C13.1133 34.919 13.1338 34.9002 13.1475 34.8769C13.1534 34.8616 13.1558 34.8453 13.1544 34.829C13.153 34.8127 13.1479 34.797 13.1395 34.7829C13.1311 34.7689 13.1196 34.7569 13.1059 34.7478C13.0921 34.7388 13.0765 34.7329 13.0602 34.7307L11.0738 34.319C11.0519 34.3147 11.0292 34.319 11.0106 34.3311C10.9919 34.3432 10.9788 34.362 10.9741 34.3836C10.9684 34.4049 10.9714 34.4276 10.9825 34.4467C10.9935 34.4658 11.0117 34.4799 11.0332 34.4859Z" fill="#DEEBE9"/>
<path d="M23.2171 45.7784L30.9349 47.5689C31.041 47.5916 31.1519 47.5723 31.2439 47.5152C31.3359 47.4581 31.4016 47.3676 31.4271 47.2631L32.4708 42.8539C32.4941 42.749 32.4749 42.6392 32.4174 42.5481C32.3599 42.457 32.2686 42.3919 32.1631 42.3667L24.4478 40.5713C24.3416 40.5483 24.2306 40.5674 24.1385 40.6246C24.0464 40.6817 23.9807 40.7724 23.9555 40.877L22.9107 45.2863C22.8862 45.3917 22.9046 45.5024 22.9619 45.5945C23.0193 45.6866 23.1109 45.7526 23.2171 45.7784Z" fill="#74A1BD"/>
<path d="M25.1003 43.6931L30.3924 44.9208C30.4631 44.9323 30.5358 44.923 30.6013 44.8942C30.6669 44.8655 30.7226 44.8184 30.7616 44.7589C30.8489 44.5323 30.6385 44.4129 30.5154 44.3849L25.1938 43.2729C25.1376 43.26 25.0784 43.2697 25.0293 43.2999C24.9802 43.33 24.9452 43.378 24.9317 43.4336C24.9254 43.4616 24.9247 43.4906 24.9298 43.5189C24.9349 43.5471 24.9456 43.5741 24.9612 43.5982C24.9769 43.6223 24.9973 43.6432 25.0212 43.6594C25.045 43.6757 25.0719 43.6872 25.1003 43.6931Z" fill="#DEEBE9"/>
<path d="M26.7092 43.0266L30.7053 43.9547C30.76 43.9615 30.8155 43.9524 30.865 43.9286C30.9146 43.9048 30.9562 43.8674 30.9847 43.8208C30.9962 43.7898 31.0006 43.7566 30.9976 43.7237C30.9946 43.6908 30.9842 43.659 30.9673 43.6306C30.9503 43.6022 30.9272 43.5778 30.8996 43.5593C30.8719 43.5408 30.8405 43.5286 30.8075 43.5236L26.7868 42.6904C26.7649 42.686 26.7423 42.6859 26.7203 42.6901C26.6984 42.6943 26.6775 42.7028 26.6589 42.715C26.6402 42.7272 26.6242 42.7429 26.6117 42.7613C26.5993 42.7797 26.5906 42.8003 26.5862 42.822C26.5804 42.8434 26.5791 42.8658 26.5822 42.8877C26.5854 42.9097 26.5929 42.9308 26.6043 42.9498C26.6158 42.9689 26.631 42.9855 26.649 42.9987C26.667 43.0119 26.6875 43.0214 26.7092 43.0266Z" fill="#DEEBE9"/>
<path d="M26.2398 45.0037L30.2322 45.9306C30.2869 45.9375 30.3424 45.9285 30.392 45.9047C30.4416 45.8809 30.4831 45.8434 30.5116 45.7966C30.5231 45.7657 30.5275 45.7327 30.5245 45.6998C30.5214 45.667 30.5111 45.6353 30.4941 45.6069C30.4771 45.5786 30.454 45.5543 30.4263 45.5359C30.3987 45.5176 30.3673 45.5055 30.3343 45.5007L26.3148 44.6663C26.2708 44.658 26.2253 44.6672 26.188 44.6918C26.1507 44.7164 26.1247 44.7545 26.1155 44.7979C26.1099 44.8195 26.1088 44.8419 26.112 44.864C26.1153 44.886 26.1229 44.9072 26.1344 44.9263C26.146 44.9454 26.1612 44.9621 26.1793 44.9754C26.1974 44.9887 26.2179 44.9983 26.2398 45.0037Z" fill="#DEEBE9"/>
<path d="M14.4507 16.0096L17.7392 16.3543C17.7844 16.3577 17.8293 16.3434 17.864 16.3145C17.8987 16.2856 17.9206 16.2444 17.925 16.1997L18.1256 14.3202C18.1301 14.2752 18.1165 14.2303 18.0877 14.1952C18.0589 14.16 18.0172 14.1376 17.9718 14.1327L14.6846 13.7892C14.6391 13.7847 14.5937 13.798 14.5581 13.8262C14.5224 13.8545 14.4994 13.8954 14.4938 13.9402L14.2932 15.8196C14.2905 15.8424 14.2924 15.8655 14.2989 15.8875C14.3055 15.9096 14.3164 15.9301 14.3311 15.9478C14.3458 15.9656 14.364 15.9802 14.3845 15.9908C14.4051 16.0014 14.4276 16.0078 14.4507 16.0096Z" fill="#74A1BD"/>
<path d="M15.123 15.0499L17.3789 15.2862C17.4085 15.2866 17.4377 15.2787 17.4629 15.2634C17.4882 15.2481 17.5086 15.226 17.5216 15.1997C17.5247 15.182 17.5238 15.1639 17.519 15.1467C17.5142 15.1294 17.5057 15.1134 17.4939 15.0998C17.4822 15.0862 17.4675 15.0753 17.4511 15.068C17.4346 15.0606 17.4167 15.0569 17.3986 15.0572L15.1365 14.8708C15.1125 14.8684 15.0886 14.8756 15.0699 14.8906C15.0512 14.9057 15.0393 14.9275 15.0368 14.9512C15.0358 14.9633 15.0373 14.9755 15.0411 14.987C15.0449 14.9986 15.051 15.0092 15.059 15.0184C15.067 15.0276 15.0768 15.0351 15.0878 15.0405C15.0988 15.0459 15.1108 15.0491 15.123 15.0499Z" fill="#DEEBE9"/>
<path d="M15.7529 14.6918L17.4562 14.8696C17.479 14.8691 17.5012 14.8623 17.5203 14.8501C17.5394 14.8378 17.5547 14.8205 17.5645 14.8002C17.5676 14.7867 17.5677 14.7728 17.5647 14.7594C17.5617 14.7459 17.5558 14.7333 17.5474 14.7224C17.5389 14.7114 17.5281 14.7025 17.5158 14.6961C17.5034 14.6898 17.4898 14.6862 17.4759 14.6857L15.7689 14.548C15.7502 14.5467 15.7317 14.5527 15.7174 14.5648C15.7031 14.5769 15.6942 14.5941 15.6926 14.6126C15.6905 14.6309 15.6956 14.6494 15.7068 14.6641C15.718 14.6789 15.7345 14.6888 15.7529 14.6918Z" fill="#DEEBE9"/>
<path d="M15.6631 15.5333L17.3664 15.7124C17.3893 15.7128 17.4119 15.7064 17.4312 15.694C17.4505 15.6816 17.4656 15.6639 17.4747 15.6429C17.4778 15.6296 17.4778 15.6157 17.4749 15.6023C17.4719 15.5889 17.466 15.5764 17.4575 15.5655C17.449 15.5547 17.4382 15.5459 17.4258 15.5397C17.4135 15.5335 17.3999 15.53 17.3861 15.5297L15.6791 15.3908C15.6603 15.3895 15.6418 15.3955 15.6275 15.4076C15.6132 15.4197 15.6043 15.4368 15.6028 15.4554C15.6006 15.4736 15.6058 15.4919 15.617 15.5064C15.6283 15.5209 15.6448 15.5306 15.6631 15.5333Z" fill="#DEEBE9"/>
<path d="M35.6674 11.7528C35.6674 11.7528 36.5486 11.3094 36.8095 12.279C37.1418 13.5128 36.6864 15.4117 36.1068 14.8368C35.9837 14.7053 35.804 13.7662 35.804 13.7662C35.804 13.7662 35.8434 15.5616 35.2416 15.4008C34.6398 15.24 34.6139 13.6517 34.6139 13.6517C34.6139 13.6517 34.4108 15.5567 33.905 15.2351C33.3992 14.9136 33.4324 13.6541 33.4324 13.6541C33.4324 13.6541 33.3007 15.3801 32.7223 14.9939C32.1439 14.6078 32.4762 13.2704 32.4873 12.6797C32.4873 12.1231 32.8897 12.0293 33.4718 12.0475C33.5923 11.9326 33.7456 11.8571 33.9109 11.8312C34.0762 11.8053 34.2456 11.8302 34.3961 11.9026C34.529 11.9647 34.7481 11.7016 34.8539 11.687C35.1267 11.6527 35.4038 11.6752 35.6674 11.7528Z" fill="#F7B686"/>
<path d="M41.2239 19.6563C41.2239 19.6563 40.1384 17.8159 38.904 17.5686C37.6696 17.3214 35.9023 17.934 36.6346 18.2446C37.3668 18.5552 38.4166 18.7038 38.4166 18.7038C38.4166 18.7038 36.162 18.498 36.3417 19.04C36.5213 19.582 38.4782 19.744 38.4782 19.744C38.4782 19.744 35.7706 19.7099 36.114 20.1679C36.4573 20.6259 38.504 20.6381 38.504 20.6381C38.504 20.6381 35.9884 20.7051 36.3933 21.2288C36.7982 21.7526 38.4708 21.1594 38.6505 21.7026C38.8301 22.2459 39.7298 24.3396 41.3149 24.0303L41.2239 19.6563Z" fill="#F7B686"/>
<path d="M39.2684 19.0012L39.3423 18.9452C39.0961 18.6187 38.4414 18.6516 38.4131 18.6528L38.4193 18.7454C38.4193 18.7454 39.0469 18.7186 39.2684 19.0012Z" fill="#DD8964"/>
<path d="M39.5141 20.1046L39.5757 20.0364C39.1351 19.6539 38.5062 19.6953 38.4791 19.6978L38.4865 19.7891C38.4927 19.7891 39.1043 19.7489 39.5141 20.1046Z" fill="#DD8964"/>
<path d="M39.4625 20.9695L39.54 20.9195C39.3013 20.5541 38.5333 20.5907 38.5013 20.5919V20.6832C38.5186 20.6832 39.2582 20.6455 39.4625 20.9695Z" fill="#DD8964"/>
<path d="M44.8089 24.14C49.2591 24.14 52.6682 22.9804 54.9708 20.6783C58.434 17.2155 57.4322 12.5626 57.4015 12.3665C57.4015 12.3665 57.2464 11.9828 54.9068 12.3458C52.5672 12.7088 52.5796 13.2447 52.5796 13.2447C52.5796 13.2447 53.318 15.5687 51.5002 17.347C49.7403 19.0718 45.7799 20.1887 41.2238 19.6613L41.2484 24.062C42.4902 24.2021 43.6963 24.14 44.8089 24.14Z" fill="#F7B686"/>
<g opacity="0.5">
<path opacity="0.5" d="M51.83 21.9512C52.0177 21.9479 52.2018 21.8999 52.3666 21.8111C52.5639 21.712 52.727 21.5573 52.8355 21.3665C52.8878 21.2883 52.9177 21.1976 52.9223 21.1039C52.9268 21.0103 52.9057 20.9171 52.8612 20.8343C52.8167 20.7516 52.7505 20.6822 52.6695 20.6335C52.5886 20.5848 52.4958 20.5587 52.4011 20.5578C52.1807 20.5397 51.9598 20.5863 51.766 20.6917C51.3279 20.9232 51.1051 21.3604 51.2738 21.6662C51.3211 21.7466 51.388 21.814 51.4684 21.8623C51.5488 21.9106 51.6401 21.9382 51.734 21.9427C51.7659 21.9473 51.7979 21.9501 51.83 21.9512ZM52.3026 20.7198C52.3297 20.7198 52.3568 20.7198 52.3826 20.7198C52.45 20.7174 52.5167 20.7339 52.575 20.7673C52.6334 20.8007 52.6811 20.8497 52.7126 20.9086C52.7442 20.9676 52.7584 21.0341 52.7536 21.1006C52.7488 21.1672 52.7251 21.231 52.6854 21.2849C52.593 21.4463 52.4542 21.5769 52.2866 21.6601C52.1231 21.7499 51.9365 21.7902 51.75 21.7758C51.6836 21.7736 51.6187 21.7553 51.5612 21.7223C51.5037 21.6894 51.4552 21.6429 51.4202 21.587C51.2971 21.3604 51.4891 21.0231 51.846 20.8367C51.9864 20.7617 52.1431 20.7216 52.3026 20.7198Z" fill="#E08B65"/>
</g>
</g>
<defs>
<clipPath id="clip0">
<rect width="61" height="69" fill="white" transform="matrix(-1 0 0 1 61 0)"/>
</clipPath>
</defs>
</svg>
