<svg width="94" height="23" viewBox="0 0 94 23" fill="none" xmlns="http://www.w3.org/2000/svg">
<g filter="url(#filter0_i)">
<path d="M6.02357 23H12.54V5.98668H18.3801V0.822748H0.183404V5.98668H6.02357V23ZM20.1365 23H26.6529V15.7152H28.7891L32.2932 23H39.5781L35.367 14.7469C37.5186 13.7018 38.9326 11.2121 38.9326 8.4457V8.41496C38.9326 3.49693 35.8281 0.822748 30.1262 0.822748H20.1365V23ZM26.6529 11.1199V5.6332H29.3732C31.0945 5.6332 32.2932 6.75512 32.2932 8.36885V8.39959C32.2932 10.0287 31.1252 11.1199 29.3732 11.1199H26.6529ZM41.1193 23H47.6357V0.822748H41.1193V23ZM50.2373 23H55.9238V10.1516H56.0314L60.9801 23H64.4688L69.4176 10.1516H69.5252V23H75.2117V0.822748H67.6809L62.7783 14.0246H62.6707L57.768 0.822748H50.2373V23ZM77.8287 23H93.4742V17.8361H84.3451V14.3166H92.9055V9.52152H84.3451V5.98668H93.4742V0.822748H77.8287V23Z" fill="white"/>
</g>
<path d="M6.02357 23H5.50616V23.5174H6.02357V23ZM12.54 23V23.5174H13.0574V23H12.54ZM12.54 5.98668V5.46928H12.0226V5.98668H12.54ZM18.3801 5.98668V6.50409H18.8975V5.98668H18.3801ZM18.3801 0.822748H18.8975V0.305344H18.3801V0.822748ZM0.183404 0.822748V0.305344H-0.334V0.822748H0.183404ZM0.183404 5.98668H-0.334V6.50409H0.183404V5.98668ZM6.02357 5.98668H6.54097V5.46928H6.02357V5.98668ZM6.02357 23.5174H12.54V22.4826H6.02357V23.5174ZM13.0574 23V5.98668H12.0226V23H13.0574ZM12.54 6.50409H18.3801V5.46928H12.54V6.50409ZM18.8975 5.98668V0.822748H17.8627V5.98668H18.8975ZM18.3801 0.305344H0.183404V1.34015H18.3801V0.305344ZM-0.334 0.822748V5.98668H0.700808V0.822748H-0.334ZM0.183404 6.50409H6.02357V5.46928H0.183404V6.50409ZM5.50616 5.98668V23H6.54097V5.98668H5.50616ZM20.1365 23H19.6191V23.5174H20.1365V23ZM26.6529 23V23.5174H27.1703V23H26.6529ZM26.6529 15.7152V15.1978H26.1355V15.7152H26.6529ZM28.7891 15.7152L29.2554 15.4909L29.1144 15.1978H28.7891V15.7152ZM32.2932 23L31.827 23.2243L31.968 23.5174H32.2932V23ZM39.5781 23V23.5174H40.4229L40.0389 22.7648L39.5781 23ZM35.367 14.7469L35.1409 14.2815L34.6663 14.5121L34.9061 14.9821L35.367 14.7469ZM20.1365 0.822748V0.305344H19.6191V0.822748H20.1365ZM26.6529 11.1199H26.1355V11.6373H26.6529V11.1199ZM26.6529 5.6332V5.11579H26.1355V5.6332H26.6529ZM20.1365 23.5174H26.6529V22.4826H20.1365V23.5174ZM27.1703 23V15.7152H26.1355V23H27.1703ZM26.6529 16.2326H28.7891V15.1978H26.6529V16.2326ZM28.3229 15.9394L31.827 23.2243L32.7595 22.7757L29.2554 15.4909L28.3229 15.9394ZM32.2932 23.5174H39.5781V22.4826H32.2932V23.5174ZM40.0389 22.7648L35.8279 14.5118L34.9061 14.9821L39.1172 23.2352L40.0389 22.7648ZM35.5931 15.2123C37.9539 14.0656 39.45 11.3732 39.45 8.4457H38.4152C38.4152 11.051 37.0833 13.3381 35.1409 14.2815L35.5931 15.2123ZM39.45 8.4457V8.41496H38.4152V8.4457H39.45ZM39.45 8.41496C39.45 5.84226 38.6335 3.78602 37.0054 2.38268C35.3898 0.990144 33.0496 0.305344 30.1262 0.305344V1.34015C32.9047 1.34015 34.9677 1.99244 36.3298 3.1665C37.6794 4.32976 38.4152 6.06962 38.4152 8.41496H39.45ZM30.1262 0.305344H20.1365V1.34015H30.1262V0.305344ZM19.6191 0.822748V23H20.6539V0.822748H19.6191ZM27.1703 11.1199V5.6332H26.1355V11.1199H27.1703ZM26.6529 6.1506H29.3732V5.11579H26.6529V6.1506ZM29.3732 6.1506C30.1206 6.1506 30.7185 6.39283 31.125 6.77352C31.5289 7.15182 31.7758 7.69597 31.7758 8.36885H32.8106C32.8106 7.42801 32.4582 6.60433 31.8324 6.01824C31.2091 5.43454 30.347 5.11579 29.3732 5.11579V6.1506ZM31.7758 8.36885V8.39959H32.8106V8.36885H31.7758ZM31.7758 8.39959C31.7758 9.08484 31.5335 9.62292 31.1374 9.99221C30.7381 10.3645 30.1417 10.6025 29.3732 10.6025V11.6373C30.3566 11.6373 31.2203 11.3297 31.843 10.7491C32.469 10.1655 32.8106 9.34344 32.8106 8.39959H31.7758ZM29.3732 10.6025H26.6529V11.6373H29.3732V10.6025ZM41.1193 23H40.6019V23.5174H41.1193V23ZM47.6357 23V23.5174H48.1531V23H47.6357ZM47.6357 0.822748H48.1531V0.305344H47.6357V0.822748ZM41.1193 0.822748V0.305344H40.6019V0.822748H41.1193ZM41.1193 23.5174H47.6357V22.4826H41.1193V23.5174ZM48.1531 23V0.822748H47.1182V23H48.1531ZM47.6357 0.305344H41.1193V1.34015H47.6357V0.305344ZM40.6019 0.822748V23H41.6367V0.822748H40.6019ZM50.2373 23H49.7199V23.5174H50.2373V23ZM55.9238 23V23.5174H56.4412V23H55.9238ZM55.9238 10.1516V9.63424H55.4064V10.1516H55.9238ZM56.0313 10.1516L56.5142 9.96567L56.3865 9.63424H56.0313V10.1516ZM60.9801 23L60.4973 23.186L60.625 23.5174H60.9801V23ZM64.4688 23V23.5174H64.824L64.9517 23.186L64.4688 23ZM69.4176 10.1516V9.63424H69.0625L68.9348 9.96567L69.4176 10.1516ZM69.5252 10.1516H70.0426V9.63424H69.5252V10.1516ZM69.5252 23H69.0078V23.5174H69.5252V23ZM75.2117 23V23.5174H75.7291V23H75.2117ZM75.2117 0.822748H75.7291V0.305344H75.2117V0.822748ZM67.6809 0.822748V0.305344H67.3212L67.1959 0.642623L67.6809 0.822748ZM62.7783 14.0246V14.542H63.1381L63.2633 14.2047L62.7783 14.0246ZM62.6707 14.0246L62.1857 14.2047L62.3109 14.542H62.6707V14.0246ZM57.768 0.822748L58.2531 0.642623L58.1278 0.305344H57.768V0.822748ZM50.2373 0.822748V0.305344H49.7199V0.822748H50.2373ZM50.2373 23.5174H55.9238V22.4826H50.2373V23.5174ZM56.4412 23V10.1516H55.4064V23H56.4412ZM55.9238 10.669H56.0313V9.63424H55.9238V10.669ZM55.5485 10.3376L60.4973 23.186L61.4629 22.814L56.5142 9.96567L55.5485 10.3376ZM60.9801 23.5174H64.4688V22.4826H60.9801V23.5174ZM64.9517 23.186L69.9004 10.3376L68.9348 9.96567L63.986 22.814L64.9517 23.186ZM69.4176 10.669H69.5252V9.63424H69.4176V10.669ZM69.0078 10.1516V23H70.0426V10.1516H69.0078ZM69.5252 23.5174H75.2117V22.4826H69.5252V23.5174ZM75.7291 23V0.822748H74.6943V23H75.7291ZM75.2117 0.305344H67.6809V1.34015H75.2117V0.305344ZM67.1959 0.642623L62.2932 13.8445L63.2633 14.2047L68.166 1.00287L67.1959 0.642623ZM62.7783 13.5072H62.6707V14.542H62.7783V13.5072ZM63.1557 13.8445L58.2531 0.642623L57.283 1.00287L62.1857 14.2047L63.1557 13.8445ZM57.768 0.305344H50.2373V1.34015H57.768V0.305344ZM49.7199 0.822748V23H50.7547V0.822748H49.7199ZM77.8287 23H77.3113V23.5174H77.8287V23ZM93.4742 23V23.5174H93.9916V23H93.4742ZM93.4742 17.8361H93.9916V17.3187H93.4742V17.8361ZM84.3451 17.8361H83.8277V18.3535H84.3451V17.8361ZM84.3451 14.3166V13.7992H83.8277V14.3166H84.3451ZM92.9055 14.3166V14.834H93.4229V14.3166H92.9055ZM92.9055 9.52152H93.4229V9.00411H92.9055V9.52152ZM84.3451 9.52152H83.8277V10.0389H84.3451V9.52152ZM84.3451 5.98668V5.46928H83.8277V5.98668H84.3451ZM93.4742 5.98668V6.50409H93.9916V5.98668H93.4742ZM93.4742 0.822748H93.9916V0.305344H93.4742V0.822748ZM77.8287 0.822748V0.305344H77.3113V0.822748H77.8287ZM77.8287 23.5174H93.4742V22.4826H77.8287V23.5174ZM93.9916 23V17.8361H92.9568V23H93.9916ZM93.4742 17.3187H84.3451V18.3535H93.4742V17.3187ZM84.8625 17.8361V14.3166H83.8277V17.8361H84.8625ZM84.3451 14.834H92.9055V13.7992H84.3451V14.834ZM93.4229 14.3166V9.52152H92.3881V14.3166H93.4229ZM92.9055 9.00411H84.3451V10.0389H92.9055V9.00411ZM84.8625 9.52152V5.98668H83.8277V9.52152H84.8625ZM84.3451 6.50409H93.4742V5.46928H84.3451V6.50409ZM93.9916 5.98668V0.822748H92.9568V5.98668H93.9916ZM93.4742 0.305344H77.8287V1.34015H93.4742V0.305344ZM77.3113 0.822748V23H78.3461V0.822748H77.3113Z" fill="white" fill-opacity="0.2"/>
<defs>
<filter id="filter0_i" x="0.18335" y="0.822754" width="93.2908" height="24.2469" filterUnits="userSpaceOnUse" color-interpolation-filters="sRGB">
<feFlood flood-opacity="0" result="BackgroundImageFix"/>
<feBlend mode="normal" in="SourceGraphic" in2="BackgroundImageFix" result="shape"/>
<feColorMatrix in="SourceAlpha" type="matrix" values="0 0 0 0 0 0 0 0 0 0 0 0 0 0 0 0 0 0 127 0" result="hardAlpha"/>
<feOffset dy="2.06962"/>
<feGaussianBlur stdDeviation="2.06962"/>
<feComposite in2="hardAlpha" operator="arithmetic" k2="-1" k3="1"/>
<feColorMatrix type="matrix" values="0 0 0 0 0 0 0 0 0 0 0 0 0 0 0 0 0 0 0.1 0"/>
<feBlend mode="normal" in2="shape" result="effect1_innerShadow"/>
</filter>
</defs>
</svg>
