<svg width="36" height="53" viewBox="0 0 36 53" fill="none" xmlns="http://www.w3.org/2000/svg">
<path d="M1.18711 50H2.49961V47.1113H4.48008C6.13828 47.1113 7.28672 45.9805 7.28672 44.3281V44.3164C7.28672 42.6582 6.13828 41.5449 4.48008 41.5449H1.18711V50ZM4.15195 42.6523C5.28867 42.6523 5.95078 43.2676 5.95078 44.3223V44.334C5.95078 45.3945 5.28867 46.0098 4.15195 46.0098H2.49961V42.6523H4.15195ZM8.53359 50H9.80508V46.1973C9.80508 45.2773 10.4672 44.6797 11.4398 44.6797C11.6801 44.6797 11.8969 44.709 12.1254 44.7559V43.584C11.9965 43.5547 11.7738 43.5254 11.5687 43.5254C10.7191 43.5254 10.1273 43.9238 9.89883 44.5977H9.80508V43.6367H8.53359V50ZM15.5695 50.123C17.4328 50.123 18.5754 48.875 18.5754 46.8242V46.8125C18.5754 44.7617 17.427 43.5137 15.5695 43.5137C13.7062 43.5137 12.5578 44.7676 12.5578 46.8125V46.8242C12.5578 48.875 13.7004 50.123 15.5695 50.123ZM15.5695 49.0625C14.4738 49.0625 13.8586 48.2363 13.8586 46.8242V46.8125C13.8586 45.4004 14.4738 44.5742 15.5695 44.5742C16.6594 44.5742 17.2805 45.4004 17.2805 46.8125V46.8242C17.2805 48.2305 16.6594 49.0625 15.5695 49.0625ZM20.2441 50H21.5098V44.6387H22.9102V43.6367H21.498V43.0273C21.498 42.3828 21.7734 42.043 22.4766 42.043C22.6758 42.043 22.8457 42.0547 22.9629 42.0723V41.1406C22.7461 41.1055 22.5 41.082 22.2129 41.082C20.8887 41.082 20.2441 41.7031 20.2441 42.9688V43.6367H19.1953V44.6387H20.2441V50ZM24.702 42.5C25.1355 42.5 25.4988 42.1426 25.4988 41.709C25.4988 41.2695 25.1355 40.9121 24.702 40.9121C24.2625 40.9121 23.9051 41.2695 23.9051 41.709C23.9051 42.1426 24.2625 42.5 24.702 42.5ZM24.0633 50H25.3289V43.6367H24.0633V50ZM26.9391 50H28.2105V41.1406H26.9391V50ZM32.475 50.123C34.1039 50.123 34.9828 49.1855 35.1938 48.3477L35.2055 48.2949L33.9809 48.3008L33.9574 48.3477C33.8051 48.6758 33.3188 49.0801 32.5043 49.0801C31.4555 49.0801 30.7875 48.3711 30.7641 47.1523H35.2758V46.707C35.2758 44.7969 34.1859 43.5137 32.4105 43.5137C30.6352 43.5137 29.4867 44.8438 29.4867 46.8301V46.8359C29.4867 48.8516 30.6117 50.123 32.475 50.123ZM32.4164 44.5566C33.2777 44.5566 33.9164 45.1074 34.016 46.2441H30.7816C30.893 45.1484 31.5492 44.5566 32.4164 44.5566Z" fill="white"/>
<path d="M18 22.5C22.9706 22.5 27 18.4706 27 13.5C27 8.52944 22.9706 4.5 18 4.5C13.0294 4.5 9 8.52944 9 13.5C9 18.4706 13.0294 22.5 18 22.5Z" fill="url(#paint0_linear)" stroke="url(#paint1_linear)" stroke-width="3" stroke-linecap="round" stroke-linejoin="round"/>
<path d="M4.35791 30.3737C5.74104 27.9796 7.72983 25.9917 10.1245 24.6096C12.5192 23.2275 15.2354 22.5 18.0002 22.5C20.7651 22.5 23.4813 23.2277 25.8759 24.6098C28.2706 25.9919 30.2593 27.9799 31.6424 30.374" stroke="url(#paint2_linear)" stroke-width="3" stroke-linecap="round" stroke-linejoin="round"/>
<defs>
<linearGradient id="paint0_linear" x1="18" y1="4.5" x2="18" y2="22.5" gradientUnits="userSpaceOnUse">
<stop stop-color="#A54ED9"/>
<stop offset="1" stop-color="#A54ED9" stop-opacity="0"/>
</linearGradient>
<linearGradient id="paint1_linear" x1="18" y1="4.5" x2="18" y2="22.5" gradientUnits="userSpaceOnUse">
<stop stop-color="white"/>
<stop offset="1" stop-color="white" stop-opacity="0"/>
</linearGradient>
<linearGradient id="paint2_linear" x1="18.0002" y1="22.5" x2="18.0002" y2="30.374" gradientUnits="userSpaceOnUse">
<stop stop-color="white"/>
<stop offset="1" stop-color="#A367E3"/>
</linearGradient>
</defs>
</svg>
