<svg width="35" height="27" viewBox="0 0 35 27" fill="none" xmlns="http://www.w3.org/2000/svg">
<path d="M33.792 23.6929L34.0361 23.6387L34.0351 23.6348L33.792 23.6929ZM33.8528 23.9668L34.0977 23.9163L34.0969 23.9126L33.8528 23.9668ZM32.4866 26.0437L32.436 25.7988L32.4866 26.0437ZM15.8471 26.08L15.8471 26.33H15.8471V26.08ZM14.0864 24.0041L13.8414 23.9532L13.8398 23.9633L14.0864 24.0041ZM14.1162 23.8609L13.8735 23.8L13.8714 23.81L14.1162 23.8609ZM29.7409 3.98627L29.957 3.86065L29.9531 3.85385L29.9487 3.84731L29.7409 3.98627ZM30.4432 11.9385L30.2009 11.8771L30.1986 11.8859L30.1971 11.8949L30.4432 11.9385ZM31.0664 12.7216L30.9703 12.9525L30.9775 12.9552L31.0664 12.7216ZM31.1283 12.7451L31.0393 12.979L31.0496 12.9824L31.1283 12.7451ZM31.206 12.7709L31.1273 13.0082L31.1313 13.0095L31.206 12.7709ZM31.424 13.1876L31.6626 13.2623L31.424 13.1876ZM31.3457 13.3194L31.504 13.513L31.5153 13.5037L31.5255 13.4932L31.3457 13.3194ZM31.2858 13.3685L31.4205 13.5791L31.4328 13.5712L31.4441 13.562L31.2858 13.3685ZM26.9447 13.646L26.9933 13.4008L26.8572 13.3739L26.7623 13.4751L26.9447 13.646ZM21.2475 13.646L21.4278 13.473L21.3621 13.4044L21.2673 13.3968L21.2475 13.646ZM21.4089 1.74295L21.5 1.97575L21.5 1.97575L21.4089 1.74295ZM22.8061 1.65913L22.7434 1.90115L22.8061 1.65913ZM23.1488 1.74783L23.0862 1.98985L23.19 2.01674L23.2811 1.95997L23.1488 1.74783ZM24.0661 17.243C29.1012 17.243 32.6268 19.8974 33.5488 23.7511L34.0351 23.6348C33.0489 19.5125 29.2846 16.743 24.0661 16.743V17.243ZM33.5479 23.7472L33.6088 24.021L34.0969 23.9126L34.036 23.6387L33.5479 23.7472ZM33.608 24.0173C33.7763 24.8329 33.2516 25.6305 32.436 25.7988L32.5371 26.2885C33.6231 26.0644 34.3218 25.0023 34.0977 23.9163L33.608 24.0173ZM32.436 25.7988C32.3358 25.8195 32.2336 25.83 32.1313 25.83V26.33C32.2676 26.33 32.4036 26.3161 32.5371 26.2885L32.436 25.7988ZM32.1313 25.83H15.8471V26.33H32.1313V25.83ZM15.8471 25.83C14.9996 25.8299 14.3125 25.1428 14.3125 24.2953H13.8125C13.8125 25.419 14.7234 26.3299 15.8471 26.33L15.8471 25.83ZM14.3125 24.2953C14.3125 24.2113 14.3194 24.1276 14.3331 24.0449L13.8398 23.9633C13.8216 24.0729 13.8125 24.184 13.8125 24.2953H14.3125ZM14.3312 24.0549L14.361 23.9117L13.8714 23.81L13.8416 23.9532L14.3312 24.0549ZM14.3587 23.9217C15.317 20.1033 18.9197 17.243 24.0661 17.243V16.743C18.7259 16.743 14.896 19.7266 13.8737 23.8L14.3587 23.9217ZM29.5247 4.1119C30.7445 6.21058 30.9827 8.79014 30.2009 11.8771L30.6856 11.9998C31.4899 8.82407 31.2598 6.10217 29.957 3.86065L29.5247 4.1119ZM30.1971 11.8949C30.1557 12.1289 30.2123 12.3478 30.3602 12.5338C30.5008 12.7104 30.7139 12.8456 30.9703 12.9524L31.1625 12.4908C30.9459 12.4006 30.8186 12.3068 30.7515 12.2225C30.6917 12.1474 30.6733 12.0732 30.6894 11.982L30.1971 11.8949ZM30.9775 12.9552L31.0394 12.9788L31.2172 12.5115L31.1553 12.4879L30.9775 12.9552ZM31.0496 12.9824L31.1273 13.0082L31.2846 12.5336L31.2069 12.5078L31.0496 12.9824ZM31.1313 13.0095C31.1748 13.0231 31.1991 13.0694 31.1854 13.113L31.6626 13.2623C31.7587 12.9552 31.5877 12.6284 31.2807 12.5323L31.1313 13.0095ZM31.1854 13.113C31.1816 13.1253 31.1749 13.1365 31.166 13.1457L31.5255 13.4932C31.5881 13.4284 31.6353 13.3495 31.6626 13.2623L31.1854 13.113ZM31.1875 13.1259L31.1275 13.175L31.4441 13.562L31.504 13.513L31.1875 13.1259ZM31.1511 13.1579C30.9943 13.2582 30.7423 13.3466 30.412 13.4139C30.0864 13.4803 29.704 13.5226 29.3008 13.5418C28.4924 13.5804 27.6231 13.5255 26.9933 13.4008L26.8962 13.8913C27.5735 14.0254 28.4844 14.0813 29.3246 14.0413C29.7456 14.0212 30.1546 13.9767 30.5119 13.9039C30.8644 13.8319 31.187 13.7284 31.4205 13.5791L31.1511 13.1579ZM26.7623 13.4751C25.9338 14.3594 25.0518 14.7793 24.1118 14.7793V15.2793C25.2211 15.2793 26.2278 14.7769 27.1272 13.817L26.7623 13.4751ZM24.1118 14.7793C23.1712 14.7793 22.2779 14.3589 21.4278 13.473L21.0671 13.8191C21.9867 14.7775 23.0029 15.2793 24.1118 15.2793V14.7793ZM21.2673 13.3968C20.0961 13.3034 19.2418 12.824 18.6706 11.9681C18.0908 11.0992 17.7844 9.81466 17.7844 8.08202H17.2844C17.2844 9.86118 17.5969 11.2598 18.2547 12.2456C18.9213 13.2445 19.9235 13.7912 21.2276 13.8953L21.2673 13.3968ZM17.7844 8.08202C17.7844 6.50704 18.1008 5.22351 18.7164 4.21634C19.3303 3.21194 20.2529 2.46387 21.5 1.97575L21.3178 1.51015C19.9819 2.03302 18.9673 2.84695 18.2897 3.95558C17.6138 5.06143 17.2844 6.44194 17.2844 8.08202H17.7844ZM21.5 1.97575C21.8963 1.82063 22.3314 1.79453 22.7434 1.90115L22.8687 1.4171C22.3548 1.28411 21.8121 1.31666 21.3178 1.51015L21.5 1.97575ZM22.7434 1.90115L23.0862 1.98985L23.2115 1.5058L22.8687 1.4171L22.7434 1.90115ZM23.2811 1.95997C24.4314 1.24272 25.5022 1.07932 26.5145 1.42305C27.5394 1.77109 28.5492 2.6538 29.533 4.12523L29.9487 3.84731C28.9352 2.33163 27.8476 1.34772 26.6752 0.949603C25.4901 0.54719 24.2636 0.758116 23.0165 1.53569L23.2811 1.95997Z" fill="#E5D1E2"/>
<path fill-rule="evenodd" clip-rule="evenodd" d="M11.0036 16.9917C12.1656 16.9917 13.1049 17.1192 14.068 17.3784L14.4308 17.4819C14.9377 17.6342 15.2252 18.1686 15.0729 18.6755C15.0481 18.758 15.0123 18.8367 14.9666 18.9094L14.8667 19.043C13.9495 20.1658 13.3595 21.3997 12.9393 22.8418L12.8283 23.2513L12.7756 23.4944C12.7187 23.8261 12.6995 24.0598 12.6995 24.294C12.6995 24.4254 12.7054 24.5555 12.717 24.6839L12.7386 24.8752C12.8174 25.4564 12.4101 25.9915 11.829 26.0703C11.7816 26.0767 11.7339 26.0799 11.6861 26.0799L2.78463 26.0787C1.79901 26.0787 1 25.2797 1 24.294C1 24.1964 1.00801 24.099 1.02392 24.0028L1.05368 23.8596C2.044 19.9137 5.7603 16.9917 11.0036 16.9917ZM12.4726 1.19347C14.3526 1.6439 16.1382 3.1575 16.0335 6.71235L16.0187 7.04117C15.9675 7.11982 16.6691 7.44106 16.6691 8.47516C16.6691 9.16456 16.4523 9.63378 16.0187 9.88284C15.2241 13.3469 13.5688 15.0789 11.0529 15.0789C8.53686 15.0789 6.73635 13.3469 5.65133 9.88284C5.2437 9.70416 5.03988 9.23493 5.03988 8.47516C5.03988 7.71538 5.2437 7.23739 5.65133 7.04117C5.69471 4.16848 6.3492 2.52863 7.61482 2.12162C8.11721 1.96106 8.59253 1.96106 9.04077 2.12162C9.49411 1.06332 10.6381 0.753934 12.4726 1.19347Z" fill="url(#paint0_radial)"/>
<path d="M14.068 17.3784L14.1092 17.2342L14.107 17.2336L14.068 17.3784ZM14.4308 17.4819L14.474 17.3382L14.4719 17.3376L14.4308 17.4819ZM15.0729 18.6755L15.2165 18.7186L15.0729 18.6755ZM14.9666 18.9094L15.0872 18.9995L15.0937 18.9891L14.9666 18.9094ZM14.8667 19.043L14.983 19.138L14.9868 19.1328L14.8667 19.043ZM12.9393 22.8418L12.7953 22.7998L12.7945 22.8026L12.9393 22.8418ZM12.8283 23.2513L12.6833 23.212L12.6817 23.2196L12.8283 23.2513ZM12.7756 23.4944L12.6289 23.4626L12.6278 23.469L12.7756 23.4944ZM12.6995 24.294H12.8495H12.6995ZM12.717 24.6839L12.5675 24.6974L12.5679 24.7007L12.717 24.6839ZM12.7386 24.8752L12.5895 24.892L12.5899 24.8954L12.7386 24.8752ZM11.829 26.0703L11.8088 25.9217L11.829 26.0703ZM11.6861 26.0799L11.686 26.2299H11.6861V26.0799ZM2.78463 26.0787L2.78465 25.9287H2.78464L2.78463 26.0787ZM1.02392 24.0028L0.876933 23.9723L0.875929 23.9784L1.02392 24.0028ZM1.05368 23.8596L0.90807 23.8231L0.906818 23.8291L1.05368 23.8596ZM12.4726 1.19347L12.4377 1.33934L12.4726 1.19347ZM16.0335 6.71235L16.1833 6.71908L16.1834 6.71676L16.0335 6.71235ZM16.0187 7.04117L16.1444 7.12299L16.1667 7.08873L16.1685 7.0479L16.0187 7.04117ZM16.0187 9.88284L15.944 9.75277L15.8871 9.78542L15.8725 9.8493L16.0187 9.88284ZM5.65133 9.88284L5.79447 9.838L5.77407 9.77286L5.71155 9.74546L5.65133 9.88284ZM5.65133 7.04117L5.71639 7.17632L5.79991 7.13612L5.80131 7.04343L5.65133 7.04117ZM7.61482 2.12162L7.56915 1.97874L7.5689 1.97882L7.61482 2.12162ZM9.04077 2.12162L8.99019 2.26283L9.12307 2.31043L9.17865 2.18068L9.04077 2.12162ZM11.0036 17.1417C12.1532 17.1417 13.0794 17.2676 14.029 17.5233L14.107 17.2336C13.1305 16.9707 12.178 16.8417 11.0036 16.8417V17.1417ZM14.0269 17.5227L14.3897 17.6261L14.4719 17.3376L14.1092 17.2342L14.0269 17.5227ZM14.3876 17.6255C14.8152 17.754 15.0577 18.2047 14.9292 18.6323L15.2165 18.7186C15.3927 18.1324 15.0602 17.5143 14.474 17.3382L14.3876 17.6255ZM14.9292 18.6323C14.9083 18.702 14.8781 18.7683 14.8396 18.8296L15.0937 18.9891C15.1465 18.9051 15.1878 18.8141 15.2165 18.7186L14.9292 18.6323ZM14.8465 18.8195L14.7466 18.9532L14.9868 19.1328L15.0868 18.9992L14.8465 18.8195ZM14.7505 18.9481C13.8181 20.0896 13.2199 21.3426 12.7953 22.7999L13.0833 22.8838C13.4991 21.4568 14.0809 20.2421 14.9829 19.1379L14.7505 18.9481ZM12.7945 22.8026L12.6835 23.2121L12.9731 23.2906L13.0841 22.881L12.7945 22.8026ZM12.6817 23.2196L12.629 23.4626L12.9222 23.5261L12.9749 23.2831L12.6817 23.2196ZM12.6278 23.469C12.5696 23.8076 12.5495 24.05 12.5495 24.294H12.8495C12.8495 24.0697 12.8677 23.8445 12.9235 23.5198L12.6278 23.469ZM12.5495 24.294C12.5495 24.43 12.5556 24.5645 12.5676 24.6974L12.8664 24.6704C12.8552 24.5465 12.8495 24.4209 12.8495 24.294H12.5495ZM12.5679 24.7007L12.5895 24.892L12.8876 24.8584L12.866 24.6671L12.5679 24.7007ZM12.5899 24.8954C12.6576 25.3945 12.3079 25.854 11.8088 25.9217L11.8491 26.2189C12.5124 26.129 12.9772 25.5183 12.8872 24.8551L12.5899 24.8954ZM11.8088 25.9217C11.7682 25.9272 11.7271 25.9299 11.6861 25.9299V26.2299C11.7406 26.2299 11.795 26.2263 11.8491 26.2189L11.8088 25.9217ZM11.6861 25.9299L2.78465 25.9287L2.78461 26.2287L11.686 26.2299L11.6861 25.9299ZM2.78464 25.9287C1.88185 25.9287 1.15 25.1968 1.15 24.294H0.85C0.85 25.3625 1.71616 26.2287 2.78463 26.2287L2.78464 25.9287ZM1.15 24.294C1.15 24.2046 1.15734 24.1154 1.17191 24.0273L0.875929 23.9784C0.858686 24.0826 0.85 24.1882 0.85 24.294H1.15ZM1.17078 24.0334L1.20054 23.8901L0.906818 23.8291L0.877056 23.9723L1.17078 24.0334ZM1.19917 23.8961C2.17029 20.0267 5.81845 17.1417 11.0036 17.1417V16.8417C5.70215 16.8417 1.91771 19.8007 0.908192 23.8231L1.19917 23.8961ZM12.4377 1.33934C13.3511 1.55819 14.2346 2.03334 14.8779 2.87953C15.521 3.7254 15.9351 4.9566 15.8835 6.70793L16.1834 6.71676C16.2365 4.91324 15.8103 3.61022 15.1167 2.69797C14.4234 1.78604 13.4741 1.27917 12.5076 1.0476L12.4377 1.33934ZM15.8836 6.70561L15.8688 7.03443L16.1685 7.0479L16.1833 6.71908L15.8836 6.70561ZM15.893 6.95934C15.8572 7.01436 15.8636 7.07147 15.8754 7.10664C15.8858 7.13763 15.903 7.16151 15.9136 7.17515C15.9355 7.20318 15.967 7.23398 15.9938 7.26018C16.0528 7.31795 16.1286 7.39108 16.2059 7.4914C16.3579 7.68874 16.5191 7.99613 16.5191 8.47516H16.8191C16.8191 7.92009 16.6295 7.54981 16.4435 7.30834C16.3518 7.18926 16.2618 7.10269 16.2036 7.04579C16.1718 7.01466 16.157 6.99938 16.1503 6.99075C16.1466 6.98606 16.154 6.99397 16.1598 7.0111C16.1669 7.03242 16.1738 7.07781 16.1444 7.12299L15.893 6.95934ZM16.5191 8.47516C16.5191 9.13374 16.3141 9.54019 15.944 9.75277L16.0934 10.0129C16.5905 9.72738 16.8191 9.19537 16.8191 8.47516H16.5191ZM15.8725 9.8493C15.4785 11.5668 14.8749 12.837 14.0729 13.6762C13.2751 14.511 12.2722 14.9289 11.0529 14.9289V15.2289C12.3495 15.2289 13.4323 14.7808 14.2897 13.8835C15.143 12.9907 15.7643 11.6629 16.1649 9.91637L15.8725 9.8493ZM11.0529 14.9289C9.83332 14.9289 8.79155 14.5107 7.91947 13.6718C7.04375 12.8294 6.33263 11.5561 5.79447 9.838L5.50819 9.92767C6.05505 11.6736 6.7867 12.9984 7.71149 13.888C8.6399 14.7811 9.75638 15.2289 11.0529 15.2289V14.9289ZM5.71155 9.74546C5.39051 9.60473 5.18988 9.22079 5.18988 8.47516H4.88988C4.88988 9.24907 5.09689 9.80358 5.59111 10.0202L5.71155 9.74546ZM5.18988 8.47516C5.18988 7.73116 5.38996 7.33346 5.71639 7.17632L5.58627 6.90601C5.09744 7.14132 4.88988 7.69961 4.88988 8.47516H5.18988ZM5.80131 7.04343C5.82288 5.61536 5.9965 4.508 6.31405 3.71237C6.63052 2.91943 7.08345 2.45007 7.66074 2.26442L7.5689 1.97882C6.88057 2.20018 6.37344 2.75425 6.03542 3.60116C5.69847 4.44538 5.52316 5.59429 5.50135 7.0389L5.80131 7.04343ZM7.66048 2.2645C8.13505 2.11283 8.57633 2.11459 8.99019 2.26283L9.09135 1.98041C8.60873 1.80753 8.09937 1.80928 7.56915 1.97874L7.66048 2.2645ZM9.17865 2.18068C9.38665 1.69512 9.7487 1.38378 10.2779 1.24065C10.8154 1.09529 11.5318 1.12231 12.4377 1.33934L12.5076 1.0476C11.5789 0.825098 10.806 0.78704 10.1996 0.951058C9.58483 1.11732 9.14823 1.48982 8.90289 2.06256L9.17865 2.18068Z" fill="#E5D1E2"/>
<path fill-rule="evenodd" clip-rule="evenodd" d="M24.6104 18C28.5107 18 31.2836 20.0631 32.0095 23.0971L32.0558 23.3054C32.2051 24.0288 31.7397 24.7362 31.0164 24.8854C30.9275 24.9038 30.8369 24.913 30.7461 24.913H18.3577C17.6079 24.913 17 24.3052 17 23.5553C17 23.4811 17.0061 23.407 17.0182 23.3338L17.0408 23.2248C17.7942 20.2229 20.6215 18 24.6104 18ZM28.2862 5.27185C29.2458 6.92279 29.4239 8.93938 28.8206 11.3216C28.7768 11.569 28.9348 11.7676 29.2946 11.9174L29.3417 11.9353L29.4008 11.9549C29.5342 11.9966 29.6085 12.1386 29.5667 12.2719C29.5549 12.3098 29.5344 12.3441 29.5072 12.3722L29.4616 12.4095C28.8675 12.7894 27.1535 12.8175 26.159 12.6207C25.5018 13.3222 24.7833 13.673 24.0038 13.673C23.2242 13.673 22.4979 13.3222 21.8247 12.6207C19.9416 12.4704 19 11.0594 19 8.38776C19 5.94185 19.9825 4.33434 21.9475 3.56521C22.2863 3.43261 22.6583 3.41029 23.0105 3.50144L23.2712 3.56892C25.095 2.43172 26.7667 2.99936 28.2862 5.27185Z" fill="url(#paint1_radial)"/>
<defs>
<radialGradient id="paint0_radial" cx="0" cy="0" r="1" gradientUnits="userSpaceOnUse" gradientTransform="translate(8.83454 13.54) rotate(90) scale(12.54 7.83454)">
<stop stop-color="#3E0080"/>
<stop offset="1" stop-color="#A053F0"/>
</radialGradient>
<radialGradient id="paint1_radial" cx="0" cy="0" r="1" gradientUnits="userSpaceOnUse" gradientTransform="translate(23.5418 14.54) rotate(90) scale(9.54 7.54184)">
<stop offset="0.480844" stop-color="#F89A59"/>
<stop offset="1" stop-color="#EE6A60"/>
</radialGradient>
</defs>
</svg>
