<svg width="410" height="157" viewBox="0 0 410 157" fill="none" xmlns="http://www.w3.org/2000/svg">
<path d="M30.4854 10H31.5791V2.9541H30.4854L28.6299 4.27246V5.34668L30.4023 4.08203H30.4854V10ZM35.7566 10.1318C37.2508 10.1318 38.3104 9.2627 38.3104 8.05176V8.04199C38.3104 7.05566 37.617 6.43066 36.5818 6.33789V6.31348C37.4412 6.13281 38.0662 5.54688 38.0662 4.67285V4.66309C38.0662 3.57422 37.1482 2.82227 35.7469 2.82227C34.3699 2.82227 33.4324 3.6084 33.325 4.79492L33.3201 4.84863H34.3455L34.3504 4.7998C34.4187 4.13574 34.9656 3.7207 35.7469 3.7207C36.5428 3.7207 37.0018 4.12109 37.0018 4.80469V4.81445C37.0018 5.46875 36.4549 5.94238 35.6492 5.94238H34.824V6.79199H35.6834C36.6209 6.79199 37.1971 7.23633 37.1971 8.03223V8.04199C37.1971 8.73535 36.616 9.21875 35.7566 9.21875C34.8826 9.21875 34.2918 8.76953 34.2234 8.12988L34.2186 8.08105H33.1736L33.1785 8.13965C33.2713 9.30664 34.2527 10.1318 35.7566 10.1318ZM39.8561 10.0732C40.2613 10.0732 40.5689 9.76074 40.5689 9.36523C40.5689 8.96484 40.2613 8.65234 39.8561 8.65234C39.4508 8.65234 39.1383 8.96484 39.1383 9.36523C39.1383 9.76074 39.4508 10.0732 39.8561 10.0732ZM43.9604 10.1709C45.5814 10.1709 46.5629 8.75 46.5629 6.47949V6.46973C46.5629 4.19922 45.5814 2.7832 43.9604 2.7832C42.3344 2.7832 41.3578 4.19922 41.3578 6.46973V6.47949C41.3578 8.75 42.3344 10.1709 43.9604 10.1709ZM43.9604 9.2627C43.0131 9.2627 42.4613 8.20312 42.4613 6.47949V6.46973C42.4613 4.74609 43.0131 3.69629 43.9604 3.69629C44.9027 3.69629 45.4594 4.74609 45.4594 6.46973V6.47949C45.4594 8.20312 44.9027 9.2627 43.9604 9.2627ZM50.1545 10.1709C51.7756 10.1709 52.757 8.75 52.757 6.47949V6.46973C52.757 4.19922 51.7756 2.7832 50.1545 2.7832C48.5285 2.7832 47.552 4.19922 47.552 6.46973V6.47949C47.552 8.75 48.5285 10.1709 50.1545 10.1709ZM50.1545 9.2627C49.2072 9.2627 48.6555 8.20312 48.6555 6.47949V6.46973C48.6555 4.74609 49.2072 3.69629 50.1545 3.69629C51.0969 3.69629 51.6535 4.74609 51.6535 6.46973V6.47949C51.6535 8.20312 51.0969 9.2627 50.1545 9.2627ZM58.2996 10.0342C58.5047 10.0342 58.7 10.0098 58.8709 9.98047V9.13574C58.7244 9.15039 58.6316 9.15527 58.4705 9.15527C57.948 9.15527 57.7332 8.9209 57.7332 8.34961V5.53223H58.8709V4.69727H57.7332V3.35938H56.6541V4.69727H55.824V5.53223H56.6541V8.60352C56.6541 9.62402 57.1326 10.0342 58.2996 10.0342ZM61.9937 10.1025C63.5465 10.1025 64.4986 9.0625 64.4986 7.35352V7.34375C64.4986 5.63477 63.5416 4.59473 61.9937 4.59473C60.441 4.59473 59.484 5.63965 59.484 7.34375V7.35352C59.484 9.0625 60.4361 10.1025 61.9937 10.1025ZM61.9937 9.21875C61.0807 9.21875 60.568 8.53027 60.568 7.35352V7.34375C60.568 6.16699 61.0807 5.47852 61.9937 5.47852C62.902 5.47852 63.4195 6.16699 63.4195 7.34375V7.35352C63.4195 8.52539 62.902 9.21875 61.9937 9.21875ZM69.6213 10H70.715V2.9541H69.6213L67.7658 4.27246V5.34668L69.5383 4.08203H69.6213V10ZM75.6445 10H76.6992V8.59863H77.6709V7.6709H76.6992V2.9541H75.1416C74.1699 4.41406 73.1348 6.0791 72.207 7.6709V8.59863H75.6445V10ZM73.2568 7.69043V7.62207C73.9795 6.38672 74.8389 5.01465 75.5957 3.87695H75.6592V7.69043H73.2568ZM79.2361 10.0732C79.6414 10.0732 79.949 9.76074 79.949 9.36523C79.949 8.96484 79.6414 8.65234 79.2361 8.65234C78.8309 8.65234 78.5184 8.96484 78.5184 9.36523C78.5184 9.76074 78.8309 10.0732 79.2361 10.0732ZM83.3404 10.1709C84.9615 10.1709 85.943 8.75 85.943 6.47949V6.46973C85.943 4.19922 84.9615 2.7832 83.3404 2.7832C81.7145 2.7832 80.7379 4.19922 80.7379 6.46973V6.47949C80.7379 8.75 81.7145 10.1709 83.3404 10.1709ZM83.3404 9.2627C82.3932 9.2627 81.8414 8.20312 81.8414 6.47949V6.46973C81.8414 4.74609 82.3932 3.69629 83.3404 3.69629C84.2828 3.69629 84.8395 4.74609 84.8395 6.46973V6.47949C84.8395 8.20312 84.2828 9.2627 83.3404 9.2627ZM89.5346 10.1709C91.1557 10.1709 92.1371 8.75 92.1371 6.47949V6.46973C92.1371 4.19922 91.1557 2.7832 89.5346 2.7832C87.9086 2.7832 86.932 4.19922 86.932 6.46973V6.47949C86.932 8.75 87.9086 10.1709 89.5346 10.1709ZM89.5346 9.2627C88.5873 9.2627 88.0355 8.20312 88.0355 6.47949V6.46973C88.0355 4.74609 88.5873 3.69629 89.5346 3.69629C90.477 3.69629 91.0336 4.74609 91.0336 6.46973V6.47949C91.0336 8.20312 90.477 9.2627 89.5346 9.2627Z" fill="#3E0080"/>
<g filter="url(#filter0_d)">
<rect x="23" y="16" width="377" height="131" rx="10" fill="#EEE8F8"/>
</g>
<mask id="mask0" mask-type="alpha" maskUnits="userSpaceOnUse" x="26" y="18" width="371" height="125">
<rect x="26.6953" y="19.2871" width="369.61" height="123.032" rx="9.5" fill="#C4C4C4" stroke="black"/>
</mask>
<g mask="url(#mask0)">
<g filter="url(#filter1_i)">
<path d="M541.28 220.669C541.28 413.783 417.303 570.333 264.37 570.333C111.436 570.333 -12.541 413.783 -12.541 220.669C-12.541 27.5545 111.436 -128.996 264.37 -128.996C417.303 -128.996 541.28 27.5545 541.28 220.669Z" fill="#7429D6" fill-opacity="0.1"/>
<path d="M499.404 220.669C499.404 384.634 394.175 517.554 264.37 517.554C134.564 517.554 29.3358 384.634 29.3358 220.669C29.3358 56.7038 134.564 -76.2161 264.37 -76.2161C394.175 -76.2161 499.404 56.7038 499.404 220.669Z" fill="#7429D6" fill-opacity="0.1"/>
<path d="M461.714 220.009C461.714 358.104 373.36 470.052 264.37 470.052C155.379 470.052 67.025 358.104 67.025 220.009C67.025 81.9141 155.379 -30.034 264.37 -30.034C373.36 -30.034 461.714 81.9141 461.714 220.009Z" fill="#7429D6" fill-opacity="0.1"/>
<path d="M111.368 267.345C90.9253 241.581 90.9253 199.808 111.368 174.043L226.852 28.4924C247.295 2.72777 280.438 2.72777 300.881 28.4924L416.365 174.043C436.808 199.808 436.808 241.581 416.365 267.345L300.881 412.896C280.438 438.661 247.295 438.661 226.852 412.896L111.368 267.345Z" fill="#7429D6" fill-opacity="0.1"/>
</g>
</g>
<rect y="4" width="23" height="4" fill="#C3A6EB"/>
<path d="M71.7236 100.253C74.1846 100.253 75.7021 99.0156 75.7021 97.0605V97.0537C75.7021 95.5156 74.793 94.6816 72.708 94.251L71.6621 94.0391C70.5 93.7998 70.0215 93.417 70.0215 92.7744V92.7676C70.0215 92.0293 70.6982 91.5645 71.7168 91.5576C72.7559 91.5576 73.4395 92.0498 73.5557 92.7539L73.5693 92.8359H75.5107L75.5039 92.7471C75.374 91.0996 74.0205 89.8828 71.7168 89.8828C69.5293 89.8828 67.957 91.0928 67.957 92.9248V92.9316C67.957 94.4287 68.8389 95.3857 70.8896 95.8027L71.9287 96.0146C73.1523 96.2676 73.6377 96.6299 73.6377 97.2793V97.2861C73.6377 98.0449 72.8789 98.5713 71.7783 98.5713C70.623 98.5713 69.8232 98.0723 69.748 97.334L69.7412 97.2656H67.752L67.7588 97.375C67.875 99.125 69.3652 100.253 71.7236 100.253ZM77.9775 91.3184C78.5928 91.3184 79.0986 90.8262 79.0986 90.2109C79.0986 89.5889 78.5928 89.0967 77.9775 89.0967C77.3623 89.0967 76.8496 89.5889 76.8496 90.2109C76.8496 90.8262 77.3623 91.3184 77.9775 91.3184ZM76.9727 100H78.9688V92.4736H76.9727V100ZM80.4785 100H82.4746V95.4609C82.4746 94.5996 83.0215 93.9639 83.8008 93.9639C84.5801 93.9639 85.0381 94.4355 85.0381 95.2422V100H87.0342V95.3721C87.0342 94.5586 87.5537 93.9639 88.3604 93.9639C89.1943 93.9639 89.6045 94.4219 89.6045 95.3311V100H91.6006V94.832C91.6006 93.2803 90.6641 92.3096 89.167 92.3096C88.1143 92.3096 87.2393 92.8633 86.8975 93.6973H86.7744C86.4668 92.8291 85.708 92.3096 84.6826 92.3096C83.6982 92.3096 82.9189 92.8018 82.5977 93.6494H82.4746V92.4736H80.4785V100ZM96.3779 100.157C98.6953 100.157 100.09 98.6943 100.09 96.2402V96.2266C100.09 93.793 98.6748 92.3096 96.3779 92.3096C94.0811 92.3096 92.666 93.7998 92.666 96.2266V96.2402C92.666 98.6875 94.0605 100.157 96.3779 100.157ZM96.3779 98.5918C95.3115 98.5918 94.71 97.7236 94.71 96.2402V96.2266C94.71 94.7568 95.3184 93.875 96.3779 93.875C97.4307 93.875 98.0459 94.7568 98.0459 96.2266V96.2402C98.0459 97.7236 97.4375 98.5918 96.3779 98.5918ZM101.217 100H103.213V95.6455C103.213 94.627 103.773 93.9639 104.696 93.9639C105.64 93.9639 106.077 94.5244 106.077 95.584V100H108.073V95.1328C108.073 93.335 107.171 92.3096 105.496 92.3096C104.423 92.3096 103.678 92.8223 103.336 93.6357H103.213V92.4736H101.217V100ZM116.343 100.253C118.804 100.253 120.321 99.0156 120.321 97.0605V97.0537C120.321 95.5156 119.412 94.6816 117.327 94.251L116.281 94.0391C115.119 93.7998 114.641 93.417 114.641 92.7744V92.7676C114.641 92.0293 115.317 91.5645 116.336 91.5576C117.375 91.5576 118.059 92.0498 118.175 92.7539L118.188 92.8359H120.13L120.123 92.7471C119.993 91.0996 118.64 89.8828 116.336 89.8828C114.148 89.8828 112.576 91.0928 112.576 92.9248V92.9316C112.576 94.4287 113.458 95.3857 115.509 95.8027L116.548 96.0146C117.771 96.2676 118.257 96.6299 118.257 97.2793V97.2861C118.257 98.0449 117.498 98.5713 116.397 98.5713C115.242 98.5713 114.442 98.0723 114.367 97.334L114.36 97.2656H112.371L112.378 97.375C112.494 99.125 113.984 100.253 116.343 100.253ZM122.59 91.3184C123.205 91.3184 123.711 90.8262 123.711 90.2109C123.711 89.5889 123.205 89.0967 122.59 89.0967C121.975 89.0967 121.462 89.5889 121.462 90.2109C121.462 90.8262 121.975 91.3184 122.59 91.3184ZM120.915 102.563C122.658 102.563 123.588 101.784 123.588 100.246V92.4736H121.592V100.191C121.592 100.813 121.318 101.046 120.635 101.046C120.546 101.046 120.457 101.046 120.382 101.039V102.543C120.498 102.55 120.737 102.563 120.915 102.563ZM128.44 100.157C130.758 100.157 132.152 98.6943 132.152 96.2402V96.2266C132.152 93.793 130.737 92.3096 128.44 92.3096C126.144 92.3096 124.729 93.7998 124.729 96.2266V96.2402C124.729 98.6875 126.123 100.157 128.44 100.157ZM128.44 98.5918C127.374 98.5918 126.772 97.7236 126.772 96.2402V96.2266C126.772 94.7568 127.381 93.875 128.44 93.875C129.493 93.875 130.108 94.7568 130.108 96.2266V96.2402C130.108 97.7236 129.5 98.5918 128.44 98.5918ZM135.966 100.116C137.025 100.116 137.825 99.6445 138.215 98.8311H138.338V100H140.334V89.5957H138.338V93.6768H138.215C137.839 92.8564 136.998 92.3506 135.966 92.3506C134.059 92.3506 132.91 93.8066 132.91 96.2266V96.2402C132.91 98.6465 134.086 100.116 135.966 100.116ZM136.643 98.4619C135.59 98.4619 134.94 97.6279 134.94 96.2402V96.2266C134.94 94.8525 135.59 94.0049 136.643 94.0049C137.695 94.0049 138.358 94.8525 138.358 96.2334V96.2471C138.358 97.6279 137.702 98.4619 136.643 98.4619ZM142.917 91.3184C143.532 91.3184 144.038 90.8262 144.038 90.2109C144.038 89.5889 143.532 89.0967 142.917 89.0967C142.302 89.0967 141.789 89.5889 141.789 90.2109C141.789 90.8262 142.302 91.3184 142.917 91.3184ZM141.912 100H143.908V92.4736H141.912V100ZM145.418 100H147.414V95.6455C147.414 94.627 147.975 93.9639 148.897 93.9639C149.841 93.9639 150.278 94.5244 150.278 95.584V100H152.274V95.1328C152.274 93.335 151.372 92.3096 149.697 92.3096C148.624 92.3096 147.879 92.8223 147.537 93.6357H147.414V92.4736H145.418V100Z" fill="#3E0080"/>
<path d="M57.0418 89.5417H61.0002V91.1251H57.0418V89.5417ZM55.4585 93.5001H61.0002V95.0834H55.4585V93.5001ZM57.8335 97.4584H61.0002V99.0417H57.8335V97.4584ZM43.5835 101.417C43.5835 99.737 44.2508 98.1261 45.4385 96.9384C46.6262 95.7507 48.2371 95.0834 49.9168 95.0834C51.5965 95.0834 53.2074 95.7507 54.3952 96.9384C55.5829 98.1261 56.2502 99.737 56.2502 101.417H54.6668C54.6668 100.157 54.1664 98.9488 53.2756 98.058C52.3848 97.1672 51.1766 96.6667 49.9168 96.6667C48.6571 96.6667 47.4489 97.1672 46.5581 98.058C45.6673 98.9488 45.1668 100.157 45.1668 101.417H43.5835ZM49.9168 94.2917C47.2925 94.2917 45.1668 92.1661 45.1668 89.5417C45.1668 86.9174 47.2925 84.7917 49.9168 84.7917C52.5412 84.7917 54.6668 86.9174 54.6668 89.5417C54.6668 92.1661 52.5412 94.2917 49.9168 94.2917ZM49.9168 92.7084C51.6664 92.7084 53.0835 91.2913 53.0835 89.5417C53.0835 87.7922 51.6664 86.3751 49.9168 86.3751C48.1672 86.3751 46.7502 87.7922 46.7502 89.5417C46.7502 91.2913 48.1672 92.7084 49.9168 92.7084Z" fill="#3E0080"/>
<g filter="url(#filter2_d)">
<path d="M305.527 57.9716L285.351 52.7083C279.002 51.4308 270.75 65.8666 266.923 84.8969C263.201 103.478 265.048 119.564 271.03 121.57L271.342 121.653C271.403 121.653 271.457 121.691 271.518 121.702H271.551L291.041 126.686L305.527 57.9716Z" fill="#706F8E"/>
<path d="M297.681 55.9488V55.9104L295.46 55.3347C289.512 59.0684 283.289 72.2268 280.142 88.0935C276.901 104.454 277.718 118.637 281.825 124.339L284.879 125.118C279.561 122.492 278.086 106.323 281.638 88.3841C284.944 71.6785 291.864 57.7471 297.681 55.9488Z" fill="#393762"/>
<path d="M277.39 123.215C271.71 121.28 270.06 104.722 273.706 86.3006C276.995 69.6115 283.904 55.6691 289.743 53.8598L287.478 53.2622C281.551 57.0507 275.356 70.1433 272.215 85.9936C268.958 102.442 269.802 116.696 273.969 122.333L277.39 123.215Z" fill="#393762"/>
<path d="M309.452 94.5005C313.277 75.4469 311.227 58.9672 304.874 57.6919C298.521 56.4167 290.27 70.8288 286.445 89.8824C282.621 108.936 284.671 125.416 291.024 126.691C297.377 127.966 305.628 113.554 309.452 94.5005Z" fill="#393762"/>
<path d="M303.558 93.3183C301.31 104.497 297.834 113.231 295.784 112.82C293.733 112.409 293.892 103.012 296.14 91.827C298.388 80.6424 301.864 71.914 303.925 72.3252C305.987 72.7364 305.801 82.1337 303.558 93.3183Z" fill="#39373B"/>
<path d="M339.454 54.7642L330.408 64.8194C330.408 64.8194 323.33 66.1955 319.695 66.8918C316.06 67.5881 313.521 67.9883 313.521 67.9883C312.602 66.78 311.594 65.6419 310.506 64.5836C309.459 63.7174 307.364 64.0902 307.836 64.3424C308.307 64.5946 309.892 67.0837 310.286 67.632C310.681 68.1802 311.049 70.2527 312.178 70.8393C313.307 71.426 323.242 70.4007 325.254 70.2911C327.61 70.0519 329.949 69.6637 332.255 69.1287C332.524 69.0246 340.145 61.7875 340.962 61.5682C341.779 61.3489 344.032 54.6381 339.454 54.7642Z" fill="#EAA888"/>
<path d="M347.304 77.0513C347.304 77.0513 339.897 84.5406 336.607 87.6219C333.317 90.7031 330.741 95.4182 331.3 96.3941C331.859 97.37 339.222 118.292 339.222 118.292C339.222 118.292 332.309 122.826 331.546 123.226C330.784 123.626 333.12 124.169 335.022 124.076C336.925 123.983 341.053 122.513 342.331 122.431C343.608 122.349 346.646 122.223 346.574 120.699C346.503 119.175 344.178 115.852 343.701 113.834C343.225 111.817 341.108 102.25 340.231 99.8701C339.354 97.4906 338.904 96.1145 338.904 96.1145C338.904 96.1145 346.772 90.2645 349.453 87.8412C352.134 85.4179 353.839 83.943 353.839 83.943C353.839 83.943 358.368 96.0706 361.931 98.7023C365.495 101.334 371.252 110.347 374.75 113.747C375.749 114.677 376.51 115.832 376.97 117.118C377.43 118.403 377.575 119.779 377.392 121.132C377.392 121.132 372.091 124.696 371.745 125.48C371.4 126.264 373.812 126.143 376.098 126.028C378.385 125.913 384.284 124.109 385.134 123.286C385.984 122.464 383.308 119.679 382.996 118.423C382.683 117.168 379.936 110.424 378.237 106.811C376.537 103.198 372.453 100.342 371.235 98.8723C370.018 97.4029 367.803 93.6912 366.164 88.6745C364.525 83.6579 362.633 76.1138 361.23 73.6356C360.296 72.0697 359.085 70.6874 357.655 69.5565C356.37 68.9699 354.954 68.7298 353.548 68.8603C351.251 69.1015 347.304 77.0513 347.304 77.0513Z" fill="#F6BA99"/>
<path d="M371.269 98.949C370.052 97.4797 367.837 93.7679 366.197 88.7513C364.558 83.7347 362.667 76.1906 361.263 73.7124C360.328 72.1162 359.104 70.7071 357.655 69.5565C356.371 68.9699 354.955 68.7298 353.549 68.8603C351.268 69.1015 347.321 77.0513 347.321 77.0513C347.321 77.0513 339.914 84.5406 336.624 87.6219C333.334 90.7031 330.758 95.4182 331.317 96.3941C331.673 97.0301 334.859 105.928 337.079 112.184C338.329 112.36 340.325 112.321 343.148 111.323C342.315 107.677 340.955 101.718 340.27 99.9085C339.393 97.5345 338.943 96.1529 338.943 96.1529C338.943 96.1529 346.811 90.3029 349.492 87.8796C352.173 85.4562 353.878 83.9814 353.878 83.9814C353.878 83.9814 358.407 96.109 361.97 98.7407C365.534 101.372 371.291 110.386 374.789 113.785C376.053 113.825 377.306 113.54 378.429 112.957C379.142 112.59 379.811 112.195 380.436 111.789C379.69 110.008 378.901 108.209 378.243 106.855C376.571 103.275 372.486 100.418 371.269 98.949Z" fill="#DA5955"/>
<path d="M351.735 64.348C351.049 63.4653 351.466 54.9234 349.542 51.4419C347.617 47.9604 345.123 47.1654 342.606 46.2772C340.09 45.389 337.672 44.9559 337.31 44.7914C336.66 44.2924 336.052 43.7424 335.49 43.1466C335.49 43.1466 336.707 39.7913 335.939 37.1706C335.172 34.5499 331.69 32.609 327.787 33.4424C323.883 34.2757 322.655 39.0895 323.45 42.3517C323.656 43.0174 323.934 43.659 324.278 44.2651C324.472 44.9012 324.57 45.5628 324.568 46.2279C324.524 47.2367 324.19 47.8727 324.925 47.8727C325.413 47.8453 326.021 47.7795 326.361 47.7356C327.655 49.66 328.987 51.3432 329.497 51.5735C330.528 52.0724 333.933 48.5196 333.933 48.5196L338.467 51.0581C338.467 51.0581 336.323 59.8632 338.149 61.6122C339.974 63.3612 340.89 63.2186 341.493 64.4741C342.096 65.7297 345.496 77.2926 345.879 78.1808C346.263 79.069 348.516 79.7049 352.305 78.422C356.093 77.1391 358.314 71.7277 358.16 70.3625C358.007 68.9973 352.415 65.2307 351.735 64.348Z" fill="#F6BA99"/>
<path d="M335.934 30.0102C334.936 30.0435 333.976 30.4007 333.2 31.0278C332.423 31.655 331.872 32.518 331.63 33.4862C330.372 33.1694 329.059 33.1487 327.792 33.4259C325.687 33.87 324.365 35.4819 323.713 37.3844C324.282 36.905 325.002 36.6411 325.747 36.6387C328.132 36.6387 327.353 39.5829 328.412 40.5424C329.47 41.5019 330.714 40.7946 331.334 40.3998C331.953 40.0051 332.94 41.4196 332.71 42.3517C332.48 43.2837 331.262 42.7848 331.262 42.7848C332.192 43.1009 333.157 43.3016 334.135 43.3824C334.62 43.4337 335.109 43.3736 335.566 43.207L335.495 43.1302C335.972 41.7307 336.209 40.2608 336.197 38.7825H336.35C337.542 38.748 338.672 38.244 339.493 37.3804C340.315 36.5167 340.762 35.3633 340.737 34.1716C340.647 32.9847 340.091 31.8814 339.192 31.102C338.292 30.3226 337.121 29.9302 335.934 30.0102Z" fill="#393762"/>
<path d="M352.315 78.4276C356.104 77.1611 358.313 71.7278 358.16 70.3626C358.006 68.9974 352.414 65.2308 351.734 64.3317C351.054 63.4325 351.466 54.907 349.541 51.4255C348.579 49.5532 347.003 48.0671 345.078 47.2148C343.571 47.2148 341.668 47.4999 340.33 48.5691C339.501 49.2298 338.791 50.0271 338.231 50.9266L338.433 51.0417C338.433 51.0417 336.29 59.8469 338.115 61.5958C339.941 63.3448 340.857 63.2022 341.46 64.4578C342.063 65.7133 345.462 77.2762 345.846 78.1644C346.23 79.0526 348.527 79.7105 352.315 78.4276Z" fill="#EDC13B"/>
<path d="M345.085 47.9933C344.363 47.921 343.634 48.0072 342.95 48.2459C342.265 48.4845 341.641 48.8699 341.121 49.3749C339.278 51.1129 338.642 55.0824 338.708 56.3598C338.774 57.6373 340.194 58.6735 341.565 58.6077C343.837 58.3578 346.056 57.7567 348.144 56.8258C349.931 55.9102 348.555 52.0395 348.029 50.5976C347.502 49.1556 346.006 48.0372 345.085 47.9933Z" fill="#F6BA99"/>
<path d="M346.241 49.1996C346.241 49.1996 343.5 47.4945 341.071 48.3443C338.642 49.1941 334.492 52.4179 333.351 53.5693C332.211 54.7206 326.103 59.0684 325.856 59.2657C325.61 59.4631 322.764 59.6934 319.771 60.291C316.777 60.8886 309.918 61.6781 309.463 61.7C309.008 61.722 307.051 59.1616 305.527 57.9718C304.003 56.7821 301.623 56.8753 301.278 57.2591C300.932 57.6429 302.676 57.8348 303.367 58.8107C304.057 59.7866 305.324 63.2571 306.338 63.9534C307.352 64.6497 308.394 64.71 308.504 64.5017C308.504 64.5017 322.002 64.2824 324.831 63.9534C327.66 63.6245 332.255 61.3437 334.629 59.3973C337.003 57.451 342.557 54.7097 342.557 54.7097" fill="#F6BA99"/>
<path d="M346.597 120.754C346.487 120.037 346.253 119.345 345.907 118.709L345.737 118.758C343.363 119.635 342.348 119.811 340.769 118.758C340.318 118.415 339.763 118.237 339.196 118.254V118.325C339.196 118.325 332.282 122.859 331.52 123.259C330.758 123.659 333.094 124.202 334.996 124.109C336.899 124.016 341.027 122.546 342.304 122.464C343.582 122.382 346.691 122.278 346.597 120.754Z" fill="#393762"/>
<path d="M384.005 120.282C383.408 120.804 382.669 121.134 381.883 121.231C379.602 121.466 380.863 121.148 379.421 120.326C377.979 119.504 377.425 121.187 377.425 121.187C377.425 121.187 372.124 124.75 371.778 125.534C371.433 126.318 373.845 126.198 376.132 126.083C378.418 125.968 384.317 124.164 385.167 123.341C385.715 122.848 384.811 121.505 384.005 120.282Z" fill="#393762"/>
</g>
<path d="M71.0371 129.205C72.8125 129.205 74.0957 127.963 74.0957 126.264V126.252C74.0957 124.635 72.9414 123.439 71.3301 123.439C70.1758 123.439 69.4141 124.043 69.1035 124.723H68.9922C68.9922 124.658 68.9922 124.594 68.998 124.529C69.0625 122.842 69.6543 121.453 71.0781 121.453C71.875 121.453 72.4258 121.863 72.6602 122.508L72.6836 122.566H73.9844L73.9727 122.496C73.6914 121.219 72.5781 120.34 71.084 120.34C68.9922 120.34 67.7441 122.027 67.7441 124.887V124.898C67.7441 128.01 69.3379 129.205 71.0371 129.205ZM69.25 126.264V126.258C69.25 125.238 70.0234 124.5 71.0371 124.5C72.0625 124.5 72.8008 125.25 72.8008 126.287V126.299C72.8008 127.312 72.0156 128.104 71.0254 128.104C70.0293 128.104 69.25 127.295 69.25 126.264ZM78.248 129.205C80.1934 129.205 81.3711 127.5 81.3711 124.775V124.764C81.3711 122.039 80.1934 120.34 78.248 120.34C76.2969 120.34 75.125 122.039 75.125 124.764V124.775C75.125 127.5 76.2969 129.205 78.248 129.205ZM78.248 128.115C77.1113 128.115 76.4492 126.844 76.4492 124.775V124.764C76.4492 122.695 77.1113 121.436 78.248 121.436C79.3789 121.436 80.0469 122.695 80.0469 124.764V124.775C80.0469 126.844 79.3789 128.115 78.248 128.115ZM85.3398 129H86.6113V125.092C86.6113 124.26 87.1797 123.604 87.9473 123.604C88.6973 123.604 89.1719 124.061 89.1719 124.787V129H90.4375V124.975C90.4375 124.207 90.9707 123.604 91.7793 123.604C92.6113 123.604 93.0098 124.037 93.0098 124.916V129H94.2754V124.611C94.2754 123.287 93.5254 122.514 92.2422 122.514C91.3574 122.514 90.625 122.965 90.3027 123.65H90.2031C89.9219 122.965 89.3066 122.514 88.4395 122.514C87.6074 122.514 86.9863 122.918 86.7051 123.615H86.6113V122.637H85.3398V129ZM96.2129 121.5C96.6465 121.5 97.0098 121.143 97.0098 120.709C97.0098 120.27 96.6465 119.912 96.2129 119.912C95.7734 119.912 95.416 120.27 95.416 120.709C95.416 121.143 95.7734 121.5 96.2129 121.5ZM95.5742 129H96.8398V122.637H95.5742V129ZM98.1914 129H99.4629V125.268C99.4629 124.242 100.043 123.604 100.975 123.604C101.906 123.604 102.346 124.125 102.346 125.18V129H103.611V124.881C103.611 123.363 102.826 122.514 101.402 122.514C100.477 122.514 99.8672 122.924 99.5566 123.604H99.4629V122.637H98.1914V129ZM107.201 129.123C108.713 129.123 109.838 128.32 109.838 127.143V127.131C109.838 126.211 109.252 125.689 108.027 125.402L107.02 125.174C106.305 125.004 106.012 124.758 106.012 124.359V124.348C106.012 123.838 106.516 123.492 107.213 123.492C107.928 123.492 108.379 123.826 108.502 124.271V124.283H109.715V124.277C109.604 123.24 108.672 122.514 107.219 122.514C105.777 122.514 104.746 123.311 104.746 124.418V124.424C104.746 125.355 105.303 125.9 106.504 126.176L107.518 126.41C108.256 126.58 108.555 126.85 108.555 127.248V127.26C108.555 127.781 108.01 128.139 107.225 128.139C106.469 128.139 106.006 127.816 105.848 127.336L105.842 127.33H104.57V127.336C104.693 128.402 105.666 129.123 107.201 129.123Z" fill="#3E0080"/>
<path d="M51 131C49.8181 131 48.6478 130.767 47.5558 130.315C46.4639 129.863 45.4718 129.2 44.636 128.364C43.8003 127.528 43.1374 126.536 42.6851 125.444C42.2328 124.352 42 123.182 42 122C42 120.818 42.2328 119.648 42.6851 118.556C43.1374 117.464 43.8003 116.472 44.636 115.636C45.4718 114.8 46.4639 114.137 47.5558 113.685C48.6478 113.233 49.8181 113 51 113C53.3869 113 55.6761 113.948 57.364 115.636C59.0518 117.324 60 119.613 60 122C60 124.387 59.0518 126.676 57.364 128.364C55.6761 130.052 53.3869 131 51 131ZM52 122V117H50V124H55V122H52Z" fill="#3E0080"/>
<path d="M147.061 129.314H148.373V126.062H150.225L151.947 129.314H153.465L151.566 125.857C152.598 125.511 153.207 124.585 153.207 123.449V123.437C153.207 121.867 152.129 120.859 150.395 120.859H147.061V129.314ZM148.373 124.996V121.96H150.225C151.238 121.96 151.859 122.535 151.859 123.472V123.484C151.859 124.445 151.273 124.996 150.266 124.996H148.373ZM156.914 129.437C158.543 129.437 159.422 128.5 159.633 127.662L159.645 127.609L158.42 127.615L158.396 127.662C158.244 127.99 157.758 128.394 156.943 128.394C155.895 128.394 155.227 127.685 155.203 126.466H159.715V126.021C159.715 124.111 158.625 122.828 156.85 122.828C155.074 122.828 153.926 124.158 153.926 126.144V126.15C153.926 128.166 155.051 129.437 156.914 129.437ZM156.855 123.871C157.717 123.871 158.355 124.421 158.455 125.558H155.221C155.332 124.462 155.988 123.871 156.855 123.871ZM160.727 129.314H161.998V125.406C161.998 124.574 162.566 123.917 163.334 123.917C164.084 123.917 164.559 124.375 164.559 125.101V129.314H165.824V125.289C165.824 124.521 166.357 123.917 167.166 123.917C167.998 123.917 168.396 124.351 168.396 125.23V129.314H169.662V124.925C169.662 123.601 168.912 122.828 167.629 122.828C166.744 122.828 166.012 123.279 165.689 123.964H165.59C165.309 123.279 164.693 122.828 163.826 122.828C162.994 122.828 162.373 123.232 162.092 123.929H161.998V122.951H160.727V129.314ZM173.633 129.437C175.496 129.437 176.639 128.189 176.639 126.138V126.126C176.639 124.076 175.49 122.828 173.633 122.828C171.77 122.828 170.621 124.082 170.621 126.126V126.138C170.621 128.189 171.764 129.437 173.633 129.437ZM173.633 128.376C172.537 128.376 171.922 127.55 171.922 126.138V126.126C171.922 124.714 172.537 123.888 173.633 123.888C174.723 123.888 175.344 124.714 175.344 126.126V126.138C175.344 127.544 174.723 128.376 173.633 128.376ZM180.059 129.355C180.305 129.355 180.539 129.326 180.744 129.291V128.277C180.568 128.294 180.457 128.3 180.264 128.3C179.637 128.3 179.379 128.019 179.379 127.333V123.953H180.744V122.951H179.379V121.345H178.084V122.951H177.088V123.953H178.084V127.638C178.084 128.863 178.658 129.355 180.059 129.355ZM184.328 129.437C185.957 129.437 186.836 128.5 187.047 127.662L187.059 127.609L185.834 127.615L185.811 127.662C185.658 127.99 185.172 128.394 184.357 128.394C183.309 128.394 182.641 127.685 182.617 126.466H187.129V126.021C187.129 124.111 186.039 122.828 184.264 122.828C182.488 122.828 181.34 124.158 181.34 126.144V126.15C181.34 128.166 182.465 129.437 184.328 129.437ZM184.27 123.871C185.131 123.871 185.77 124.421 185.869 125.558H182.635C182.746 124.462 183.402 123.871 184.27 123.871Z" fill="#3E0080"/>
<path d="M140 121.112L138.814 122.297L138.222 121.704L134.667 125.259L134.074 128.223L132.888 129.407L129.333 125.852L125.185 130L124 128.815L128.148 124.667L124.592 121.112L125.777 119.926L128.742 119.333L132.297 115.778L131.704 115.186L132.889 114L140 121.112Z" fill="#3E0080"/>
<g filter="url(#filter3_d)">
<rect x="43" y="28" width="148" height="26" rx="5" fill="url(#paint0_linear)"/>
</g>
<g filter="url(#filter4_d)">
<path d="M53.2129 46H55.1611L57.0068 39.3555H57.1162L58.9824 46H60.917L63.5352 36.1357H61.4023L59.8779 43.1836H59.7686L57.9365 36.1357H56.1934L54.3955 43.1836H54.2861L52.748 36.1357H50.6016L53.2129 46ZM68.8047 46.2529C71.7168 46.2529 73.5488 44.2568 73.5488 41.0713V41.0576C73.5488 37.8721 71.71 35.8828 68.8047 35.8828C65.8994 35.8828 64.0537 37.8652 64.0537 41.0576V41.0713C64.0537 44.2568 65.8721 46.2529 68.8047 46.2529ZM68.8047 44.5029C67.1777 44.5029 66.1592 43.1562 66.1592 41.0713V41.0576C66.1592 38.9658 67.1982 37.6328 68.8047 37.6328C70.4043 37.6328 71.4434 38.9658 71.4434 41.0576V41.0713C71.4434 43.1562 70.4111 44.5029 68.8047 44.5029ZM75.0107 46H77.0752V42.3906H78.7637L80.6025 46H82.9404L80.8623 42.083C81.9902 41.6387 82.6465 40.5518 82.6465 39.2871V39.2734C82.6465 37.332 81.3613 36.1357 79.1191 36.1357H75.0107V46ZM77.0752 40.8867V37.749H78.8662C79.8984 37.749 80.5342 38.3643 80.5342 39.3145V39.3281C80.5342 40.2988 79.9258 40.8867 78.8936 40.8867H77.0752ZM84.2314 46H86.2959V42.9854L87.2734 41.8096L90.1377 46H92.6123L88.7637 40.4561L92.3594 36.1357H90.0625L86.4189 40.5654H86.2959V36.1357H84.2314V46ZM97.3281 46.2529C100.24 46.2529 102.072 44.2568 102.072 41.0713V41.0576C102.072 37.8721 100.233 35.8828 97.3281 35.8828C94.4229 35.8828 92.5771 37.8652 92.5771 41.0576V41.0713C92.5771 44.2568 94.3955 46.2529 97.3281 46.2529ZM97.3281 44.5029C95.7012 44.5029 94.6826 43.1562 94.6826 41.0713V41.0576C94.6826 38.9658 95.7217 37.6328 97.3281 37.6328C98.9277 37.6328 99.9668 38.9658 99.9668 41.0576V41.0713C99.9668 43.1562 98.9346 44.5029 97.3281 44.5029ZM107.663 46.2529C110.206 46.2529 111.792 44.7832 111.792 42.5957V36.1357H109.728V42.4111C109.728 43.6895 108.989 44.5029 107.663 44.5029C106.337 44.5029 105.592 43.6895 105.592 42.4111V36.1357H103.527V42.5957C103.527 44.79 105.134 46.2529 107.663 46.2529ZM116.077 46H118.142V37.8379H121.102V36.1357H113.117V37.8379H116.077V46ZM129.063 46.2529C131.524 46.2529 133.042 45.0156 133.042 43.0605V43.0537C133.042 41.5156 132.133 40.6816 130.048 40.251L129.002 40.0391C127.84 39.7998 127.361 39.417 127.361 38.7744V38.7676C127.361 38.0293 128.038 37.5645 129.057 37.5576C130.096 37.5576 130.779 38.0498 130.896 38.7539L130.909 38.8359H132.851L132.844 38.7471C132.714 37.0996 131.36 35.8828 129.057 35.8828C126.869 35.8828 125.297 37.0928 125.297 38.9248V38.9316C125.297 40.4287 126.179 41.3857 128.229 41.8027L129.269 42.0146C130.492 42.2676 130.978 42.6299 130.978 43.2793V43.2861C130.978 44.0449 130.219 44.5713 129.118 44.5713C127.963 44.5713 127.163 44.0723 127.088 43.334L127.081 43.2656H125.092L125.099 43.375C125.215 45.125 126.705 46.2529 129.063 46.2529ZM134.497 46H141.032V44.2979H136.562V41.8027H140.779V40.2168H136.562V37.8379H141.032V36.1357H134.497V46ZM146.233 46.2529C148.694 46.2529 150.212 45.0156 150.212 43.0605V43.0537C150.212 41.5156 149.303 40.6816 147.218 40.251L146.172 40.0391C145.01 39.7998 144.531 39.417 144.531 38.7744V38.7676C144.531 38.0293 145.208 37.5645 146.227 37.5576C147.266 37.5576 147.949 38.0498 148.065 38.7539L148.079 38.8359H150.021L150.014 38.7471C149.884 37.0996 148.53 35.8828 146.227 35.8828C144.039 35.8828 142.467 37.0928 142.467 38.9248V38.9316C142.467 40.4287 143.349 41.3857 145.399 41.8027L146.438 42.0146C147.662 42.2676 148.147 42.6299 148.147 43.2793V43.2861C148.147 44.0449 147.389 44.5713 146.288 44.5713C145.133 44.5713 144.333 44.0723 144.258 43.334L144.251 43.2656H142.262L142.269 43.375C142.385 45.125 143.875 46.2529 146.233 46.2529ZM155.194 46.2529C157.655 46.2529 159.173 45.0156 159.173 43.0605V43.0537C159.173 41.5156 158.264 40.6816 156.179 40.251L155.133 40.0391C153.971 39.7998 153.492 39.417 153.492 38.7744V38.7676C153.492 38.0293 154.169 37.5645 155.188 37.5576C156.227 37.5576 156.91 38.0498 157.026 38.7539L157.04 38.8359H158.981L158.975 38.7471C158.845 37.0996 157.491 35.8828 155.188 35.8828C153 35.8828 151.428 37.0928 151.428 38.9248V38.9316C151.428 40.4287 152.31 41.3857 154.36 41.8027L155.399 42.0146C156.623 42.2676 157.108 42.6299 157.108 43.2793V43.2861C157.108 44.0449 156.35 44.5713 155.249 44.5713C154.094 44.5713 153.294 44.0723 153.219 43.334L153.212 43.2656H151.223L151.229 43.375C151.346 45.125 152.836 46.2529 155.194 46.2529ZM160.628 46H162.692V36.1357H160.628V46ZM168.898 46.2529C171.811 46.2529 173.643 44.2568 173.643 41.0713V41.0576C173.643 37.8721 171.804 35.8828 168.898 35.8828C165.993 35.8828 164.147 37.8652 164.147 41.0576V41.0713C164.147 44.2568 165.966 46.2529 168.898 46.2529ZM168.898 44.5029C167.271 44.5029 166.253 43.1562 166.253 41.0713V41.0576C166.253 38.9658 167.292 37.6328 168.898 37.6328C170.498 37.6328 171.537 38.9658 171.537 41.0576V41.0713C171.537 43.1562 170.505 44.5029 168.898 44.5029ZM175.104 46H177.08V39.6904H177.189L181.756 46H183.465V36.1357H181.489V42.418H181.38L176.827 36.1357H175.104V46Z" fill="white"/>
</g>
<defs>
<filter id="filter0_d" x="13" y="6" width="397" height="151" filterUnits="userSpaceOnUse" color-interpolation-filters="sRGB">
<feFlood flood-opacity="0" result="BackgroundImageFix"/>
<feColorMatrix in="SourceAlpha" type="matrix" values="0 0 0 0 0 0 0 0 0 0 0 0 0 0 0 0 0 0 127 0"/>
<feOffset/>
<feGaussianBlur stdDeviation="5"/>
<feColorMatrix type="matrix" values="0 0 0 0 0 0 0 0 0 0 0 0 0 0 0 0 0 0 0.1 0"/>
<feBlend mode="normal" in2="BackgroundImageFix" result="effect1_dropShadow"/>
<feBlend mode="normal" in="SourceGraphic" in2="effect1_dropShadow" result="shape"/>
</filter>
<filter id="filter1_i" x="-12.541" y="-128.996" width="553.821" height="703.329" filterUnits="userSpaceOnUse" color-interpolation-filters="sRGB">
<feFlood flood-opacity="0" result="BackgroundImageFix"/>
<feBlend mode="normal" in="SourceGraphic" in2="BackgroundImageFix" result="shape"/>
<feColorMatrix in="SourceAlpha" type="matrix" values="0 0 0 0 0 0 0 0 0 0 0 0 0 0 0 0 0 0 127 0" result="hardAlpha"/>
<feOffset dy="4"/>
<feGaussianBlur stdDeviation="2"/>
<feComposite in2="hardAlpha" operator="arithmetic" k2="-1" k3="1"/>
<feColorMatrix type="matrix" values="0 0 0 0 0 0 0 0 0 0 0 0 0 0 0 0 0 0 0.25 0"/>
<feBlend mode="normal" in2="shape" result="effect1_innerShadow"/>
</filter>
<filter id="filter2_d" x="261" y="30" width="128.335" height="107" filterUnits="userSpaceOnUse" color-interpolation-filters="sRGB">
<feFlood flood-opacity="0" result="BackgroundImageFix"/>
<feColorMatrix in="SourceAlpha" type="matrix" values="0 0 0 0 0 0 0 0 0 0 0 0 0 0 0 0 0 0 127 0"/>
<feOffset dy="4"/>
<feGaussianBlur stdDeviation="2"/>
<feColorMatrix type="matrix" values="0 0 0 0 0 0 0 0 0 0 0 0 0 0 0 0 0 0 0.25 0"/>
<feBlend mode="normal" in2="BackgroundImageFix" result="effect1_dropShadow"/>
<feBlend mode="normal" in="SourceGraphic" in2="effect1_dropShadow" result="shape"/>
</filter>
<filter id="filter3_d" x="26" y="15" width="182" height="60" filterUnits="userSpaceOnUse" color-interpolation-filters="sRGB">
<feFlood flood-opacity="0" result="BackgroundImageFix"/>
<feColorMatrix in="SourceAlpha" type="matrix" values="0 0 0 0 0 0 0 0 0 0 0 0 0 0 0 0 0 0 127 0"/>
<feOffset dy="4"/>
<feGaussianBlur stdDeviation="8.5"/>
<feColorMatrix type="matrix" values="0 0 0 0 0 0 0 0 0 0 0 0 0 0 0 0 0 0 0.25 0"/>
<feBlend mode="normal" in2="BackgroundImageFix" result="effect1_dropShadow"/>
<feBlend mode="normal" in="SourceGraphic" in2="effect1_dropShadow" result="shape"/>
</filter>
<filter id="filter4_d" x="46.6016" y="35.8828" width="140.863" height="18.3701" filterUnits="userSpaceOnUse" color-interpolation-filters="sRGB">
<feFlood flood-opacity="0" result="BackgroundImageFix"/>
<feColorMatrix in="SourceAlpha" type="matrix" values="0 0 0 0 0 0 0 0 0 0 0 0 0 0 0 0 0 0 127 0"/>
<feOffset dy="4"/>
<feGaussianBlur stdDeviation="2"/>
<feColorMatrix type="matrix" values="0 0 0 0 0 0 0 0 0 0 0 0 0 0 0 0 0 0 0.25 0"/>
<feBlend mode="normal" in2="BackgroundImageFix" result="effect1_dropShadow"/>
<feBlend mode="normal" in="SourceGraphic" in2="effect1_dropShadow" result="shape"/>
</filter>
<linearGradient id="paint0_linear" x1="117" y1="28" x2="117" y2="54" gradientUnits="userSpaceOnUse">
<stop stop-color="#F9A158"/>
<stop offset="1" stop-color="#F16662"/>
</linearGradient>
</defs>
</svg>
